%TF.GenerationSoftware,KiCad,Pcbnew,5.1.7-a382d34a8~88~ubuntu20.04.1*%
%TF.CreationDate,2020-12-27T18:37:31+01:00*%
%TF.ProjectId,PhotoPlug,50686f74-6f50-46c7-9567-2e6b69636164,rev?*%
%TF.SameCoordinates,Original*%
%TF.FileFunction,Copper,L2,Bot*%
%TF.FilePolarity,Positive*%
%FSLAX46Y46*%
G04 Gerber Fmt 4.6, Leading zero omitted, Abs format (unit mm)*
G04 Created by KiCad (PCBNEW 5.1.7-a382d34a8~88~ubuntu20.04.1) date 2020-12-27 18:37:31*
%MOMM*%
%LPD*%
G01*
G04 APERTURE LIST*
%TA.AperFunction,NonConductor*%
%ADD10C,0.250000*%
%TD*%
%TA.AperFunction,ComponentPad*%
%ADD11C,3.000000*%
%TD*%
%TA.AperFunction,ComponentPad*%
%ADD12O,0.850000X0.850000*%
%TD*%
%TA.AperFunction,ComponentPad*%
%ADD13R,0.850000X0.850000*%
%TD*%
%TA.AperFunction,ComponentPad*%
%ADD14C,1.800000*%
%TD*%
%TA.AperFunction,ComponentPad*%
%ADD15O,1.400000X1.400000*%
%TD*%
%TA.AperFunction,ComponentPad*%
%ADD16C,1.400000*%
%TD*%
%TA.AperFunction,ComponentPad*%
%ADD17C,1.840000*%
%TD*%
%TA.AperFunction,ComponentPad*%
%ADD18C,1.300000*%
%TD*%
%TA.AperFunction,ComponentPad*%
%ADD19C,1.665000*%
%TD*%
%TA.AperFunction,ComponentPad*%
%ADD20R,1.665000X1.665000*%
%TD*%
%TA.AperFunction,ComponentPad*%
%ADD21C,2.780000*%
%TD*%
%TA.AperFunction,ComponentPad*%
%ADD22C,1.600000*%
%TD*%
%TA.AperFunction,ComponentPad*%
%ADD23R,1.600000X1.600000*%
%TD*%
%TA.AperFunction,ViaPad*%
%ADD24C,0.800000*%
%TD*%
%TA.AperFunction,Conductor*%
%ADD25C,0.750000*%
%TD*%
%TA.AperFunction,Conductor*%
%ADD26C,0.500000*%
%TD*%
%TA.AperFunction,Conductor*%
%ADD27C,0.250000*%
%TD*%
G04 APERTURE END LIST*
D10*
X186142952Y-97988380D02*
X186142952Y-96988380D01*
X186523904Y-96988380D01*
X186619142Y-97036000D01*
X186666761Y-97083619D01*
X186714380Y-97178857D01*
X186714380Y-97321714D01*
X186666761Y-97416952D01*
X186619142Y-97464571D01*
X186523904Y-97512190D01*
X186142952Y-97512190D01*
X187142952Y-97464571D02*
X187476285Y-97464571D01*
X187619142Y-97988380D02*
X187142952Y-97988380D01*
X187142952Y-96988380D01*
X187619142Y-96988380D01*
X188523904Y-97988380D02*
X188047714Y-97988380D01*
X188047714Y-96988380D01*
X188857238Y-97988380D02*
X188857238Y-96988380D01*
X189857238Y-97036000D02*
X189762000Y-96988380D01*
X189619142Y-96988380D01*
X189476285Y-97036000D01*
X189381047Y-97131238D01*
X189333428Y-97226476D01*
X189285809Y-97416952D01*
X189285809Y-97559809D01*
X189333428Y-97750285D01*
X189381047Y-97845523D01*
X189476285Y-97940761D01*
X189619142Y-97988380D01*
X189714380Y-97988380D01*
X189857238Y-97940761D01*
X189904857Y-97893142D01*
X189904857Y-97559809D01*
X189714380Y-97559809D01*
X190904857Y-97988380D02*
X190571523Y-97512190D01*
X190333428Y-97988380D02*
X190333428Y-96988380D01*
X190714380Y-96988380D01*
X190809619Y-97036000D01*
X190857238Y-97083619D01*
X190904857Y-97178857D01*
X190904857Y-97321714D01*
X190857238Y-97416952D01*
X190809619Y-97464571D01*
X190714380Y-97512190D01*
X190333428Y-97512190D01*
X191523904Y-96988380D02*
X191714380Y-96988380D01*
X191809619Y-97036000D01*
X191904857Y-97131238D01*
X191952476Y-97321714D01*
X191952476Y-97655047D01*
X191904857Y-97845523D01*
X191809619Y-97940761D01*
X191714380Y-97988380D01*
X191523904Y-97988380D01*
X191428666Y-97940761D01*
X191333428Y-97845523D01*
X191285809Y-97655047D01*
X191285809Y-97321714D01*
X191333428Y-97131238D01*
X191428666Y-97036000D01*
X191523904Y-96988380D01*
X193095333Y-97083619D02*
X193142952Y-97036000D01*
X193238190Y-96988380D01*
X193476285Y-96988380D01*
X193571523Y-97036000D01*
X193619142Y-97083619D01*
X193666761Y-97178857D01*
X193666761Y-97274095D01*
X193619142Y-97416952D01*
X193047714Y-97988380D01*
X193666761Y-97988380D01*
X194047714Y-97083619D02*
X194095333Y-97036000D01*
X194190571Y-96988380D01*
X194428666Y-96988380D01*
X194523904Y-97036000D01*
X194571523Y-97083619D01*
X194619142Y-97178857D01*
X194619142Y-97274095D01*
X194571523Y-97416952D01*
X194000095Y-97988380D01*
X194619142Y-97988380D01*
X195238190Y-96988380D02*
X195333428Y-96988380D01*
X195428666Y-97036000D01*
X195476285Y-97083619D01*
X195523904Y-97178857D01*
X195571523Y-97369333D01*
X195571523Y-97607428D01*
X195523904Y-97797904D01*
X195476285Y-97893142D01*
X195428666Y-97940761D01*
X195333428Y-97988380D01*
X195238190Y-97988380D01*
X195142952Y-97940761D01*
X195095333Y-97893142D01*
X195047714Y-97797904D01*
X195000095Y-97607428D01*
X195000095Y-97369333D01*
X195047714Y-97178857D01*
X195095333Y-97083619D01*
X195142952Y-97036000D01*
X195238190Y-96988380D01*
X195857238Y-96988380D02*
X196190571Y-97988380D01*
X196523904Y-96988380D01*
D11*
%TO.P,U1,1*%
%TO.N,Net-(J1-Pad2)*%
X124238000Y-141500000D03*
%TO.P,U1,0*%
%TO.N,Net-(F1-Pad2)*%
X128438000Y-141500000D03*
%TO.P,U1,3*%
%TO.N,GND*%
X133738000Y-112500000D03*
%TO.P,U1,2*%
%TO.N,Net-(F2-Pad2)*%
X118738000Y-112500000D03*
%TD*%
%TO.P,J3,1*%
%TO.N,Net-(J1-Pad2)*%
X186690000Y-108966000D03*
%TO.P,J3,2*%
%TO.N,Net-(J1-Pad1)*%
X191690000Y-108966000D03*
%TD*%
D12*
%TO.P,J4,8*%
%TO.N,Net-(IC1-Pad3)*%
X150114000Y-108062000D03*
%TO.P,J4,7*%
%TO.N,Net-(IC1-Pad2)*%
X150114000Y-109062000D03*
%TO.P,J4,6*%
%TO.N,Net-(IC1-Pad1)*%
X150114000Y-110062000D03*
%TO.P,J4,5*%
%TO.N,+5V*%
X150114000Y-111062000D03*
%TO.P,J4,4*%
X150114000Y-112062000D03*
%TO.P,J4,3*%
%TO.N,GND*%
X150114000Y-113062000D03*
%TO.P,J4,2*%
X150114000Y-114062000D03*
D13*
%TO.P,J4,1*%
X150114000Y-115062000D03*
%TD*%
D14*
%TO.P,RV1,1*%
%TO.N,Net-(J1-Pad2)*%
X142748000Y-109982000D03*
%TO.P,RV1,2*%
%TO.N,Net-(F1-Pad2)*%
X144798000Y-102482000D03*
%TD*%
D15*
%TO.P,R3,2*%
%TO.N,Net-(IC1-Pad4)*%
X193040000Y-124968000D03*
D16*
%TO.P,R3,1*%
%TO.N,Net-(J6-Pad2)*%
X195580000Y-124968000D03*
%TD*%
D15*
%TO.P,R2,2*%
%TO.N,Net-(IC1-Pad4)*%
X192786000Y-120650000D03*
D16*
%TO.P,R2,1*%
%TO.N,Net-(J8-Pad2)*%
X195326000Y-120650000D03*
%TD*%
D15*
%TO.P,R1,2*%
%TO.N,Net-(IC1-Pad4)*%
X193548000Y-129540000D03*
D16*
%TO.P,R1,1*%
%TO.N,Net-(J7-Pad2)*%
X196088000Y-129540000D03*
%TD*%
D17*
%TO.P,K1,1*%
%TO.N,Net-(F1-Pad2)*%
X145542000Y-135890000D03*
D18*
%TO.P,K1,2*%
%TO.N,Net-(IC1-Pad6)*%
X139542000Y-133890000D03*
%TO.P,K1,3*%
%TO.N,GND*%
X151542000Y-133890000D03*
%TO.P,K1,4*%
%TO.N,Net-(J2-Pad1)*%
X139542000Y-121690000D03*
%TO.P,K1,5*%
%TO.N,N/C*%
X151542000Y-121690000D03*
%TD*%
D12*
%TO.P,J8,2*%
%TO.N,Net-(J8-Pad2)*%
X201422000Y-119142000D03*
D13*
%TO.P,J8,1*%
%TO.N,GND*%
X201422000Y-120142000D03*
%TD*%
D12*
%TO.P,J7,2*%
%TO.N,Net-(J7-Pad2)*%
X200914000Y-129302000D03*
D13*
%TO.P,J7,1*%
%TO.N,GND*%
X200914000Y-130302000D03*
%TD*%
D12*
%TO.P,J6,2*%
%TO.N,Net-(J6-Pad2)*%
X201168000Y-125460000D03*
D13*
%TO.P,J6,1*%
%TO.N,GND*%
X201168000Y-124460000D03*
%TD*%
D11*
%TO.P,J5,1*%
%TO.N,Net-(J1-Pad2)*%
X130810000Y-105410000D03*
%TO.P,J5,2*%
%TO.N,Net-(J2-Pad1)*%
X130810000Y-100410000D03*
%TD*%
%TO.P,J2,1*%
%TO.N,Net-(J2-Pad1)*%
X176022000Y-147066000D03*
%TO.P,J2,2*%
%TO.N,Net-(F1-Pad1)*%
X181022000Y-147066000D03*
%TO.P,J2,3*%
%TO.N,Net-(J1-Pad1)*%
X186022000Y-147066000D03*
%TD*%
%TO.P,J1,1*%
%TO.N,Net-(J1-Pad1)*%
X196596000Y-138684000D03*
%TO.P,J1,2*%
%TO.N,Net-(J1-Pad2)*%
X201596000Y-138684000D03*
%TD*%
D19*
%TO.P,IC1,1*%
%TO.N,Net-(IC1-Pad1)*%
X156718000Y-120396000D03*
%TO.P,IC1,2*%
%TO.N,Net-(IC1-Pad2)*%
X156718000Y-117856000D03*
%TO.P,IC1,3*%
%TO.N,Net-(IC1-Pad3)*%
X156718000Y-115316000D03*
%TO.P,IC1,4*%
%TO.N,Net-(IC1-Pad4)*%
X156718000Y-112776000D03*
%TO.P,IC1,5*%
%TO.N,N/C*%
X156718000Y-110236000D03*
%TO.P,IC1,6*%
%TO.N,Net-(IC1-Pad6)*%
X156718000Y-107696000D03*
%TO.P,IC1,7*%
%TO.N,N/C*%
X156718000Y-105156000D03*
D20*
%TO.P,IC1,8*%
%TO.N,+5V*%
X156718000Y-102616000D03*
%TO.P,IC1,9*%
%TO.N,N/C*%
X179578000Y-102616000D03*
D19*
%TO.P,IC1,10*%
X179578000Y-105156000D03*
%TO.P,IC1,11*%
X179578000Y-107696000D03*
%TO.P,IC1,12*%
X179578000Y-110236000D03*
%TO.P,IC1,13*%
X179578000Y-112776000D03*
%TO.P,IC1,14*%
X179578000Y-115316000D03*
%TO.P,IC1,15*%
X179578000Y-117856000D03*
%TO.P,IC1,16*%
%TO.N,GND*%
X179578000Y-120396000D03*
%TD*%
D21*
%TO.P,F2,1*%
%TO.N,+1V5*%
X142270000Y-149052000D03*
%TO.P,F2,2*%
%TO.N,Net-(F2-Pad2)*%
X127270000Y-149372000D03*
%TD*%
%TO.P,F1,1*%
%TO.N,Net-(F1-Pad1)*%
X150592000Y-147366000D03*
%TO.P,F1,2*%
%TO.N,Net-(F1-Pad2)*%
X165592000Y-147046000D03*
%TD*%
D22*
%TO.P,C2,2*%
%TO.N,GND*%
X189190000Y-132588000D03*
D23*
%TO.P,C2,1*%
%TO.N,+1V5*%
X186690000Y-132588000D03*
%TD*%
D22*
%TO.P,C1,2*%
%TO.N,GND*%
X188682000Y-121158000D03*
D23*
%TO.P,C1,1*%
%TO.N,+1V5*%
X186182000Y-121158000D03*
%TD*%
D24*
%TO.N,GND*%
X145542000Y-113792000D03*
X150114000Y-114062000D03*
%TO.N,Net-(J1-Pad2)*%
X142748000Y-109982000D03*
X138176000Y-113538000D03*
%TD*%
D25*
%TO.N,GND*%
X150114000Y-115062000D02*
X150114000Y-114062000D01*
X150114000Y-114062000D02*
X150114000Y-113062000D01*
X200914000Y-130302000D02*
X200660000Y-130302000D01*
D26*
X200660000Y-130302000D02*
X198374000Y-128016000D01*
D25*
X200493000Y-124460000D02*
X201168000Y-124460000D01*
X198374000Y-126579000D02*
X200493000Y-124460000D01*
X198374000Y-128016000D02*
X198374000Y-126579000D01*
X133738000Y-112500000D02*
X136300000Y-115062000D01*
D27*
X136300000Y-115062000D02*
X144272000Y-115062000D01*
X144272000Y-115062000D02*
X145542000Y-113792000D01*
D25*
%TO.N,Net-(F1-Pad2)*%
X145542000Y-135890000D02*
X148590000Y-135890000D01*
X159746000Y-147046000D02*
X165592000Y-147046000D01*
X148590000Y-135890000D02*
X159746000Y-147046000D01*
%TO.N,Net-(IC1-Pad1)*%
X155110489Y-118788489D02*
X156718000Y-120396000D01*
D27*
X155110489Y-114948487D02*
X155110489Y-118788489D01*
X150224002Y-110062000D02*
X155110489Y-114948487D01*
D25*
X150114000Y-110062000D02*
X150224002Y-110062000D01*
D27*
%TO.N,Net-(IC1-Pad2)*%
X155560499Y-116698499D02*
X156718000Y-117856000D01*
X155560499Y-114398497D02*
X155560499Y-116698499D01*
X150224002Y-109062000D02*
X155560499Y-114398497D01*
D25*
X150114000Y-109062000D02*
X150224002Y-109062000D01*
%TO.N,Net-(IC1-Pad3)*%
X156718000Y-114555998D02*
X156718000Y-115316000D01*
D27*
X150224002Y-108062000D02*
X156718000Y-114555998D01*
D25*
X150114000Y-108062000D02*
X150224002Y-108062000D01*
%TO.N,Net-(IC1-Pad6)*%
X139542000Y-133890000D02*
X137700000Y-133890000D01*
X137700000Y-133890000D02*
X136906000Y-133096000D01*
X136906000Y-133096000D02*
X136906000Y-117348000D01*
D27*
X136906000Y-117348000D02*
X138684000Y-115570000D01*
X138684000Y-115570000D02*
X145034000Y-115570000D01*
D26*
X145034000Y-115570000D02*
X147574000Y-113030000D01*
D25*
X147574000Y-113030000D02*
X147574000Y-106172000D01*
X147574000Y-106172000D02*
X148336000Y-105410000D01*
X154432000Y-105410000D02*
X156718000Y-107696000D01*
X148336000Y-105410000D02*
X154432000Y-105410000D01*
%TO.N,+5V*%
X150114000Y-112062000D02*
X150114000Y-111062000D01*
%TO.N,Net-(J1-Pad2)*%
X138176000Y-105410000D02*
X142748000Y-109982000D01*
X130810000Y-105410000D02*
X138176000Y-105410000D01*
X139192000Y-113538000D02*
X142748000Y-109982000D01*
X138176000Y-113538000D02*
X139192000Y-113538000D01*
%TO.N,Net-(J2-Pad1)*%
X139542000Y-121690000D02*
X146328000Y-121690000D01*
X171704000Y-147066000D02*
X176022000Y-147066000D01*
X146328000Y-121690000D02*
X171704000Y-147066000D01*
%TD*%
M02*
