G04 #@! TF.GenerationSoftware,KiCad,Pcbnew,5.1.5+dfsg1-2build2*
G04 #@! TF.CreationDate,2020-05-08T19:42:09+02:00*
G04 #@! TF.ProjectId,sm,736d2e6b-6963-4616-945f-706362585858,rev?*
G04 #@! TF.SameCoordinates,Original*
G04 #@! TF.FileFunction,Soldermask,Top*
G04 #@! TF.FilePolarity,Negative*
%FSLAX46Y46*%
G04 Gerber Fmt 4.6, Leading zero omitted, Abs format (unit mm)*
G04 Created by KiCad (PCBNEW 5.1.5+dfsg1-2build2) date 2020-05-08 19:42:09*
%MOMM*%
%LPD*%
G04 APERTURE LIST*
%ADD10C,0.100000*%
G04 APERTURE END LIST*
D10*
G36*
X221375256Y-115391298D02*
G01*
X221481579Y-115412447D01*
X221694037Y-115500450D01*
X221738821Y-115519000D01*
X221782042Y-115536903D01*
X222052451Y-115717585D01*
X222282415Y-115947549D01*
X222463097Y-116217958D01*
X222587553Y-116518421D01*
X222608702Y-116624744D01*
X222651000Y-116837389D01*
X222651000Y-117162611D01*
X222622384Y-117306471D01*
X222587553Y-117481579D01*
X222463097Y-117782042D01*
X222282415Y-118052451D01*
X222052451Y-118282415D01*
X221782042Y-118463097D01*
X221481579Y-118587553D01*
X221375256Y-118608702D01*
X221162611Y-118651000D01*
X220837389Y-118651000D01*
X220624744Y-118608702D01*
X220518421Y-118587553D01*
X220217958Y-118463097D01*
X219947549Y-118282415D01*
X219717585Y-118052451D01*
X219536903Y-117782042D01*
X219412447Y-117481579D01*
X219377616Y-117306471D01*
X219349000Y-117162611D01*
X219349000Y-116837389D01*
X219391298Y-116624744D01*
X219412447Y-116518421D01*
X219536903Y-116217958D01*
X219717585Y-115947549D01*
X219947549Y-115717585D01*
X220217958Y-115536903D01*
X220261180Y-115519000D01*
X220305963Y-115500450D01*
X220518421Y-115412447D01*
X220624744Y-115391298D01*
X220837389Y-115349000D01*
X221162611Y-115349000D01*
X221375256Y-115391298D01*
G37*
G36*
X130581256Y-115391298D02*
G01*
X130687579Y-115412447D01*
X130900037Y-115500450D01*
X130944821Y-115519000D01*
X130988042Y-115536903D01*
X131258451Y-115717585D01*
X131488415Y-115947549D01*
X131669097Y-116217958D01*
X131793553Y-116518421D01*
X131814702Y-116624744D01*
X131857000Y-116837389D01*
X131857000Y-117162611D01*
X131828384Y-117306471D01*
X131793553Y-117481579D01*
X131669097Y-117782042D01*
X131488415Y-118052451D01*
X131258451Y-118282415D01*
X130988042Y-118463097D01*
X130687579Y-118587553D01*
X130581256Y-118608702D01*
X130368611Y-118651000D01*
X130043389Y-118651000D01*
X129830744Y-118608702D01*
X129724421Y-118587553D01*
X129423958Y-118463097D01*
X129153549Y-118282415D01*
X128923585Y-118052451D01*
X128742903Y-117782042D01*
X128618447Y-117481579D01*
X128583616Y-117306471D01*
X128555000Y-117162611D01*
X128555000Y-116837389D01*
X128597298Y-116624744D01*
X128618447Y-116518421D01*
X128742903Y-116217958D01*
X128923585Y-115947549D01*
X129153549Y-115717585D01*
X129423958Y-115536903D01*
X129467180Y-115519000D01*
X129511963Y-115500450D01*
X129724421Y-115412447D01*
X129830744Y-115391298D01*
X130043389Y-115349000D01*
X130368611Y-115349000D01*
X130581256Y-115391298D01*
G37*
G36*
X199881142Y-115804242D02*
G01*
X200029101Y-115865529D01*
X200162255Y-115954499D01*
X200275501Y-116067745D01*
X200364471Y-116200899D01*
X200425758Y-116348858D01*
X200457000Y-116505925D01*
X200457000Y-116666075D01*
X200425758Y-116823142D01*
X200364471Y-116971101D01*
X200275501Y-117104255D01*
X200162255Y-117217501D01*
X200029101Y-117306471D01*
X199881142Y-117367758D01*
X199724075Y-117399000D01*
X199563925Y-117399000D01*
X199406858Y-117367758D01*
X199258899Y-117306471D01*
X199125745Y-117217501D01*
X199012499Y-117104255D01*
X198923529Y-116971101D01*
X198862242Y-116823142D01*
X198831000Y-116666075D01*
X198831000Y-116505925D01*
X198862242Y-116348858D01*
X198923529Y-116200899D01*
X199012499Y-116067745D01*
X199125745Y-115954499D01*
X199258899Y-115865529D01*
X199406858Y-115804242D01*
X199563925Y-115773000D01*
X199724075Y-115773000D01*
X199881142Y-115804242D01*
G37*
G36*
X194801142Y-115804242D02*
G01*
X194949101Y-115865529D01*
X195082255Y-115954499D01*
X195195501Y-116067745D01*
X195284471Y-116200899D01*
X195345758Y-116348858D01*
X195377000Y-116505925D01*
X195377000Y-116666075D01*
X195345758Y-116823142D01*
X195284471Y-116971101D01*
X195195501Y-117104255D01*
X195082255Y-117217501D01*
X194949101Y-117306471D01*
X194801142Y-117367758D01*
X194644075Y-117399000D01*
X194483925Y-117399000D01*
X194326858Y-117367758D01*
X194178899Y-117306471D01*
X194045745Y-117217501D01*
X193932499Y-117104255D01*
X193843529Y-116971101D01*
X193782242Y-116823142D01*
X193751000Y-116666075D01*
X193751000Y-116505925D01*
X193782242Y-116348858D01*
X193843529Y-116200899D01*
X193932499Y-116067745D01*
X194045745Y-115954499D01*
X194178899Y-115865529D01*
X194326858Y-115804242D01*
X194483925Y-115773000D01*
X194644075Y-115773000D01*
X194801142Y-115804242D01*
G37*
G36*
X204961142Y-115804242D02*
G01*
X205109101Y-115865529D01*
X205242255Y-115954499D01*
X205355501Y-116067745D01*
X205444471Y-116200899D01*
X205505758Y-116348858D01*
X205537000Y-116505925D01*
X205537000Y-116666075D01*
X205505758Y-116823142D01*
X205444471Y-116971101D01*
X205355501Y-117104255D01*
X205242255Y-117217501D01*
X205109101Y-117306471D01*
X204961142Y-117367758D01*
X204804075Y-117399000D01*
X204643925Y-117399000D01*
X204486858Y-117367758D01*
X204338899Y-117306471D01*
X204205745Y-117217501D01*
X204092499Y-117104255D01*
X204003529Y-116971101D01*
X203942242Y-116823142D01*
X203911000Y-116666075D01*
X203911000Y-116505925D01*
X203942242Y-116348858D01*
X204003529Y-116200899D01*
X204092499Y-116067745D01*
X204205745Y-115954499D01*
X204338899Y-115865529D01*
X204486858Y-115804242D01*
X204643925Y-115773000D01*
X204804075Y-115773000D01*
X204961142Y-115804242D01*
G37*
G36*
X162289142Y-115550242D02*
G01*
X162437101Y-115611529D01*
X162570255Y-115700499D01*
X162683501Y-115813745D01*
X162772471Y-115946899D01*
X162833758Y-116094858D01*
X162865000Y-116251925D01*
X162865000Y-116412075D01*
X162833758Y-116569142D01*
X162772471Y-116717101D01*
X162683501Y-116850255D01*
X162570255Y-116963501D01*
X162437101Y-117052471D01*
X162289142Y-117113758D01*
X162132075Y-117145000D01*
X161971925Y-117145000D01*
X161814858Y-117113758D01*
X161666899Y-117052471D01*
X161533745Y-116963501D01*
X161420499Y-116850255D01*
X161331529Y-116717101D01*
X161270242Y-116569142D01*
X161239000Y-116412075D01*
X161239000Y-116251925D01*
X161270242Y-116094858D01*
X161331529Y-115946899D01*
X161420499Y-115813745D01*
X161533745Y-115700499D01*
X161666899Y-115611529D01*
X161814858Y-115550242D01*
X161971925Y-115519000D01*
X162132075Y-115519000D01*
X162289142Y-115550242D01*
G37*
G36*
X152129142Y-115550242D02*
G01*
X152277101Y-115611529D01*
X152410255Y-115700499D01*
X152523501Y-115813745D01*
X152612471Y-115946899D01*
X152673758Y-116094858D01*
X152705000Y-116251925D01*
X152705000Y-116412075D01*
X152673758Y-116569142D01*
X152612471Y-116717101D01*
X152523501Y-116850255D01*
X152410255Y-116963501D01*
X152277101Y-117052471D01*
X152129142Y-117113758D01*
X151972075Y-117145000D01*
X151811925Y-117145000D01*
X151654858Y-117113758D01*
X151506899Y-117052471D01*
X151373745Y-116963501D01*
X151260499Y-116850255D01*
X151171529Y-116717101D01*
X151110242Y-116569142D01*
X151079000Y-116412075D01*
X151079000Y-116251925D01*
X151110242Y-116094858D01*
X151171529Y-115946899D01*
X151260499Y-115813745D01*
X151373745Y-115700499D01*
X151506899Y-115611529D01*
X151654858Y-115550242D01*
X151811925Y-115519000D01*
X151972075Y-115519000D01*
X152129142Y-115550242D01*
G37*
G36*
X157209142Y-115550242D02*
G01*
X157357101Y-115611529D01*
X157490255Y-115700499D01*
X157603501Y-115813745D01*
X157692471Y-115946899D01*
X157753758Y-116094858D01*
X157785000Y-116251925D01*
X157785000Y-116412075D01*
X157753758Y-116569142D01*
X157692471Y-116717101D01*
X157603501Y-116850255D01*
X157490255Y-116963501D01*
X157357101Y-117052471D01*
X157209142Y-117113758D01*
X157052075Y-117145000D01*
X156891925Y-117145000D01*
X156734858Y-117113758D01*
X156586899Y-117052471D01*
X156453745Y-116963501D01*
X156340499Y-116850255D01*
X156251529Y-116717101D01*
X156190242Y-116569142D01*
X156159000Y-116412075D01*
X156159000Y-116251925D01*
X156190242Y-116094858D01*
X156251529Y-115946899D01*
X156340499Y-115813745D01*
X156453745Y-115700499D01*
X156586899Y-115611529D01*
X156734858Y-115550242D01*
X156891925Y-115519000D01*
X157052075Y-115519000D01*
X157209142Y-115550242D01*
G37*
G36*
X178545142Y-115296242D02*
G01*
X178693101Y-115357529D01*
X178826255Y-115446499D01*
X178939501Y-115559745D01*
X179028471Y-115692899D01*
X179089758Y-115840858D01*
X179121000Y-115997925D01*
X179121000Y-116158075D01*
X179089758Y-116315142D01*
X179028471Y-116463101D01*
X178939501Y-116596255D01*
X178826255Y-116709501D01*
X178693101Y-116798471D01*
X178545142Y-116859758D01*
X178388075Y-116891000D01*
X178227925Y-116891000D01*
X178070858Y-116859758D01*
X177922899Y-116798471D01*
X177789745Y-116709501D01*
X177676499Y-116596255D01*
X177587529Y-116463101D01*
X177526242Y-116315142D01*
X177495000Y-116158075D01*
X177495000Y-115997925D01*
X177526242Y-115840858D01*
X177587529Y-115692899D01*
X177676499Y-115559745D01*
X177789745Y-115446499D01*
X177922899Y-115357529D01*
X178070858Y-115296242D01*
X178227925Y-115265000D01*
X178388075Y-115265000D01*
X178545142Y-115296242D01*
G37*
G36*
X183625142Y-115296242D02*
G01*
X183773101Y-115357529D01*
X183906255Y-115446499D01*
X184019501Y-115559745D01*
X184108471Y-115692899D01*
X184169758Y-115840858D01*
X184201000Y-115997925D01*
X184201000Y-116158075D01*
X184169758Y-116315142D01*
X184108471Y-116463101D01*
X184019501Y-116596255D01*
X183906255Y-116709501D01*
X183773101Y-116798471D01*
X183625142Y-116859758D01*
X183468075Y-116891000D01*
X183307925Y-116891000D01*
X183150858Y-116859758D01*
X183002899Y-116798471D01*
X182869745Y-116709501D01*
X182756499Y-116596255D01*
X182667529Y-116463101D01*
X182606242Y-116315142D01*
X182575000Y-116158075D01*
X182575000Y-115997925D01*
X182606242Y-115840858D01*
X182667529Y-115692899D01*
X182756499Y-115559745D01*
X182869745Y-115446499D01*
X183002899Y-115357529D01*
X183150858Y-115296242D01*
X183307925Y-115265000D01*
X183468075Y-115265000D01*
X183625142Y-115296242D01*
G37*
G36*
X142477142Y-114534242D02*
G01*
X142625101Y-114595529D01*
X142758255Y-114684499D01*
X142871501Y-114797745D01*
X142960471Y-114930899D01*
X143021758Y-115078858D01*
X143053000Y-115235925D01*
X143053000Y-115396075D01*
X143021758Y-115553142D01*
X142960471Y-115701101D01*
X142871501Y-115834255D01*
X142758255Y-115947501D01*
X142625101Y-116036471D01*
X142477142Y-116097758D01*
X142320075Y-116129000D01*
X142159925Y-116129000D01*
X142002858Y-116097758D01*
X141854899Y-116036471D01*
X141721745Y-115947501D01*
X141608499Y-115834255D01*
X141519529Y-115701101D01*
X141458242Y-115553142D01*
X141427000Y-115396075D01*
X141427000Y-115235925D01*
X141458242Y-115078858D01*
X141519529Y-114930899D01*
X141608499Y-114797745D01*
X141721745Y-114684499D01*
X141854899Y-114595529D01*
X142002858Y-114534242D01*
X142159925Y-114503000D01*
X142320075Y-114503000D01*
X142477142Y-114534242D01*
G37*
G36*
X147557142Y-114534242D02*
G01*
X147705101Y-114595529D01*
X147838255Y-114684499D01*
X147951501Y-114797745D01*
X148040471Y-114930899D01*
X148101758Y-115078858D01*
X148133000Y-115235925D01*
X148133000Y-115396075D01*
X148101758Y-115553142D01*
X148040471Y-115701101D01*
X147951501Y-115834255D01*
X147838255Y-115947501D01*
X147705101Y-116036471D01*
X147557142Y-116097758D01*
X147400075Y-116129000D01*
X147239925Y-116129000D01*
X147082858Y-116097758D01*
X146934899Y-116036471D01*
X146801745Y-115947501D01*
X146688499Y-115834255D01*
X146599529Y-115701101D01*
X146538242Y-115553142D01*
X146507000Y-115396075D01*
X146507000Y-115235925D01*
X146538242Y-115078858D01*
X146599529Y-114930899D01*
X146688499Y-114797745D01*
X146801745Y-114684499D01*
X146934899Y-114595529D01*
X147082858Y-114534242D01*
X147239925Y-114503000D01*
X147400075Y-114503000D01*
X147557142Y-114534242D01*
G37*
G36*
X167605059Y-114339860D02*
G01*
X167741732Y-114396472D01*
X167864735Y-114478660D01*
X167969340Y-114583265D01*
X168051528Y-114706268D01*
X168108140Y-114842941D01*
X168137000Y-114988033D01*
X168137000Y-115135967D01*
X168108140Y-115281059D01*
X168051528Y-115417732D01*
X167969340Y-115540735D01*
X167864735Y-115645340D01*
X167741732Y-115727528D01*
X167741731Y-115727529D01*
X167741730Y-115727529D01*
X167605059Y-115784140D01*
X167459968Y-115813000D01*
X167312032Y-115813000D01*
X167166941Y-115784140D01*
X167030270Y-115727529D01*
X167030269Y-115727529D01*
X167030268Y-115727528D01*
X166907265Y-115645340D01*
X166802660Y-115540735D01*
X166720472Y-115417732D01*
X166663860Y-115281059D01*
X166635000Y-115135967D01*
X166635000Y-114988033D01*
X166663860Y-114842941D01*
X166720472Y-114706268D01*
X166802660Y-114583265D01*
X166907265Y-114478660D01*
X167030268Y-114396472D01*
X167166941Y-114339860D01*
X167312032Y-114311000D01*
X167459968Y-114311000D01*
X167605059Y-114339860D01*
G37*
G36*
X136871059Y-114339860D02*
G01*
X137007732Y-114396472D01*
X137130735Y-114478660D01*
X137235340Y-114583265D01*
X137317528Y-114706268D01*
X137374140Y-114842941D01*
X137403000Y-114988033D01*
X137403000Y-115135967D01*
X137374140Y-115281059D01*
X137317528Y-115417732D01*
X137235340Y-115540735D01*
X137130735Y-115645340D01*
X137007732Y-115727528D01*
X137007731Y-115727529D01*
X137007730Y-115727529D01*
X136871059Y-115784140D01*
X136725968Y-115813000D01*
X136578032Y-115813000D01*
X136432941Y-115784140D01*
X136296270Y-115727529D01*
X136296269Y-115727529D01*
X136296268Y-115727528D01*
X136173265Y-115645340D01*
X136068660Y-115540735D01*
X135986472Y-115417732D01*
X135929860Y-115281059D01*
X135901000Y-115135967D01*
X135901000Y-114988033D01*
X135929860Y-114842941D01*
X135986472Y-114706268D01*
X136068660Y-114583265D01*
X136173265Y-114478660D01*
X136296268Y-114396472D01*
X136432941Y-114339860D01*
X136578032Y-114311000D01*
X136725968Y-114311000D01*
X136871059Y-114339860D01*
G37*
G36*
X172685059Y-114339860D02*
G01*
X172821732Y-114396472D01*
X172944735Y-114478660D01*
X173049340Y-114583265D01*
X173131528Y-114706268D01*
X173188140Y-114842941D01*
X173217000Y-114988033D01*
X173217000Y-115135967D01*
X173188140Y-115281059D01*
X173131528Y-115417732D01*
X173049340Y-115540735D01*
X172944735Y-115645340D01*
X172821732Y-115727528D01*
X172821731Y-115727529D01*
X172821730Y-115727529D01*
X172685059Y-115784140D01*
X172539968Y-115813000D01*
X172392032Y-115813000D01*
X172246941Y-115784140D01*
X172110270Y-115727529D01*
X172110269Y-115727529D01*
X172110268Y-115727528D01*
X171987265Y-115645340D01*
X171882660Y-115540735D01*
X171800472Y-115417732D01*
X171743860Y-115281059D01*
X171715000Y-115135967D01*
X171715000Y-114988033D01*
X171743860Y-114842941D01*
X171800472Y-114706268D01*
X171882660Y-114583265D01*
X171987265Y-114478660D01*
X172110268Y-114396472D01*
X172246941Y-114339860D01*
X172392032Y-114311000D01*
X172539968Y-114311000D01*
X172685059Y-114339860D01*
G37*
G36*
X136871059Y-109259860D02*
G01*
X137007732Y-109316472D01*
X137130735Y-109398660D01*
X137235340Y-109503265D01*
X137317528Y-109626268D01*
X137374140Y-109762941D01*
X137403000Y-109908033D01*
X137403000Y-110055967D01*
X137374140Y-110201059D01*
X137317528Y-110337732D01*
X137235340Y-110460735D01*
X137130735Y-110565340D01*
X137007732Y-110647528D01*
X137007731Y-110647529D01*
X137007730Y-110647529D01*
X136871059Y-110704140D01*
X136725968Y-110733000D01*
X136578032Y-110733000D01*
X136432941Y-110704140D01*
X136296270Y-110647529D01*
X136296269Y-110647529D01*
X136296268Y-110647528D01*
X136173265Y-110565340D01*
X136068660Y-110460735D01*
X135986472Y-110337732D01*
X135929860Y-110201059D01*
X135901000Y-110055967D01*
X135901000Y-109908033D01*
X135929860Y-109762941D01*
X135986472Y-109626268D01*
X136068660Y-109503265D01*
X136173265Y-109398660D01*
X136296268Y-109316472D01*
X136432941Y-109259860D01*
X136578032Y-109231000D01*
X136725968Y-109231000D01*
X136871059Y-109259860D01*
G37*
G36*
X154090822Y-108181313D02*
G01*
X154251241Y-108229976D01*
X154399077Y-108308995D01*
X154528659Y-108415341D01*
X154635004Y-108544922D01*
X154635005Y-108544924D01*
X154714024Y-108692758D01*
X154762687Y-108853177D01*
X154775000Y-108978196D01*
X154775000Y-109461803D01*
X154762687Y-109586822D01*
X154714024Y-109747242D01*
X154643114Y-109879906D01*
X154635004Y-109895078D01*
X154528659Y-110024659D01*
X154399078Y-110131004D01*
X154399076Y-110131005D01*
X154251242Y-110210024D01*
X154090823Y-110258687D01*
X153924000Y-110275117D01*
X153757178Y-110258687D01*
X153596759Y-110210024D01*
X153448925Y-110131005D01*
X153448923Y-110131004D01*
X153319342Y-110024659D01*
X153212996Y-109895078D01*
X153204886Y-109879906D01*
X153133976Y-109747242D01*
X153085313Y-109586823D01*
X153073000Y-109461804D01*
X153073000Y-108978197D01*
X153085313Y-108853178D01*
X153133976Y-108692759D01*
X153212995Y-108544923D01*
X153319341Y-108415341D01*
X153448922Y-108308996D01*
X153478849Y-108293000D01*
X153596758Y-108229976D01*
X153757177Y-108181313D01*
X153924000Y-108164883D01*
X154090822Y-108181313D01*
G37*
G36*
X151550822Y-108181313D02*
G01*
X151711241Y-108229976D01*
X151859077Y-108308995D01*
X151988659Y-108415341D01*
X152095004Y-108544922D01*
X152095005Y-108544924D01*
X152174024Y-108692758D01*
X152222687Y-108853177D01*
X152235000Y-108978196D01*
X152235000Y-109461803D01*
X152222687Y-109586822D01*
X152174024Y-109747242D01*
X152103114Y-109879906D01*
X152095004Y-109895078D01*
X151988659Y-110024659D01*
X151859078Y-110131004D01*
X151859076Y-110131005D01*
X151711242Y-110210024D01*
X151550823Y-110258687D01*
X151384000Y-110275117D01*
X151217178Y-110258687D01*
X151056759Y-110210024D01*
X150908925Y-110131005D01*
X150908923Y-110131004D01*
X150779342Y-110024659D01*
X150672996Y-109895078D01*
X150664886Y-109879906D01*
X150593976Y-109747242D01*
X150545313Y-109586823D01*
X150533000Y-109461804D01*
X150533000Y-108978197D01*
X150545313Y-108853178D01*
X150593976Y-108692759D01*
X150672995Y-108544923D01*
X150779341Y-108415341D01*
X150908922Y-108308996D01*
X150938849Y-108293000D01*
X151056758Y-108229976D01*
X151217177Y-108181313D01*
X151384000Y-108164883D01*
X151550822Y-108181313D01*
G37*
G36*
X164250822Y-108181313D02*
G01*
X164411241Y-108229976D01*
X164559077Y-108308995D01*
X164688659Y-108415341D01*
X164795004Y-108544922D01*
X164795005Y-108544924D01*
X164874024Y-108692758D01*
X164922687Y-108853177D01*
X164935000Y-108978196D01*
X164935000Y-109461803D01*
X164922687Y-109586822D01*
X164874024Y-109747242D01*
X164803114Y-109879906D01*
X164795004Y-109895078D01*
X164688659Y-110024659D01*
X164559078Y-110131004D01*
X164559076Y-110131005D01*
X164411242Y-110210024D01*
X164250823Y-110258687D01*
X164084000Y-110275117D01*
X163917178Y-110258687D01*
X163756759Y-110210024D01*
X163608925Y-110131005D01*
X163608923Y-110131004D01*
X163479342Y-110024659D01*
X163372996Y-109895078D01*
X163364886Y-109879906D01*
X163293976Y-109747242D01*
X163245313Y-109586823D01*
X163233000Y-109461804D01*
X163233000Y-108978197D01*
X163245313Y-108853178D01*
X163293976Y-108692759D01*
X163372995Y-108544923D01*
X163479341Y-108415341D01*
X163608922Y-108308996D01*
X163638849Y-108293000D01*
X163756758Y-108229976D01*
X163917177Y-108181313D01*
X164084000Y-108164883D01*
X164250822Y-108181313D01*
G37*
G36*
X161710822Y-108181313D02*
G01*
X161871241Y-108229976D01*
X162019077Y-108308995D01*
X162148659Y-108415341D01*
X162255004Y-108544922D01*
X162255005Y-108544924D01*
X162334024Y-108692758D01*
X162382687Y-108853177D01*
X162395000Y-108978196D01*
X162395000Y-109461803D01*
X162382687Y-109586822D01*
X162334024Y-109747242D01*
X162263114Y-109879906D01*
X162255004Y-109895078D01*
X162148659Y-110024659D01*
X162019078Y-110131004D01*
X162019076Y-110131005D01*
X161871242Y-110210024D01*
X161710823Y-110258687D01*
X161544000Y-110275117D01*
X161377178Y-110258687D01*
X161216759Y-110210024D01*
X161068925Y-110131005D01*
X161068923Y-110131004D01*
X160939342Y-110024659D01*
X160832996Y-109895078D01*
X160824886Y-109879906D01*
X160753976Y-109747242D01*
X160705313Y-109586823D01*
X160693000Y-109461804D01*
X160693000Y-108978197D01*
X160705313Y-108853178D01*
X160753976Y-108692759D01*
X160832995Y-108544923D01*
X160939341Y-108415341D01*
X161068922Y-108308996D01*
X161098849Y-108293000D01*
X161216758Y-108229976D01*
X161377177Y-108181313D01*
X161544000Y-108164883D01*
X161710822Y-108181313D01*
G37*
G36*
X159170822Y-108181313D02*
G01*
X159331241Y-108229976D01*
X159479077Y-108308995D01*
X159608659Y-108415341D01*
X159715004Y-108544922D01*
X159715005Y-108544924D01*
X159794024Y-108692758D01*
X159842687Y-108853177D01*
X159855000Y-108978196D01*
X159855000Y-109461803D01*
X159842687Y-109586822D01*
X159794024Y-109747242D01*
X159723114Y-109879906D01*
X159715004Y-109895078D01*
X159608659Y-110024659D01*
X159479078Y-110131004D01*
X159479076Y-110131005D01*
X159331242Y-110210024D01*
X159170823Y-110258687D01*
X159004000Y-110275117D01*
X158837178Y-110258687D01*
X158676759Y-110210024D01*
X158528925Y-110131005D01*
X158528923Y-110131004D01*
X158399342Y-110024659D01*
X158292996Y-109895078D01*
X158284886Y-109879906D01*
X158213976Y-109747242D01*
X158165313Y-109586823D01*
X158153000Y-109461804D01*
X158153000Y-108978197D01*
X158165313Y-108853178D01*
X158213976Y-108692759D01*
X158292995Y-108544923D01*
X158399341Y-108415341D01*
X158528922Y-108308996D01*
X158558849Y-108293000D01*
X158676758Y-108229976D01*
X158837177Y-108181313D01*
X159004000Y-108164883D01*
X159170822Y-108181313D01*
G37*
G36*
X166790822Y-108181313D02*
G01*
X166951241Y-108229976D01*
X167099077Y-108308995D01*
X167228659Y-108415341D01*
X167335004Y-108544922D01*
X167335005Y-108544924D01*
X167414024Y-108692758D01*
X167462687Y-108853177D01*
X167475000Y-108978196D01*
X167475000Y-109461803D01*
X167462687Y-109586822D01*
X167414024Y-109747242D01*
X167343114Y-109879906D01*
X167335004Y-109895078D01*
X167228659Y-110024659D01*
X167099078Y-110131004D01*
X167099076Y-110131005D01*
X166951242Y-110210024D01*
X166790823Y-110258687D01*
X166624000Y-110275117D01*
X166457178Y-110258687D01*
X166296759Y-110210024D01*
X166148925Y-110131005D01*
X166148923Y-110131004D01*
X166019342Y-110024659D01*
X165912996Y-109895078D01*
X165904886Y-109879906D01*
X165833976Y-109747242D01*
X165785313Y-109586823D01*
X165773000Y-109461804D01*
X165773000Y-108978197D01*
X165785313Y-108853178D01*
X165833976Y-108692759D01*
X165912995Y-108544923D01*
X166019341Y-108415341D01*
X166148922Y-108308996D01*
X166178849Y-108293000D01*
X166296758Y-108229976D01*
X166457177Y-108181313D01*
X166624000Y-108164883D01*
X166790822Y-108181313D01*
G37*
G36*
X156630822Y-108181313D02*
G01*
X156791241Y-108229976D01*
X156939077Y-108308995D01*
X157068659Y-108415341D01*
X157175004Y-108544922D01*
X157175005Y-108544924D01*
X157254024Y-108692758D01*
X157302687Y-108853177D01*
X157315000Y-108978196D01*
X157315000Y-109461803D01*
X157302687Y-109586822D01*
X157254024Y-109747242D01*
X157183114Y-109879906D01*
X157175004Y-109895078D01*
X157068659Y-110024659D01*
X156939078Y-110131004D01*
X156939076Y-110131005D01*
X156791242Y-110210024D01*
X156630823Y-110258687D01*
X156464000Y-110275117D01*
X156297178Y-110258687D01*
X156136759Y-110210024D01*
X155988925Y-110131005D01*
X155988923Y-110131004D01*
X155859342Y-110024659D01*
X155752996Y-109895078D01*
X155744886Y-109879906D01*
X155673976Y-109747242D01*
X155625313Y-109586823D01*
X155613000Y-109461804D01*
X155613000Y-108978197D01*
X155625313Y-108853178D01*
X155673976Y-108692759D01*
X155752995Y-108544923D01*
X155859341Y-108415341D01*
X155988922Y-108308996D01*
X156018849Y-108293000D01*
X156136758Y-108229976D01*
X156297177Y-108181313D01*
X156464000Y-108164883D01*
X156630822Y-108181313D01*
G37*
G36*
X149895000Y-110271000D02*
G01*
X147793000Y-110271000D01*
X147793000Y-108169000D01*
X149895000Y-108169000D01*
X149895000Y-110271000D01*
G37*
G36*
X133185000Y-108293000D02*
G01*
X131483000Y-108293000D01*
X131483000Y-106591000D01*
X133185000Y-106591000D01*
X133185000Y-108293000D01*
G37*
G36*
X185744098Y-102547033D02*
G01*
X186208350Y-102739332D01*
X186208352Y-102739333D01*
X186626168Y-103018509D01*
X186981491Y-103373832D01*
X187259566Y-103790000D01*
X187260668Y-103791650D01*
X187452967Y-104255902D01*
X187551000Y-104748747D01*
X187551000Y-105251253D01*
X187452967Y-105744098D01*
X187446257Y-105760297D01*
X187260667Y-106208352D01*
X186981491Y-106626168D01*
X186626168Y-106981491D01*
X186208352Y-107260667D01*
X186208351Y-107260668D01*
X186208350Y-107260668D01*
X185744098Y-107452967D01*
X185251253Y-107551000D01*
X184748747Y-107551000D01*
X184255902Y-107452967D01*
X183791650Y-107260668D01*
X183791649Y-107260668D01*
X183791648Y-107260667D01*
X183373832Y-106981491D01*
X183018509Y-106626168D01*
X182739333Y-106208352D01*
X182553743Y-105760297D01*
X182547033Y-105744098D01*
X182449000Y-105251253D01*
X182449000Y-104748747D01*
X182547033Y-104255902D01*
X182739332Y-103791650D01*
X182740434Y-103790000D01*
X183018509Y-103373832D01*
X183373832Y-103018509D01*
X183791648Y-102739333D01*
X183791650Y-102739332D01*
X184255902Y-102547033D01*
X184748747Y-102449000D01*
X185251253Y-102449000D01*
X185744098Y-102547033D01*
G37*
G36*
X213744098Y-102547033D02*
G01*
X214208350Y-102739332D01*
X214208352Y-102739333D01*
X214626168Y-103018509D01*
X214981491Y-103373832D01*
X215259566Y-103790000D01*
X215260668Y-103791650D01*
X215452967Y-104255902D01*
X215551000Y-104748747D01*
X215551000Y-105251253D01*
X215452967Y-105744098D01*
X215446257Y-105760297D01*
X215260667Y-106208352D01*
X214981491Y-106626168D01*
X214626168Y-106981491D01*
X214208352Y-107260667D01*
X214208351Y-107260668D01*
X214208350Y-107260668D01*
X213744098Y-107452967D01*
X213251253Y-107551000D01*
X212748747Y-107551000D01*
X212255902Y-107452967D01*
X211791650Y-107260668D01*
X211791649Y-107260668D01*
X211791648Y-107260667D01*
X211373832Y-106981491D01*
X211018509Y-106626168D01*
X210739333Y-106208352D01*
X210553743Y-105760297D01*
X210547033Y-105744098D01*
X210449000Y-105251253D01*
X210449000Y-104748747D01*
X210547033Y-104255902D01*
X210739332Y-103791650D01*
X210740434Y-103790000D01*
X211018509Y-103373832D01*
X211373832Y-103018509D01*
X211791648Y-102739333D01*
X211791650Y-102739332D01*
X212255902Y-102547033D01*
X212748747Y-102449000D01*
X213251253Y-102449000D01*
X213744098Y-102547033D01*
G37*
G36*
X132582228Y-104123703D02*
G01*
X132737100Y-104187853D01*
X132876481Y-104280985D01*
X132995015Y-104399519D01*
X133088147Y-104538900D01*
X133152297Y-104693772D01*
X133185000Y-104858184D01*
X133185000Y-105025816D01*
X133152297Y-105190228D01*
X133088147Y-105345100D01*
X132995015Y-105484481D01*
X132876481Y-105603015D01*
X132737100Y-105696147D01*
X132582228Y-105760297D01*
X132417816Y-105793000D01*
X132250184Y-105793000D01*
X132085772Y-105760297D01*
X131930900Y-105696147D01*
X131791519Y-105603015D01*
X131672985Y-105484481D01*
X131579853Y-105345100D01*
X131515703Y-105190228D01*
X131483000Y-105025816D01*
X131483000Y-104858184D01*
X131515703Y-104693772D01*
X131579853Y-104538900D01*
X131672985Y-104399519D01*
X131791519Y-104280985D01*
X131930900Y-104187853D01*
X132085772Y-104123703D01*
X132250184Y-104091000D01*
X132417816Y-104091000D01*
X132582228Y-104123703D01*
G37*
G36*
X137128000Y-99790000D02*
G01*
X137102940Y-99790000D01*
X137078554Y-99792402D01*
X137055105Y-99799515D01*
X137033494Y-99811066D01*
X137014552Y-99826611D01*
X136999007Y-99845553D01*
X136987456Y-99867164D01*
X136980343Y-99890613D01*
X136977941Y-99914999D01*
X136980343Y-99939385D01*
X136987456Y-99962834D01*
X136999007Y-99984445D01*
X137014552Y-100003387D01*
X137021733Y-100010568D01*
X137073826Y-100088530D01*
X137073826Y-100088531D01*
X137109708Y-100175157D01*
X137128000Y-100267117D01*
X137128000Y-100360883D01*
X137109708Y-100452843D01*
X137088689Y-100503588D01*
X137073826Y-100539470D01*
X137066942Y-100549772D01*
X137021733Y-100617432D01*
X136955430Y-100683735D01*
X136916021Y-100710067D01*
X136897079Y-100725612D01*
X136881534Y-100744554D01*
X136869982Y-100766164D01*
X136862869Y-100789613D01*
X136860467Y-100813999D01*
X136862869Y-100838385D01*
X136869982Y-100861834D01*
X136881533Y-100883445D01*
X136897078Y-100902387D01*
X136916021Y-100917933D01*
X136955430Y-100944265D01*
X137021733Y-101010568D01*
X137073826Y-101088530D01*
X137073826Y-101088531D01*
X137109708Y-101175157D01*
X137128000Y-101267117D01*
X137128000Y-101360883D01*
X137109708Y-101452843D01*
X137107151Y-101459015D01*
X137073826Y-101539470D01*
X137022493Y-101616295D01*
X137021733Y-101617432D01*
X136955430Y-101683735D01*
X136916021Y-101710067D01*
X136897079Y-101725612D01*
X136881534Y-101744554D01*
X136869982Y-101766164D01*
X136862869Y-101789613D01*
X136860467Y-101813999D01*
X136862869Y-101838385D01*
X136869982Y-101861834D01*
X136881533Y-101883445D01*
X136897078Y-101902387D01*
X136916021Y-101917933D01*
X136955430Y-101944265D01*
X137021733Y-102010568D01*
X137073826Y-102088530D01*
X137073826Y-102088531D01*
X137109708Y-102175157D01*
X137128000Y-102267117D01*
X137128000Y-102360883D01*
X137109708Y-102452843D01*
X137088689Y-102503588D01*
X137073826Y-102539470D01*
X137021733Y-102617432D01*
X136955430Y-102683735D01*
X136916021Y-102710067D01*
X136897079Y-102725612D01*
X136881534Y-102744554D01*
X136869982Y-102766164D01*
X136862869Y-102789613D01*
X136860467Y-102813999D01*
X136862869Y-102838385D01*
X136869982Y-102861834D01*
X136881533Y-102883445D01*
X136897078Y-102902387D01*
X136916021Y-102917933D01*
X136955430Y-102944265D01*
X137021733Y-103010568D01*
X137073826Y-103088530D01*
X137073826Y-103088531D01*
X137109708Y-103175157D01*
X137128000Y-103267117D01*
X137128000Y-103360883D01*
X137109708Y-103452843D01*
X137088689Y-103503588D01*
X137073826Y-103539470D01*
X137021733Y-103617432D01*
X136955430Y-103683735D01*
X136916021Y-103710067D01*
X136897079Y-103725612D01*
X136881534Y-103744554D01*
X136869982Y-103766164D01*
X136862869Y-103789613D01*
X136860467Y-103813999D01*
X136862869Y-103838385D01*
X136869982Y-103861834D01*
X136881533Y-103883445D01*
X136897078Y-103902387D01*
X136916021Y-103917933D01*
X136955430Y-103944265D01*
X137021733Y-104010568D01*
X137073826Y-104088530D01*
X137073826Y-104088531D01*
X137109708Y-104175157D01*
X137128000Y-104267117D01*
X137128000Y-104360883D01*
X137109708Y-104452843D01*
X137088689Y-104503588D01*
X137073826Y-104539470D01*
X137021733Y-104617432D01*
X136955432Y-104683733D01*
X136877470Y-104735826D01*
X136846275Y-104748747D01*
X136790843Y-104771708D01*
X136698883Y-104790000D01*
X136605117Y-104790000D01*
X136513157Y-104771708D01*
X136457725Y-104748747D01*
X136426530Y-104735826D01*
X136348568Y-104683733D01*
X136282267Y-104617432D01*
X136230174Y-104539470D01*
X136215311Y-104503588D01*
X136194292Y-104452843D01*
X136176000Y-104360883D01*
X136176000Y-104267117D01*
X136194292Y-104175157D01*
X136230174Y-104088531D01*
X136230174Y-104088530D01*
X136282267Y-104010568D01*
X136348570Y-103944265D01*
X136387979Y-103917933D01*
X136406921Y-103902388D01*
X136422466Y-103883446D01*
X136434018Y-103861836D01*
X136441131Y-103838387D01*
X136443533Y-103814001D01*
X136441131Y-103789615D01*
X136434018Y-103766166D01*
X136422467Y-103744555D01*
X136406922Y-103725613D01*
X136387979Y-103710067D01*
X136348570Y-103683735D01*
X136282267Y-103617432D01*
X136230174Y-103539470D01*
X136215311Y-103503588D01*
X136194292Y-103452843D01*
X136176000Y-103360883D01*
X136176000Y-103267117D01*
X136194292Y-103175157D01*
X136230174Y-103088531D01*
X136230174Y-103088530D01*
X136282267Y-103010568D01*
X136348570Y-102944265D01*
X136387979Y-102917933D01*
X136406921Y-102902388D01*
X136422466Y-102883446D01*
X136434018Y-102861836D01*
X136441131Y-102838387D01*
X136443533Y-102814001D01*
X136441131Y-102789615D01*
X136434018Y-102766166D01*
X136422467Y-102744555D01*
X136406922Y-102725613D01*
X136387979Y-102710067D01*
X136348570Y-102683735D01*
X136282267Y-102617432D01*
X136230174Y-102539470D01*
X136215311Y-102503588D01*
X136194292Y-102452843D01*
X136176000Y-102360883D01*
X136176000Y-102267117D01*
X136194292Y-102175157D01*
X136230174Y-102088531D01*
X136230174Y-102088530D01*
X136282267Y-102010568D01*
X136348570Y-101944265D01*
X136387979Y-101917933D01*
X136406921Y-101902388D01*
X136422466Y-101883446D01*
X136434018Y-101861836D01*
X136441131Y-101838387D01*
X136443533Y-101814001D01*
X136441131Y-101789615D01*
X136434018Y-101766166D01*
X136422467Y-101744555D01*
X136406922Y-101725613D01*
X136387979Y-101710067D01*
X136348570Y-101683735D01*
X136282267Y-101617432D01*
X136281507Y-101616295D01*
X136230174Y-101539470D01*
X136196849Y-101459015D01*
X136194292Y-101452843D01*
X136176000Y-101360883D01*
X136176000Y-101267117D01*
X136194292Y-101175157D01*
X136230174Y-101088531D01*
X136230174Y-101088530D01*
X136282267Y-101010568D01*
X136348570Y-100944265D01*
X136387979Y-100917933D01*
X136406921Y-100902388D01*
X136422466Y-100883446D01*
X136434018Y-100861836D01*
X136441131Y-100838387D01*
X136443533Y-100814001D01*
X136441131Y-100789615D01*
X136434018Y-100766166D01*
X136422467Y-100744555D01*
X136406922Y-100725613D01*
X136387979Y-100710067D01*
X136348570Y-100683735D01*
X136282267Y-100617432D01*
X136237058Y-100549772D01*
X136230174Y-100539470D01*
X136215311Y-100503588D01*
X136194292Y-100452843D01*
X136176000Y-100360883D01*
X136176000Y-100267117D01*
X136194292Y-100175157D01*
X136230174Y-100088531D01*
X136230174Y-100088530D01*
X136282267Y-100010568D01*
X136289448Y-100003387D01*
X136304993Y-99984445D01*
X136316544Y-99962834D01*
X136323657Y-99939385D01*
X136326059Y-99914999D01*
X136323657Y-99890613D01*
X136316544Y-99867164D01*
X136304993Y-99845553D01*
X136289448Y-99826611D01*
X136270506Y-99811066D01*
X136248895Y-99799515D01*
X136225446Y-99792402D01*
X136201060Y-99790000D01*
X136176000Y-99790000D01*
X136176000Y-98838000D01*
X137128000Y-98838000D01*
X137128000Y-99790000D01*
G37*
G36*
X132074228Y-99979703D02*
G01*
X132229100Y-100043853D01*
X132368481Y-100136985D01*
X132487015Y-100255519D01*
X132580147Y-100394900D01*
X132644297Y-100549772D01*
X132677000Y-100714184D01*
X132677000Y-100881816D01*
X132644297Y-101046228D01*
X132580147Y-101201100D01*
X132487015Y-101340481D01*
X132368481Y-101459015D01*
X132229100Y-101552147D01*
X132074228Y-101616297D01*
X131909816Y-101649000D01*
X131742184Y-101649000D01*
X131577772Y-101616297D01*
X131422900Y-101552147D01*
X131283519Y-101459015D01*
X131164985Y-101340481D01*
X131071853Y-101201100D01*
X131007703Y-101046228D01*
X130975000Y-100881816D01*
X130975000Y-100714184D01*
X131007703Y-100549772D01*
X131071853Y-100394900D01*
X131164985Y-100255519D01*
X131283519Y-100136985D01*
X131422900Y-100043853D01*
X131577772Y-99979703D01*
X131742184Y-99947000D01*
X131909816Y-99947000D01*
X132074228Y-99979703D01*
G37*
G36*
X132677000Y-99149000D02*
G01*
X130975000Y-99149000D01*
X130975000Y-97447000D01*
X132677000Y-97447000D01*
X132677000Y-99149000D01*
G37*
G36*
X133652585Y-91696802D02*
G01*
X133802410Y-91726604D01*
X134084674Y-91843521D01*
X134338705Y-92013259D01*
X134554741Y-92229295D01*
X134724479Y-92483326D01*
X134841396Y-92765590D01*
X134901000Y-93065240D01*
X134901000Y-93370760D01*
X134841396Y-93670410D01*
X134724479Y-93952674D01*
X134554741Y-94206705D01*
X134338705Y-94422741D01*
X134084674Y-94592479D01*
X133802410Y-94709396D01*
X133652585Y-94739198D01*
X133502761Y-94769000D01*
X133197239Y-94769000D01*
X133047415Y-94739198D01*
X132897590Y-94709396D01*
X132615326Y-94592479D01*
X132361295Y-94422741D01*
X132145259Y-94206705D01*
X131975521Y-93952674D01*
X131858604Y-93670410D01*
X131799000Y-93370760D01*
X131799000Y-93065240D01*
X131858604Y-92765590D01*
X131975521Y-92483326D01*
X132145259Y-92229295D01*
X132361295Y-92013259D01*
X132615326Y-91843521D01*
X132897590Y-91726604D01*
X133047415Y-91696802D01*
X133197239Y-91667000D01*
X133502761Y-91667000D01*
X133652585Y-91696802D01*
G37*
G36*
X185744098Y-82547033D02*
G01*
X186208350Y-82739332D01*
X186208352Y-82739333D01*
X186626168Y-83018509D01*
X186981491Y-83373832D01*
X187260667Y-83791648D01*
X187260668Y-83791650D01*
X187452967Y-84255902D01*
X187551000Y-84748747D01*
X187551000Y-85251253D01*
X187452967Y-85744098D01*
X187298009Y-86118200D01*
X187260667Y-86208352D01*
X186981491Y-86626168D01*
X186626168Y-86981491D01*
X186208352Y-87260667D01*
X186208351Y-87260668D01*
X186208350Y-87260668D01*
X185744098Y-87452967D01*
X185251253Y-87551000D01*
X184748747Y-87551000D01*
X184255902Y-87452967D01*
X183791650Y-87260668D01*
X183791649Y-87260668D01*
X183791648Y-87260667D01*
X183373832Y-86981491D01*
X183018509Y-86626168D01*
X182739333Y-86208352D01*
X182701991Y-86118200D01*
X182547033Y-85744098D01*
X182449000Y-85251253D01*
X182449000Y-84748747D01*
X182547033Y-84255902D01*
X182739332Y-83791650D01*
X182739333Y-83791648D01*
X183018509Y-83373832D01*
X183373832Y-83018509D01*
X183791648Y-82739333D01*
X183791650Y-82739332D01*
X184255902Y-82547033D01*
X184748747Y-82449000D01*
X185251253Y-82449000D01*
X185744098Y-82547033D01*
G37*
G36*
X213744098Y-82547033D02*
G01*
X214208350Y-82739332D01*
X214208352Y-82739333D01*
X214626168Y-83018509D01*
X214981491Y-83373832D01*
X215260667Y-83791648D01*
X215260668Y-83791650D01*
X215452967Y-84255902D01*
X215551000Y-84748747D01*
X215551000Y-85251253D01*
X215452967Y-85744098D01*
X215298009Y-86118200D01*
X215260667Y-86208352D01*
X214981491Y-86626168D01*
X214626168Y-86981491D01*
X214208352Y-87260667D01*
X214208351Y-87260668D01*
X214208350Y-87260668D01*
X213744098Y-87452967D01*
X213251253Y-87551000D01*
X212748747Y-87551000D01*
X212255902Y-87452967D01*
X211791650Y-87260668D01*
X211791649Y-87260668D01*
X211791648Y-87260667D01*
X211373832Y-86981491D01*
X211018509Y-86626168D01*
X210739333Y-86208352D01*
X210701991Y-86118200D01*
X210547033Y-85744098D01*
X210449000Y-85251253D01*
X210449000Y-84748747D01*
X210547033Y-84255902D01*
X210739332Y-83791650D01*
X210739333Y-83791648D01*
X211018509Y-83373832D01*
X211373832Y-83018509D01*
X211791648Y-82739333D01*
X211791650Y-82739332D01*
X212255902Y-82547033D01*
X212748747Y-82449000D01*
X213251253Y-82449000D01*
X213744098Y-82547033D01*
G37*
G36*
X166790822Y-85321313D02*
G01*
X166951241Y-85369976D01*
X167099077Y-85448995D01*
X167228659Y-85555341D01*
X167335004Y-85684922D01*
X167335005Y-85684924D01*
X167414024Y-85832758D01*
X167462687Y-85993177D01*
X167475000Y-86118196D01*
X167475000Y-86601803D01*
X167462687Y-86726822D01*
X167414024Y-86887242D01*
X167363647Y-86981491D01*
X167335004Y-87035078D01*
X167228659Y-87164659D01*
X167099078Y-87271004D01*
X167099076Y-87271005D01*
X166951242Y-87350024D01*
X166790823Y-87398687D01*
X166624000Y-87415117D01*
X166457178Y-87398687D01*
X166296759Y-87350024D01*
X166148925Y-87271005D01*
X166148923Y-87271004D01*
X166019342Y-87164659D01*
X165912996Y-87035078D01*
X165884353Y-86981491D01*
X165833976Y-86887242D01*
X165785313Y-86726823D01*
X165773000Y-86601804D01*
X165773000Y-86118197D01*
X165785313Y-85993178D01*
X165833976Y-85832759D01*
X165912995Y-85684923D01*
X166019341Y-85555341D01*
X166148922Y-85448996D01*
X166164094Y-85440886D01*
X166296758Y-85369976D01*
X166457177Y-85321313D01*
X166624000Y-85304883D01*
X166790822Y-85321313D01*
G37*
G36*
X164250822Y-85321313D02*
G01*
X164411241Y-85369976D01*
X164559077Y-85448995D01*
X164688659Y-85555341D01*
X164795004Y-85684922D01*
X164795005Y-85684924D01*
X164874024Y-85832758D01*
X164922687Y-85993177D01*
X164935000Y-86118196D01*
X164935000Y-86601803D01*
X164922687Y-86726822D01*
X164874024Y-86887242D01*
X164823647Y-86981491D01*
X164795004Y-87035078D01*
X164688659Y-87164659D01*
X164559078Y-87271004D01*
X164559076Y-87271005D01*
X164411242Y-87350024D01*
X164250823Y-87398687D01*
X164084000Y-87415117D01*
X163917178Y-87398687D01*
X163756759Y-87350024D01*
X163608925Y-87271005D01*
X163608923Y-87271004D01*
X163479342Y-87164659D01*
X163372996Y-87035078D01*
X163344353Y-86981491D01*
X163293976Y-86887242D01*
X163245313Y-86726823D01*
X163233000Y-86601804D01*
X163233000Y-86118197D01*
X163245313Y-85993178D01*
X163293976Y-85832759D01*
X163372995Y-85684923D01*
X163479341Y-85555341D01*
X163608922Y-85448996D01*
X163624094Y-85440886D01*
X163756758Y-85369976D01*
X163917177Y-85321313D01*
X164084000Y-85304883D01*
X164250822Y-85321313D01*
G37*
G36*
X159170822Y-85321313D02*
G01*
X159331241Y-85369976D01*
X159479077Y-85448995D01*
X159608659Y-85555341D01*
X159715004Y-85684922D01*
X159715005Y-85684924D01*
X159794024Y-85832758D01*
X159842687Y-85993177D01*
X159855000Y-86118196D01*
X159855000Y-86601803D01*
X159842687Y-86726822D01*
X159794024Y-86887242D01*
X159743647Y-86981491D01*
X159715004Y-87035078D01*
X159608659Y-87164659D01*
X159479078Y-87271004D01*
X159479076Y-87271005D01*
X159331242Y-87350024D01*
X159170823Y-87398687D01*
X159004000Y-87415117D01*
X158837178Y-87398687D01*
X158676759Y-87350024D01*
X158528925Y-87271005D01*
X158528923Y-87271004D01*
X158399342Y-87164659D01*
X158292996Y-87035078D01*
X158264353Y-86981491D01*
X158213976Y-86887242D01*
X158165313Y-86726823D01*
X158153000Y-86601804D01*
X158153000Y-86118197D01*
X158165313Y-85993178D01*
X158213976Y-85832759D01*
X158292995Y-85684923D01*
X158399341Y-85555341D01*
X158528922Y-85448996D01*
X158544094Y-85440886D01*
X158676758Y-85369976D01*
X158837177Y-85321313D01*
X159004000Y-85304883D01*
X159170822Y-85321313D01*
G37*
G36*
X156630822Y-85321313D02*
G01*
X156791241Y-85369976D01*
X156939077Y-85448995D01*
X157068659Y-85555341D01*
X157175004Y-85684922D01*
X157175005Y-85684924D01*
X157254024Y-85832758D01*
X157302687Y-85993177D01*
X157315000Y-86118196D01*
X157315000Y-86601803D01*
X157302687Y-86726822D01*
X157254024Y-86887242D01*
X157203647Y-86981491D01*
X157175004Y-87035078D01*
X157068659Y-87164659D01*
X156939078Y-87271004D01*
X156939076Y-87271005D01*
X156791242Y-87350024D01*
X156630823Y-87398687D01*
X156464000Y-87415117D01*
X156297178Y-87398687D01*
X156136759Y-87350024D01*
X155988925Y-87271005D01*
X155988923Y-87271004D01*
X155859342Y-87164659D01*
X155752996Y-87035078D01*
X155724353Y-86981491D01*
X155673976Y-86887242D01*
X155625313Y-86726823D01*
X155613000Y-86601804D01*
X155613000Y-86118197D01*
X155625313Y-85993178D01*
X155673976Y-85832759D01*
X155752995Y-85684923D01*
X155859341Y-85555341D01*
X155988922Y-85448996D01*
X156004094Y-85440886D01*
X156136758Y-85369976D01*
X156297177Y-85321313D01*
X156464000Y-85304883D01*
X156630822Y-85321313D01*
G37*
G36*
X154090822Y-85321313D02*
G01*
X154251241Y-85369976D01*
X154399077Y-85448995D01*
X154528659Y-85555341D01*
X154635004Y-85684922D01*
X154635005Y-85684924D01*
X154714024Y-85832758D01*
X154762687Y-85993177D01*
X154775000Y-86118196D01*
X154775000Y-86601803D01*
X154762687Y-86726822D01*
X154714024Y-86887242D01*
X154663647Y-86981491D01*
X154635004Y-87035078D01*
X154528659Y-87164659D01*
X154399078Y-87271004D01*
X154399076Y-87271005D01*
X154251242Y-87350024D01*
X154090823Y-87398687D01*
X153924000Y-87415117D01*
X153757178Y-87398687D01*
X153596759Y-87350024D01*
X153448925Y-87271005D01*
X153448923Y-87271004D01*
X153319342Y-87164659D01*
X153212996Y-87035078D01*
X153184353Y-86981491D01*
X153133976Y-86887242D01*
X153085313Y-86726823D01*
X153073000Y-86601804D01*
X153073000Y-86118197D01*
X153085313Y-85993178D01*
X153133976Y-85832759D01*
X153212995Y-85684923D01*
X153319341Y-85555341D01*
X153448922Y-85448996D01*
X153464094Y-85440886D01*
X153596758Y-85369976D01*
X153757177Y-85321313D01*
X153924000Y-85304883D01*
X154090822Y-85321313D01*
G37*
G36*
X151550822Y-85321313D02*
G01*
X151711241Y-85369976D01*
X151859077Y-85448995D01*
X151988659Y-85555341D01*
X152095004Y-85684922D01*
X152095005Y-85684924D01*
X152174024Y-85832758D01*
X152222687Y-85993177D01*
X152235000Y-86118196D01*
X152235000Y-86601803D01*
X152222687Y-86726822D01*
X152174024Y-86887242D01*
X152123647Y-86981491D01*
X152095004Y-87035078D01*
X151988659Y-87164659D01*
X151859078Y-87271004D01*
X151859076Y-87271005D01*
X151711242Y-87350024D01*
X151550823Y-87398687D01*
X151384000Y-87415117D01*
X151217178Y-87398687D01*
X151056759Y-87350024D01*
X150908925Y-87271005D01*
X150908923Y-87271004D01*
X150779342Y-87164659D01*
X150672996Y-87035078D01*
X150644353Y-86981491D01*
X150593976Y-86887242D01*
X150545313Y-86726823D01*
X150533000Y-86601804D01*
X150533000Y-86118197D01*
X150545313Y-85993178D01*
X150593976Y-85832759D01*
X150672995Y-85684923D01*
X150779341Y-85555341D01*
X150908922Y-85448996D01*
X150924094Y-85440886D01*
X151056758Y-85369976D01*
X151217177Y-85321313D01*
X151384000Y-85304883D01*
X151550822Y-85321313D01*
G37*
G36*
X161710822Y-85321313D02*
G01*
X161871241Y-85369976D01*
X162019077Y-85448995D01*
X162148659Y-85555341D01*
X162255004Y-85684922D01*
X162255005Y-85684924D01*
X162334024Y-85832758D01*
X162382687Y-85993177D01*
X162395000Y-86118196D01*
X162395000Y-86601803D01*
X162382687Y-86726822D01*
X162334024Y-86887242D01*
X162283647Y-86981491D01*
X162255004Y-87035078D01*
X162148659Y-87164659D01*
X162019078Y-87271004D01*
X162019076Y-87271005D01*
X161871242Y-87350024D01*
X161710823Y-87398687D01*
X161544000Y-87415117D01*
X161377178Y-87398687D01*
X161216759Y-87350024D01*
X161068925Y-87271005D01*
X161068923Y-87271004D01*
X160939342Y-87164659D01*
X160832996Y-87035078D01*
X160804353Y-86981491D01*
X160753976Y-86887242D01*
X160705313Y-86726823D01*
X160693000Y-86601804D01*
X160693000Y-86118197D01*
X160705313Y-85993178D01*
X160753976Y-85832759D01*
X160832995Y-85684923D01*
X160939341Y-85555341D01*
X161068922Y-85448996D01*
X161084094Y-85440886D01*
X161216758Y-85369976D01*
X161377177Y-85321313D01*
X161544000Y-85304883D01*
X161710822Y-85321313D01*
G37*
G36*
X149010822Y-85321313D02*
G01*
X149171241Y-85369976D01*
X149319077Y-85448995D01*
X149448659Y-85555341D01*
X149555004Y-85684922D01*
X149555005Y-85684924D01*
X149634024Y-85832758D01*
X149682687Y-85993177D01*
X149695000Y-86118196D01*
X149695000Y-86601803D01*
X149682687Y-86726822D01*
X149634024Y-86887242D01*
X149583647Y-86981491D01*
X149555004Y-87035078D01*
X149448659Y-87164659D01*
X149319078Y-87271004D01*
X149319076Y-87271005D01*
X149171242Y-87350024D01*
X149010823Y-87398687D01*
X148844000Y-87415117D01*
X148677178Y-87398687D01*
X148516759Y-87350024D01*
X148368925Y-87271005D01*
X148368923Y-87271004D01*
X148239342Y-87164659D01*
X148132996Y-87035078D01*
X148104353Y-86981491D01*
X148053976Y-86887242D01*
X148005313Y-86726823D01*
X147993000Y-86601804D01*
X147993000Y-86118197D01*
X148005313Y-85993178D01*
X148053976Y-85832759D01*
X148132995Y-85684923D01*
X148239341Y-85555341D01*
X148368922Y-85448996D01*
X148384094Y-85440886D01*
X148516758Y-85369976D01*
X148677177Y-85321313D01*
X148844000Y-85304883D01*
X149010822Y-85321313D01*
G37*
G36*
X133644208Y-80598074D02*
G01*
X133758657Y-80620839D01*
X133864267Y-80664585D01*
X134013621Y-80726449D01*
X134089763Y-80777325D01*
X134243086Y-80879772D01*
X134438228Y-81074914D01*
X134488065Y-81149501D01*
X134591551Y-81304379D01*
X134697161Y-81559344D01*
X134751000Y-81830012D01*
X134751000Y-82105988D01*
X134697161Y-82376656D01*
X134591551Y-82631621D01*
X134591550Y-82631622D01*
X134438228Y-82861086D01*
X134243086Y-83056228D01*
X134089763Y-83158675D01*
X134013621Y-83209551D01*
X133864267Y-83271415D01*
X133758657Y-83315161D01*
X133668433Y-83333107D01*
X133487988Y-83369000D01*
X133212012Y-83369000D01*
X133031567Y-83333107D01*
X132941343Y-83315161D01*
X132835733Y-83271415D01*
X132686379Y-83209551D01*
X132610237Y-83158675D01*
X132456914Y-83056228D01*
X132261772Y-82861086D01*
X132108450Y-82631622D01*
X132108449Y-82631621D01*
X132002839Y-82376656D01*
X131949000Y-82105988D01*
X131949000Y-81830012D01*
X132002839Y-81559344D01*
X132108449Y-81304379D01*
X132211935Y-81149501D01*
X132261772Y-81074914D01*
X132456914Y-80879772D01*
X132610237Y-80777325D01*
X132686379Y-80726449D01*
X132835733Y-80664585D01*
X132941343Y-80620839D01*
X133055792Y-80598074D01*
X133212012Y-80567000D01*
X133487988Y-80567000D01*
X133644208Y-80598074D01*
G37*
G36*
X141969142Y-79736242D02*
G01*
X142117101Y-79797529D01*
X142250255Y-79886499D01*
X142363501Y-79999745D01*
X142452471Y-80132899D01*
X142513758Y-80280858D01*
X142545000Y-80437925D01*
X142545000Y-80598075D01*
X142513758Y-80755142D01*
X142452471Y-80903101D01*
X142363501Y-81036255D01*
X142250255Y-81149501D01*
X142117101Y-81238471D01*
X141969142Y-81299758D01*
X141812075Y-81331000D01*
X141651925Y-81331000D01*
X141494858Y-81299758D01*
X141346899Y-81238471D01*
X141213745Y-81149501D01*
X141100499Y-81036255D01*
X141011529Y-80903101D01*
X140950242Y-80755142D01*
X140919000Y-80598075D01*
X140919000Y-80437925D01*
X140950242Y-80280858D01*
X141011529Y-80132899D01*
X141100499Y-79999745D01*
X141213745Y-79886499D01*
X141346899Y-79797529D01*
X141494858Y-79736242D01*
X141651925Y-79705000D01*
X141812075Y-79705000D01*
X141969142Y-79736242D01*
G37*
G36*
X213851142Y-76180242D02*
G01*
X213999101Y-76241529D01*
X214132255Y-76330499D01*
X214245501Y-76443745D01*
X214334471Y-76576899D01*
X214395758Y-76724858D01*
X214427000Y-76881925D01*
X214427000Y-77042075D01*
X214395758Y-77199142D01*
X214334471Y-77347101D01*
X214245501Y-77480255D01*
X214132255Y-77593501D01*
X213999101Y-77682471D01*
X213851142Y-77743758D01*
X213694075Y-77775000D01*
X213533925Y-77775000D01*
X213376858Y-77743758D01*
X213228899Y-77682471D01*
X213095745Y-77593501D01*
X212982499Y-77480255D01*
X212893529Y-77347101D01*
X212832242Y-77199142D01*
X212801000Y-77042075D01*
X212801000Y-76881925D01*
X212832242Y-76724858D01*
X212893529Y-76576899D01*
X212982499Y-76443745D01*
X213095745Y-76330499D01*
X213228899Y-76241529D01*
X213376858Y-76180242D01*
X213533925Y-76149000D01*
X213694075Y-76149000D01*
X213851142Y-76180242D01*
G37*
G36*
X218931142Y-76180242D02*
G01*
X219079101Y-76241529D01*
X219212255Y-76330499D01*
X219325501Y-76443745D01*
X219414471Y-76576899D01*
X219475758Y-76724858D01*
X219507000Y-76881925D01*
X219507000Y-77042075D01*
X219475758Y-77199142D01*
X219414471Y-77347101D01*
X219325501Y-77480255D01*
X219212255Y-77593501D01*
X219079101Y-77682471D01*
X218931142Y-77743758D01*
X218774075Y-77775000D01*
X218613925Y-77775000D01*
X218456858Y-77743758D01*
X218308899Y-77682471D01*
X218175745Y-77593501D01*
X218062499Y-77480255D01*
X217973529Y-77347101D01*
X217912242Y-77199142D01*
X217881000Y-77042075D01*
X217881000Y-76881925D01*
X217912242Y-76724858D01*
X217973529Y-76576899D01*
X218062499Y-76443745D01*
X218175745Y-76330499D01*
X218308899Y-76241529D01*
X218456858Y-76180242D01*
X218613925Y-76149000D01*
X218774075Y-76149000D01*
X218931142Y-76180242D01*
G37*
G36*
X187435142Y-75926242D02*
G01*
X187583101Y-75987529D01*
X187716255Y-76076499D01*
X187829501Y-76189745D01*
X187918471Y-76322899D01*
X187979758Y-76470858D01*
X188011000Y-76627925D01*
X188011000Y-76788075D01*
X187979758Y-76945142D01*
X187918471Y-77093101D01*
X187829501Y-77226255D01*
X187716255Y-77339501D01*
X187583101Y-77428471D01*
X187435142Y-77489758D01*
X187278075Y-77521000D01*
X187117925Y-77521000D01*
X186960858Y-77489758D01*
X186812899Y-77428471D01*
X186679745Y-77339501D01*
X186566499Y-77226255D01*
X186477529Y-77093101D01*
X186416242Y-76945142D01*
X186385000Y-76788075D01*
X186385000Y-76627925D01*
X186416242Y-76470858D01*
X186477529Y-76322899D01*
X186566499Y-76189745D01*
X186679745Y-76076499D01*
X186812899Y-75987529D01*
X186960858Y-75926242D01*
X187117925Y-75895000D01*
X187278075Y-75895000D01*
X187435142Y-75926242D01*
G37*
G36*
X192515142Y-75926242D02*
G01*
X192663101Y-75987529D01*
X192796255Y-76076499D01*
X192909501Y-76189745D01*
X192998471Y-76322899D01*
X193059758Y-76470858D01*
X193091000Y-76627925D01*
X193091000Y-76788075D01*
X193059758Y-76945142D01*
X192998471Y-77093101D01*
X192909501Y-77226255D01*
X192796255Y-77339501D01*
X192663101Y-77428471D01*
X192515142Y-77489758D01*
X192358075Y-77521000D01*
X192197925Y-77521000D01*
X192040858Y-77489758D01*
X191892899Y-77428471D01*
X191759745Y-77339501D01*
X191646499Y-77226255D01*
X191557529Y-77093101D01*
X191496242Y-76945142D01*
X191465000Y-76788075D01*
X191465000Y-76627925D01*
X191496242Y-76470858D01*
X191557529Y-76322899D01*
X191646499Y-76189745D01*
X191759745Y-76076499D01*
X191892899Y-75987529D01*
X192040858Y-75926242D01*
X192197925Y-75895000D01*
X192358075Y-75895000D01*
X192515142Y-75926242D01*
G37*
G36*
X205469142Y-75418242D02*
G01*
X205617101Y-75479529D01*
X205750255Y-75568499D01*
X205863501Y-75681745D01*
X205952471Y-75814899D01*
X206013758Y-75962858D01*
X206045000Y-76119925D01*
X206045000Y-76280075D01*
X206013758Y-76437142D01*
X205952471Y-76585101D01*
X205863501Y-76718255D01*
X205750255Y-76831501D01*
X205617101Y-76920471D01*
X205469142Y-76981758D01*
X205312075Y-77013000D01*
X205151925Y-77013000D01*
X204994858Y-76981758D01*
X204846899Y-76920471D01*
X204713745Y-76831501D01*
X204600499Y-76718255D01*
X204511529Y-76585101D01*
X204450242Y-76437142D01*
X204419000Y-76280075D01*
X204419000Y-76119925D01*
X204450242Y-75962858D01*
X204511529Y-75814899D01*
X204600499Y-75681745D01*
X204713745Y-75568499D01*
X204846899Y-75479529D01*
X204994858Y-75418242D01*
X205151925Y-75387000D01*
X205312075Y-75387000D01*
X205469142Y-75418242D01*
G37*
G36*
X200389142Y-75418242D02*
G01*
X200537101Y-75479529D01*
X200670255Y-75568499D01*
X200783501Y-75681745D01*
X200872471Y-75814899D01*
X200933758Y-75962858D01*
X200965000Y-76119925D01*
X200965000Y-76280075D01*
X200933758Y-76437142D01*
X200872471Y-76585101D01*
X200783501Y-76718255D01*
X200670255Y-76831501D01*
X200537101Y-76920471D01*
X200389142Y-76981758D01*
X200232075Y-77013000D01*
X200071925Y-77013000D01*
X199914858Y-76981758D01*
X199766899Y-76920471D01*
X199633745Y-76831501D01*
X199520499Y-76718255D01*
X199431529Y-76585101D01*
X199370242Y-76437142D01*
X199339000Y-76280075D01*
X199339000Y-76119925D01*
X199370242Y-75962858D01*
X199431529Y-75814899D01*
X199520499Y-75681745D01*
X199633745Y-75568499D01*
X199766899Y-75479529D01*
X199914858Y-75418242D01*
X200071925Y-75387000D01*
X200232075Y-75387000D01*
X200389142Y-75418242D01*
G37*
G36*
X172449142Y-74656242D02*
G01*
X172597101Y-74717529D01*
X172730255Y-74806499D01*
X172843501Y-74919745D01*
X172932471Y-75052899D01*
X172993758Y-75200858D01*
X173025000Y-75357925D01*
X173025000Y-75518075D01*
X172993758Y-75675142D01*
X172932471Y-75823101D01*
X172843501Y-75956255D01*
X172730255Y-76069501D01*
X172597101Y-76158471D01*
X172449142Y-76219758D01*
X172292075Y-76251000D01*
X172131925Y-76251000D01*
X171974858Y-76219758D01*
X171826899Y-76158471D01*
X171693745Y-76069501D01*
X171580499Y-75956255D01*
X171491529Y-75823101D01*
X171430242Y-75675142D01*
X171399000Y-75518075D01*
X171399000Y-75357925D01*
X171430242Y-75200858D01*
X171491529Y-75052899D01*
X171580499Y-74919745D01*
X171693745Y-74806499D01*
X171826899Y-74717529D01*
X171974858Y-74656242D01*
X172131925Y-74625000D01*
X172292075Y-74625000D01*
X172449142Y-74656242D01*
G37*
G36*
X179379395Y-72625546D02*
G01*
X179552466Y-72697234D01*
X179552467Y-72697235D01*
X179708227Y-72801310D01*
X179840690Y-72933773D01*
X179840691Y-72933775D01*
X179944766Y-73089534D01*
X180016454Y-73262605D01*
X180053000Y-73446333D01*
X180053000Y-73633667D01*
X180016454Y-73817395D01*
X179944766Y-73990466D01*
X179944765Y-73990467D01*
X179840690Y-74146227D01*
X179708227Y-74278690D01*
X179629818Y-74331081D01*
X179552466Y-74382766D01*
X179379395Y-74454454D01*
X179195667Y-74491000D01*
X179008333Y-74491000D01*
X178824605Y-74454454D01*
X178651534Y-74382766D01*
X178574182Y-74331081D01*
X178495773Y-74278690D01*
X178363310Y-74146227D01*
X178259235Y-73990467D01*
X178259234Y-73990466D01*
X178187546Y-73817395D01*
X178151000Y-73633667D01*
X178151000Y-73446333D01*
X178187546Y-73262605D01*
X178259234Y-73089534D01*
X178363309Y-72933775D01*
X178363310Y-72933773D01*
X178495773Y-72801310D01*
X178651533Y-72697235D01*
X178651534Y-72697234D01*
X178824605Y-72625546D01*
X179008333Y-72589000D01*
X179195667Y-72589000D01*
X179379395Y-72625546D01*
G37*
G36*
X133652585Y-69196802D02*
G01*
X133802410Y-69226604D01*
X134084674Y-69343521D01*
X134338705Y-69513259D01*
X134554741Y-69729295D01*
X134724479Y-69983326D01*
X134841396Y-70265590D01*
X134901000Y-70565240D01*
X134901000Y-70870760D01*
X134841396Y-71170410D01*
X134724479Y-71452674D01*
X134554741Y-71706705D01*
X134338705Y-71922741D01*
X134084674Y-72092479D01*
X133802410Y-72209396D01*
X133652585Y-72239198D01*
X133502761Y-72269000D01*
X133197239Y-72269000D01*
X133047415Y-72239198D01*
X132897590Y-72209396D01*
X132615326Y-72092479D01*
X132361295Y-71922741D01*
X132145259Y-71706705D01*
X131975521Y-71452674D01*
X131858604Y-71170410D01*
X131799000Y-70870760D01*
X131799000Y-70565240D01*
X131858604Y-70265590D01*
X131975521Y-69983326D01*
X132145259Y-69729295D01*
X132361295Y-69513259D01*
X132615326Y-69343521D01*
X132897590Y-69226604D01*
X133047415Y-69196802D01*
X133197239Y-69167000D01*
X133502761Y-69167000D01*
X133652585Y-69196802D01*
G37*
G36*
X186165142Y-70084242D02*
G01*
X186313101Y-70145529D01*
X186446255Y-70234499D01*
X186559501Y-70347745D01*
X186648471Y-70480899D01*
X186709758Y-70628858D01*
X186741000Y-70785925D01*
X186741000Y-70946075D01*
X186709758Y-71103142D01*
X186648471Y-71251101D01*
X186559501Y-71384255D01*
X186446255Y-71497501D01*
X186313101Y-71586471D01*
X186165142Y-71647758D01*
X186008075Y-71679000D01*
X185847925Y-71679000D01*
X185690858Y-71647758D01*
X185542899Y-71586471D01*
X185409745Y-71497501D01*
X185296499Y-71384255D01*
X185207529Y-71251101D01*
X185146242Y-71103142D01*
X185115000Y-70946075D01*
X185115000Y-70785925D01*
X185146242Y-70628858D01*
X185207529Y-70480899D01*
X185296499Y-70347745D01*
X185409745Y-70234499D01*
X185542899Y-70145529D01*
X185690858Y-70084242D01*
X185847925Y-70053000D01*
X186008075Y-70053000D01*
X186165142Y-70084242D01*
G37*
G36*
X172449142Y-69576242D02*
G01*
X172597101Y-69637529D01*
X172730255Y-69726499D01*
X172843501Y-69839745D01*
X172932471Y-69972899D01*
X172993758Y-70120858D01*
X173025000Y-70277925D01*
X173025000Y-70438075D01*
X172993758Y-70595142D01*
X172932471Y-70743101D01*
X172843501Y-70876255D01*
X172730255Y-70989501D01*
X172597101Y-71078471D01*
X172449142Y-71139758D01*
X172292075Y-71171000D01*
X172131925Y-71171000D01*
X171974858Y-71139758D01*
X171826899Y-71078471D01*
X171693745Y-70989501D01*
X171580499Y-70876255D01*
X171491529Y-70743101D01*
X171430242Y-70595142D01*
X171399000Y-70438075D01*
X171399000Y-70277925D01*
X171430242Y-70120858D01*
X171491529Y-69972899D01*
X171580499Y-69839745D01*
X171693745Y-69726499D01*
X171826899Y-69637529D01*
X171974858Y-69576242D01*
X172131925Y-69545000D01*
X172292075Y-69545000D01*
X172449142Y-69576242D01*
G37*
G36*
X214064585Y-66804802D02*
G01*
X214214410Y-66834604D01*
X214496674Y-66951521D01*
X214750705Y-67121259D01*
X214966741Y-67337295D01*
X215136479Y-67591326D01*
X215253396Y-67873590D01*
X215313000Y-68173240D01*
X215313000Y-68478760D01*
X215253396Y-68778410D01*
X215136479Y-69060674D01*
X214966741Y-69314705D01*
X214750705Y-69530741D01*
X214496674Y-69700479D01*
X214214410Y-69817396D01*
X214102064Y-69839743D01*
X213914761Y-69877000D01*
X213609239Y-69877000D01*
X213421936Y-69839743D01*
X213309590Y-69817396D01*
X213027326Y-69700479D01*
X212773295Y-69530741D01*
X212557259Y-69314705D01*
X212387521Y-69060674D01*
X212270604Y-68778410D01*
X212211000Y-68478760D01*
X212211000Y-68173240D01*
X212270604Y-67873590D01*
X212387521Y-67591326D01*
X212557259Y-67337295D01*
X212773295Y-67121259D01*
X213027326Y-66951521D01*
X213309590Y-66834604D01*
X213459415Y-66804802D01*
X213609239Y-66775000D01*
X213914761Y-66775000D01*
X214064585Y-66804802D01*
G37*
G36*
X191564585Y-66804802D02*
G01*
X191714410Y-66834604D01*
X191996674Y-66951521D01*
X192250705Y-67121259D01*
X192466741Y-67337295D01*
X192636479Y-67591326D01*
X192753396Y-67873590D01*
X192813000Y-68173240D01*
X192813000Y-68478760D01*
X192753396Y-68778410D01*
X192636479Y-69060674D01*
X192466741Y-69314705D01*
X192250705Y-69530741D01*
X191996674Y-69700479D01*
X191714410Y-69817396D01*
X191602064Y-69839743D01*
X191414761Y-69877000D01*
X191109239Y-69877000D01*
X190921936Y-69839743D01*
X190809590Y-69817396D01*
X190527326Y-69700479D01*
X190273295Y-69530741D01*
X190057259Y-69314705D01*
X189887521Y-69060674D01*
X189770604Y-68778410D01*
X189711000Y-68478760D01*
X189711000Y-68173240D01*
X189770604Y-67873590D01*
X189887521Y-67591326D01*
X190057259Y-67337295D01*
X190273295Y-67121259D01*
X190527326Y-66951521D01*
X190809590Y-66834604D01*
X190959415Y-66804802D01*
X191109239Y-66775000D01*
X191414761Y-66775000D01*
X191564585Y-66804802D01*
G37*
G36*
X202830433Y-66960893D02*
G01*
X202920657Y-66978839D01*
X203026267Y-67022585D01*
X203175621Y-67084449D01*
X203251763Y-67135325D01*
X203405086Y-67237772D01*
X203600228Y-67432914D01*
X203702675Y-67586237D01*
X203753551Y-67662379D01*
X203815415Y-67811733D01*
X203841038Y-67873590D01*
X203859161Y-67917344D01*
X203913000Y-68188012D01*
X203913000Y-68463988D01*
X203910061Y-68478761D01*
X203859161Y-68734657D01*
X203815415Y-68840267D01*
X203753551Y-68989621D01*
X203753550Y-68989622D01*
X203600228Y-69219086D01*
X203405086Y-69414228D01*
X203256875Y-69513259D01*
X203175621Y-69567551D01*
X203026267Y-69629415D01*
X202920657Y-69673161D01*
X202830433Y-69691107D01*
X202649988Y-69727000D01*
X202374012Y-69727000D01*
X202193567Y-69691107D01*
X202103343Y-69673161D01*
X201997733Y-69629415D01*
X201848379Y-69567551D01*
X201767125Y-69513259D01*
X201618914Y-69414228D01*
X201423772Y-69219086D01*
X201270450Y-68989622D01*
X201270449Y-68989621D01*
X201208585Y-68840267D01*
X201164839Y-68734657D01*
X201113939Y-68478761D01*
X201111000Y-68463988D01*
X201111000Y-68188012D01*
X201164839Y-67917344D01*
X201182963Y-67873590D01*
X201208585Y-67811733D01*
X201270449Y-67662379D01*
X201321325Y-67586237D01*
X201423772Y-67432914D01*
X201618914Y-67237772D01*
X201772237Y-67135325D01*
X201848379Y-67084449D01*
X201997733Y-67022585D01*
X202103343Y-66978839D01*
X202193567Y-66960893D01*
X202374012Y-66925000D01*
X202649988Y-66925000D01*
X202830433Y-66960893D01*
G37*
G36*
X181379395Y-65125546D02*
G01*
X181552466Y-65197234D01*
X181629818Y-65248919D01*
X181708227Y-65301310D01*
X181840690Y-65433773D01*
X181860284Y-65463098D01*
X181944766Y-65589534D01*
X182016454Y-65762605D01*
X182053000Y-65946333D01*
X182053000Y-66133667D01*
X182016454Y-66317395D01*
X181944766Y-66490466D01*
X181944765Y-66490467D01*
X181840690Y-66646227D01*
X181708227Y-66778690D01*
X181629818Y-66831081D01*
X181552466Y-66882766D01*
X181379395Y-66954454D01*
X181195667Y-66991000D01*
X181008333Y-66991000D01*
X180824605Y-66954454D01*
X180651534Y-66882766D01*
X180574182Y-66831081D01*
X180495773Y-66778690D01*
X180363310Y-66646227D01*
X180259235Y-66490467D01*
X180259234Y-66490466D01*
X180187546Y-66317395D01*
X180151000Y-66133667D01*
X180151000Y-65946333D01*
X180187546Y-65762605D01*
X180259234Y-65589534D01*
X180343716Y-65463098D01*
X180363310Y-65433773D01*
X180495773Y-65301310D01*
X180574182Y-65248919D01*
X180651534Y-65197234D01*
X180824605Y-65125546D01*
X181008333Y-65089000D01*
X181195667Y-65089000D01*
X181379395Y-65125546D01*
G37*
G36*
X186165142Y-65004242D02*
G01*
X186313101Y-65065529D01*
X186446255Y-65154499D01*
X186559501Y-65267745D01*
X186648471Y-65400899D01*
X186709758Y-65548858D01*
X186741000Y-65705925D01*
X186741000Y-65866075D01*
X186709758Y-66023142D01*
X186648471Y-66171101D01*
X186559501Y-66304255D01*
X186446255Y-66417501D01*
X186313101Y-66506471D01*
X186165142Y-66567758D01*
X186008075Y-66599000D01*
X185847925Y-66599000D01*
X185690858Y-66567758D01*
X185542899Y-66506471D01*
X185409745Y-66417501D01*
X185296499Y-66304255D01*
X185207529Y-66171101D01*
X185146242Y-66023142D01*
X185115000Y-65866075D01*
X185115000Y-65705925D01*
X185146242Y-65548858D01*
X185207529Y-65400899D01*
X185296499Y-65267745D01*
X185409745Y-65154499D01*
X185542899Y-65065529D01*
X185690858Y-65004242D01*
X185847925Y-64973000D01*
X186008075Y-64973000D01*
X186165142Y-65004242D01*
G37*
G36*
X141969142Y-64496242D02*
G01*
X142117101Y-64557529D01*
X142250255Y-64646499D01*
X142363501Y-64759745D01*
X142452471Y-64892899D01*
X142513758Y-65040858D01*
X142545000Y-65197925D01*
X142545000Y-65358075D01*
X142513758Y-65515142D01*
X142452471Y-65663101D01*
X142363501Y-65796255D01*
X142250255Y-65909501D01*
X142117101Y-65998471D01*
X141969142Y-66059758D01*
X141812075Y-66091000D01*
X141651925Y-66091000D01*
X141494858Y-66059758D01*
X141346899Y-65998471D01*
X141213745Y-65909501D01*
X141100499Y-65796255D01*
X141011529Y-65663101D01*
X140950242Y-65515142D01*
X140919000Y-65358075D01*
X140919000Y-65197925D01*
X140950242Y-65040858D01*
X141011529Y-64892899D01*
X141100499Y-64759745D01*
X141213745Y-64646499D01*
X141346899Y-64557529D01*
X141494858Y-64496242D01*
X141651925Y-64465000D01*
X141812075Y-64465000D01*
X141969142Y-64496242D01*
G37*
G36*
X130375256Y-62391298D02*
G01*
X130481579Y-62412447D01*
X130782042Y-62536903D01*
X131052451Y-62717585D01*
X131282415Y-62947549D01*
X131463097Y-63217958D01*
X131587553Y-63518421D01*
X131651000Y-63837391D01*
X131651000Y-64162609D01*
X131587553Y-64481579D01*
X131463097Y-64782042D01*
X131282415Y-65052451D01*
X131052451Y-65282415D01*
X130782042Y-65463097D01*
X130481579Y-65587553D01*
X130375256Y-65608702D01*
X130162611Y-65651000D01*
X129837389Y-65651000D01*
X129624744Y-65608702D01*
X129518421Y-65587553D01*
X129217958Y-65463097D01*
X128947549Y-65282415D01*
X128717585Y-65052451D01*
X128536903Y-64782042D01*
X128412447Y-64481579D01*
X128349000Y-64162609D01*
X128349000Y-63837391D01*
X128412447Y-63518421D01*
X128536903Y-63217958D01*
X128717585Y-62947549D01*
X128947549Y-62717585D01*
X129217958Y-62536903D01*
X129518421Y-62412447D01*
X129624744Y-62391298D01*
X129837389Y-62349000D01*
X130162611Y-62349000D01*
X130375256Y-62391298D01*
G37*
G36*
X221375256Y-62391298D02*
G01*
X221481579Y-62412447D01*
X221782042Y-62536903D01*
X222052451Y-62717585D01*
X222282415Y-62947549D01*
X222463097Y-63217958D01*
X222587553Y-63518421D01*
X222651000Y-63837391D01*
X222651000Y-64162609D01*
X222587553Y-64481579D01*
X222463097Y-64782042D01*
X222282415Y-65052451D01*
X222052451Y-65282415D01*
X221782042Y-65463097D01*
X221481579Y-65587553D01*
X221375256Y-65608702D01*
X221162611Y-65651000D01*
X220837389Y-65651000D01*
X220624744Y-65608702D01*
X220518421Y-65587553D01*
X220217958Y-65463097D01*
X219947549Y-65282415D01*
X219717585Y-65052451D01*
X219536903Y-64782042D01*
X219412447Y-64481579D01*
X219349000Y-64162609D01*
X219349000Y-63837391D01*
X219412447Y-63518421D01*
X219536903Y-63217958D01*
X219717585Y-62947549D01*
X219947549Y-62717585D01*
X220217958Y-62536903D01*
X220518421Y-62412447D01*
X220624744Y-62391298D01*
X220837389Y-62349000D01*
X221162611Y-62349000D01*
X221375256Y-62391298D01*
G37*
M02*
