M48
; DRILL file {KiCad 5.1.5+dfsg1-2build2} date vie 08 may 2020 19:50:30
; FORMAT={-:-/ absolute / metric / decimal}
; #@! TF.CreationDate,2020-05-08T19:50:30+02:00
; #@! TF.GenerationSoftware,Kicad,Pcbnew,5.1.5+dfsg1-2build2
; #@! TF.FileFunction,Plated,1,2,PTH
FMAT,2
METRIC
T1C0.400
T2C0.500
T3C0.700
T4C0.762
T5C0.800
T6C1.000
T7C1.300
%
G90
G05
T1
X135.89Y-108.23
X139.192Y-103.886
X151.638Y-111.293
X156.972Y-111.293
X156.972Y-113.325
X160.02Y-83.82
X160.02Y-113.792
X163.576Y-118.364
X166.624Y-117.348
X169.418Y-83.82
T2
X136.652Y-99.314
X136.652Y-100.314
X136.652Y-101.314
X136.652Y-102.314
X136.652Y-103.314
X136.652Y-104.314
T3
X136.652Y-109.982
X136.652Y-115.062
X167.386Y-115.062
X172.466Y-115.062
T4
X178.308Y-116.078
X183.388Y-116.078
X213.614Y-76.962
X218.694Y-76.962
X200.152Y-76.2
X205.232Y-76.2
X187.198Y-76.708
X192.278Y-76.708
X185.928Y-65.786
X185.928Y-70.866
X142.24Y-115.316
X147.32Y-115.316
X151.892Y-116.332
X156.972Y-116.332
X162.052Y-116.332
X141.732Y-65.278
X141.732Y-80.518
X172.212Y-70.358
X172.212Y-75.438
X194.564Y-116.586
X199.644Y-116.586
X204.724Y-116.586
T5
X179.102Y-73.54
X181.102Y-66.04
X131.826Y-98.298
X131.826Y-100.798
X132.334Y-104.942
X132.334Y-107.442
T6
X148.844Y-86.36
X148.844Y-109.22
X151.384Y-86.36
X151.384Y-109.22
X153.924Y-86.36
X153.924Y-109.22
X156.464Y-86.36
X156.464Y-109.22
X159.004Y-86.36
X159.004Y-109.22
X161.544Y-86.36
X161.544Y-109.22
X164.084Y-86.36
X164.084Y-109.22
X166.624Y-86.36
X166.624Y-109.22
T7
X133.35Y-70.718
X133.35Y-93.218
X191.262Y-68.326
X213.762Y-68.326
T0
M30
