G04 #@! TF.GenerationSoftware,KiCad,Pcbnew,5.1.5+dfsg1-2build2*
G04 #@! TF.CreationDate,2020-05-08T19:42:09+02:00*
G04 #@! TF.ProjectId,sm,736d2e6b-6963-4616-945f-706362585858,rev?*
G04 #@! TF.SameCoordinates,Original*
G04 #@! TF.FileFunction,Copper,L1,Top*
G04 #@! TF.FilePolarity,Positive*
%FSLAX46Y46*%
G04 Gerber Fmt 4.6, Leading zero omitted, Abs format (unit mm)*
G04 Created by KiCad (PCBNEW 5.1.5+dfsg1-2build2) date 2020-05-08 19:42:09*
%MOMM*%
%LPD*%
G04 APERTURE LIST*
%ADD10C,0.125000*%
%ADD11C,5.000000*%
%ADD12O,0.850000X0.850000*%
%ADD13R,0.850000X0.850000*%
%ADD14C,1.524000*%
%ADD15O,1.600000X2.000000*%
%ADD16R,2.000000X2.000000*%
%ADD17C,1.800000*%
%ADD18O,1.400000X1.400000*%
%ADD19C,1.400000*%
%ADD20C,3.000000*%
%ADD21C,1.600000*%
%ADD22R,1.600000X1.600000*%
%ADD23C,0.800000*%
%ADD24C,0.750000*%
G04 APERTURE END LIST*
D10*
X185960190Y-74640285D02*
X185793523Y-74640285D01*
X185793523Y-74902190D02*
X185793523Y-74402190D01*
X186031619Y-74402190D01*
X186436380Y-74568857D02*
X186436380Y-74902190D01*
X186222095Y-74568857D02*
X186222095Y-74830761D01*
X186245904Y-74878380D01*
X186293523Y-74902190D01*
X186364952Y-74902190D01*
X186412571Y-74878380D01*
X186436380Y-74854571D01*
X186650666Y-74878380D02*
X186698285Y-74902190D01*
X186793523Y-74902190D01*
X186841142Y-74878380D01*
X186864952Y-74830761D01*
X186864952Y-74806952D01*
X186841142Y-74759333D01*
X186793523Y-74735523D01*
X186722095Y-74735523D01*
X186674476Y-74711714D01*
X186650666Y-74664095D01*
X186650666Y-74640285D01*
X186674476Y-74592666D01*
X186722095Y-74568857D01*
X186793523Y-74568857D01*
X186841142Y-74592666D01*
X187079238Y-74902190D02*
X187079238Y-74568857D01*
X187079238Y-74402190D02*
X187055428Y-74426000D01*
X187079238Y-74449809D01*
X187103047Y-74426000D01*
X187079238Y-74402190D01*
X187079238Y-74449809D01*
X187317333Y-74902190D02*
X187317333Y-74402190D01*
X187317333Y-74592666D02*
X187364952Y-74568857D01*
X187460190Y-74568857D01*
X187507809Y-74592666D01*
X187531619Y-74616476D01*
X187555428Y-74664095D01*
X187555428Y-74806952D01*
X187531619Y-74854571D01*
X187507809Y-74878380D01*
X187460190Y-74902190D01*
X187364952Y-74902190D01*
X187317333Y-74878380D01*
X187841142Y-74902190D02*
X187793523Y-74878380D01*
X187769714Y-74830761D01*
X187769714Y-74402190D01*
X188222095Y-74878380D02*
X188174476Y-74902190D01*
X188079238Y-74902190D01*
X188031619Y-74878380D01*
X188007809Y-74830761D01*
X188007809Y-74640285D01*
X188031619Y-74592666D01*
X188079238Y-74568857D01*
X188174476Y-74568857D01*
X188222095Y-74592666D01*
X188245904Y-74640285D01*
X188245904Y-74687904D01*
X188007809Y-74735523D01*
X188769714Y-74402190D02*
X189055428Y-74402190D01*
X188912571Y-74902190D02*
X188912571Y-74402190D01*
X189412571Y-74878380D02*
X189364952Y-74902190D01*
X189269714Y-74902190D01*
X189222095Y-74878380D01*
X189198285Y-74830761D01*
X189198285Y-74640285D01*
X189222095Y-74592666D01*
X189269714Y-74568857D01*
X189364952Y-74568857D01*
X189412571Y-74592666D01*
X189436380Y-74640285D01*
X189436380Y-74687904D01*
X189198285Y-74735523D01*
X189650666Y-74902190D02*
X189650666Y-74568857D01*
X189650666Y-74664095D02*
X189674476Y-74616476D01*
X189698285Y-74592666D01*
X189745904Y-74568857D01*
X189793523Y-74568857D01*
X189960190Y-74902190D02*
X189960190Y-74568857D01*
X189960190Y-74616476D02*
X189984000Y-74592666D01*
X190031619Y-74568857D01*
X190103047Y-74568857D01*
X190150666Y-74592666D01*
X190174476Y-74640285D01*
X190174476Y-74902190D01*
X190174476Y-74640285D02*
X190198285Y-74592666D01*
X190245904Y-74568857D01*
X190317333Y-74568857D01*
X190364952Y-74592666D01*
X190388761Y-74640285D01*
X190388761Y-74902190D01*
X190626857Y-74902190D02*
X190626857Y-74568857D01*
X190626857Y-74402190D02*
X190603047Y-74426000D01*
X190626857Y-74449809D01*
X190650666Y-74426000D01*
X190626857Y-74402190D01*
X190626857Y-74449809D01*
X191079238Y-74878380D02*
X191031619Y-74902190D01*
X190936380Y-74902190D01*
X190888761Y-74878380D01*
X190864952Y-74854571D01*
X190841142Y-74806952D01*
X190841142Y-74664095D01*
X190864952Y-74616476D01*
X190888761Y-74592666D01*
X190936380Y-74568857D01*
X191031619Y-74568857D01*
X191079238Y-74592666D01*
X191364952Y-74902190D02*
X191317333Y-74878380D01*
X191293523Y-74854571D01*
X191269714Y-74806952D01*
X191269714Y-74664095D01*
X191293523Y-74616476D01*
X191317333Y-74592666D01*
X191364952Y-74568857D01*
X191436380Y-74568857D01*
X191484000Y-74592666D01*
X191507809Y-74616476D01*
X191531619Y-74664095D01*
X191531619Y-74806952D01*
X191507809Y-74854571D01*
X191484000Y-74878380D01*
X191436380Y-74902190D01*
X191364952Y-74902190D01*
X192079238Y-74402190D02*
X192412571Y-74402190D01*
X192198285Y-74902190D01*
X192555428Y-74402190D02*
X192888761Y-74402190D01*
X192674476Y-74902190D01*
X193103047Y-74592666D02*
X193055428Y-74568857D01*
X193031619Y-74521238D01*
X193031619Y-74426000D01*
X193055428Y-74378380D01*
X193103047Y-74354571D01*
X193150666Y-74354571D01*
X193198285Y-74378380D01*
X193222095Y-74426000D01*
X193222095Y-74521238D01*
X193198285Y-74568857D01*
X193150666Y-74592666D01*
X193103047Y-74592666D01*
X204478285Y-119098190D02*
X204311619Y-118860095D01*
X204192571Y-119098190D02*
X204192571Y-118598190D01*
X204383047Y-118598190D01*
X204430666Y-118622000D01*
X204454476Y-118645809D01*
X204478285Y-118693428D01*
X204478285Y-118764857D01*
X204454476Y-118812476D01*
X204430666Y-118836285D01*
X204383047Y-118860095D01*
X204192571Y-118860095D01*
X204883047Y-119074380D02*
X204835428Y-119098190D01*
X204740190Y-119098190D01*
X204692571Y-119074380D01*
X204668761Y-119026761D01*
X204668761Y-118836285D01*
X204692571Y-118788666D01*
X204740190Y-118764857D01*
X204835428Y-118764857D01*
X204883047Y-118788666D01*
X204906857Y-118836285D01*
X204906857Y-118883904D01*
X204668761Y-118931523D01*
X205192571Y-119098190D02*
X205144952Y-119074380D01*
X205121142Y-119026761D01*
X205121142Y-118598190D01*
X205573523Y-119074380D02*
X205525904Y-119098190D01*
X205430666Y-119098190D01*
X205383047Y-119074380D01*
X205359238Y-119026761D01*
X205359238Y-118836285D01*
X205383047Y-118788666D01*
X205430666Y-118764857D01*
X205525904Y-118764857D01*
X205573523Y-118788666D01*
X205597333Y-118836285D01*
X205597333Y-118883904D01*
X205359238Y-118931523D01*
X206335428Y-119288666D02*
X206311619Y-119264857D01*
X206264000Y-119193428D01*
X206240190Y-119145809D01*
X206216380Y-119074380D01*
X206192571Y-118955333D01*
X206192571Y-118860095D01*
X206216380Y-118741047D01*
X206240190Y-118669619D01*
X206264000Y-118622000D01*
X206311619Y-118550571D01*
X206335428Y-118526761D01*
X206525904Y-118907714D02*
X206906857Y-118907714D01*
X207168761Y-119074380D02*
X207168761Y-119098190D01*
X207144952Y-119145809D01*
X207121142Y-119169619D01*
X207359238Y-119074380D02*
X207406857Y-119098190D01*
X207502095Y-119098190D01*
X207549714Y-119074380D01*
X207573523Y-119026761D01*
X207573523Y-119002952D01*
X207549714Y-118955333D01*
X207502095Y-118931523D01*
X207430666Y-118931523D01*
X207383047Y-118907714D01*
X207359238Y-118860095D01*
X207359238Y-118836285D01*
X207383047Y-118788666D01*
X207430666Y-118764857D01*
X207502095Y-118764857D01*
X207549714Y-118788666D01*
X207978285Y-119074380D02*
X207930666Y-119098190D01*
X207835428Y-119098190D01*
X207787809Y-119074380D01*
X207764000Y-119026761D01*
X207764000Y-118836285D01*
X207787809Y-118788666D01*
X207835428Y-118764857D01*
X207930666Y-118764857D01*
X207978285Y-118788666D01*
X208002095Y-118836285D01*
X208002095Y-118883904D01*
X207764000Y-118931523D01*
X208216380Y-118764857D02*
X208216380Y-119098190D01*
X208216380Y-118812476D02*
X208240190Y-118788666D01*
X208287809Y-118764857D01*
X208359238Y-118764857D01*
X208406857Y-118788666D01*
X208430666Y-118836285D01*
X208430666Y-119098190D01*
X208192571Y-118645809D02*
X208216380Y-118622000D01*
X208264000Y-118598190D01*
X208359238Y-118645809D01*
X208406857Y-118622000D01*
X208430666Y-118598190D01*
X208883047Y-119098190D02*
X208883047Y-118836285D01*
X208859238Y-118788666D01*
X208811619Y-118764857D01*
X208716380Y-118764857D01*
X208668761Y-118788666D01*
X208883047Y-119074380D02*
X208835428Y-119098190D01*
X208716380Y-119098190D01*
X208668761Y-119074380D01*
X208644952Y-119026761D01*
X208644952Y-118979142D01*
X208668761Y-118931523D01*
X208716380Y-118907714D01*
X208835428Y-118907714D01*
X208883047Y-118883904D01*
X209192571Y-119098190D02*
X209144952Y-119074380D01*
X209121142Y-119026761D01*
X209121142Y-118598190D01*
X209406857Y-119074380D02*
X209406857Y-119098190D01*
X209383047Y-119145809D01*
X209359238Y-119169619D01*
X209621142Y-118907714D02*
X210002095Y-118907714D01*
X209811619Y-119098190D02*
X209811619Y-118717238D01*
X210192571Y-119288666D02*
X210216380Y-119264857D01*
X210264000Y-119193428D01*
X210287809Y-119145809D01*
X210311619Y-119074380D01*
X210335428Y-118955333D01*
X210335428Y-118860095D01*
X210311619Y-118741047D01*
X210287809Y-118669619D01*
X210264000Y-118622000D01*
X210216380Y-118550571D01*
X210192571Y-118526761D01*
X215098476Y-75148285D02*
X215265142Y-75148285D01*
X215336571Y-75410190D02*
X215098476Y-75410190D01*
X215098476Y-74910190D01*
X215336571Y-74910190D01*
X215550857Y-75076857D02*
X215550857Y-75410190D01*
X215550857Y-75124476D02*
X215574666Y-75100666D01*
X215622285Y-75076857D01*
X215693714Y-75076857D01*
X215741333Y-75100666D01*
X215765142Y-75148285D01*
X215765142Y-75410190D01*
X215931809Y-75076857D02*
X216122285Y-75076857D01*
X216003238Y-74910190D02*
X216003238Y-75338761D01*
X216027047Y-75386380D01*
X216074666Y-75410190D01*
X216122285Y-75410190D01*
X216288952Y-75410190D02*
X216288952Y-75076857D01*
X216288952Y-75172095D02*
X216312761Y-75124476D01*
X216336571Y-75100666D01*
X216384190Y-75076857D01*
X216431809Y-75076857D01*
X216812761Y-75410190D02*
X216812761Y-75148285D01*
X216788952Y-75100666D01*
X216741333Y-75076857D01*
X216646095Y-75076857D01*
X216598476Y-75100666D01*
X216812761Y-75386380D02*
X216765142Y-75410190D01*
X216646095Y-75410190D01*
X216598476Y-75386380D01*
X216574666Y-75338761D01*
X216574666Y-75291142D01*
X216598476Y-75243523D01*
X216646095Y-75219714D01*
X216765142Y-75219714D01*
X216812761Y-75195904D01*
X217265142Y-75410190D02*
X217265142Y-74910190D01*
X217265142Y-75386380D02*
X217217523Y-75410190D01*
X217122285Y-75410190D01*
X217074666Y-75386380D01*
X217050857Y-75362571D01*
X217027047Y-75314952D01*
X217027047Y-75172095D01*
X217050857Y-75124476D01*
X217074666Y-75100666D01*
X217122285Y-75076857D01*
X217217523Y-75076857D01*
X217265142Y-75100666D01*
X217717523Y-75410190D02*
X217717523Y-75148285D01*
X217693714Y-75100666D01*
X217646095Y-75076857D01*
X217550857Y-75076857D01*
X217503238Y-75100666D01*
X217717523Y-75386380D02*
X217669904Y-75410190D01*
X217550857Y-75410190D01*
X217503238Y-75386380D01*
X217479428Y-75338761D01*
X217479428Y-75291142D01*
X217503238Y-75243523D01*
X217550857Y-75219714D01*
X217669904Y-75219714D01*
X217717523Y-75195904D01*
X223293809Y-93849428D02*
X223531904Y-93682761D01*
X223293809Y-93563714D02*
X223793809Y-93563714D01*
X223793809Y-93754190D01*
X223770000Y-93801809D01*
X223746190Y-93825619D01*
X223698571Y-93849428D01*
X223627142Y-93849428D01*
X223579523Y-93825619D01*
X223555714Y-93801809D01*
X223531904Y-93754190D01*
X223531904Y-93563714D01*
X223317619Y-94254190D02*
X223293809Y-94206571D01*
X223293809Y-94111333D01*
X223317619Y-94063714D01*
X223365238Y-94039904D01*
X223555714Y-94039904D01*
X223603333Y-94063714D01*
X223627142Y-94111333D01*
X223627142Y-94206571D01*
X223603333Y-94254190D01*
X223555714Y-94278000D01*
X223508095Y-94278000D01*
X223460476Y-94039904D01*
X223293809Y-94563714D02*
X223317619Y-94516095D01*
X223365238Y-94492285D01*
X223793809Y-94492285D01*
X223317619Y-94944666D02*
X223293809Y-94897047D01*
X223293809Y-94801809D01*
X223317619Y-94754190D01*
X223365238Y-94730380D01*
X223555714Y-94730380D01*
X223603333Y-94754190D01*
X223627142Y-94801809D01*
X223627142Y-94897047D01*
X223603333Y-94944666D01*
X223555714Y-94968476D01*
X223508095Y-94968476D01*
X223460476Y-94730380D01*
X223103333Y-95706571D02*
X223127142Y-95682761D01*
X223198571Y-95635142D01*
X223246190Y-95611333D01*
X223317619Y-95587523D01*
X223436666Y-95563714D01*
X223531904Y-95563714D01*
X223650952Y-95587523D01*
X223722380Y-95611333D01*
X223770000Y-95635142D01*
X223841428Y-95682761D01*
X223865238Y-95706571D01*
X223793809Y-95992285D02*
X223793809Y-96087523D01*
X223770000Y-96135142D01*
X223722380Y-96182761D01*
X223627142Y-96206571D01*
X223460476Y-96206571D01*
X223365238Y-96182761D01*
X223317619Y-96135142D01*
X223293809Y-96087523D01*
X223293809Y-95992285D01*
X223317619Y-95944666D01*
X223365238Y-95897047D01*
X223460476Y-95873238D01*
X223627142Y-95873238D01*
X223722380Y-95897047D01*
X223770000Y-95944666D01*
X223793809Y-95992285D01*
X223627142Y-96420857D02*
X223127142Y-96420857D01*
X223603333Y-96420857D02*
X223627142Y-96468476D01*
X223627142Y-96563714D01*
X223603333Y-96611333D01*
X223579523Y-96635142D01*
X223531904Y-96658952D01*
X223389047Y-96658952D01*
X223341428Y-96635142D01*
X223317619Y-96611333D01*
X223293809Y-96563714D01*
X223293809Y-96468476D01*
X223317619Y-96420857D01*
X223317619Y-97063714D02*
X223293809Y-97016095D01*
X223293809Y-96920857D01*
X223317619Y-96873238D01*
X223365238Y-96849428D01*
X223555714Y-96849428D01*
X223603333Y-96873238D01*
X223627142Y-96920857D01*
X223627142Y-97016095D01*
X223603333Y-97063714D01*
X223555714Y-97087523D01*
X223508095Y-97087523D01*
X223460476Y-96849428D01*
X223627142Y-97301809D02*
X223293809Y-97301809D01*
X223579523Y-97301809D02*
X223603333Y-97325619D01*
X223627142Y-97373238D01*
X223627142Y-97444666D01*
X223603333Y-97492285D01*
X223555714Y-97516095D01*
X223293809Y-97516095D01*
X223317619Y-97778000D02*
X223293809Y-97778000D01*
X223246190Y-97754190D01*
X223222380Y-97730380D01*
X223293809Y-97992285D02*
X223793809Y-97992285D01*
X223436666Y-98158952D01*
X223793809Y-98325619D01*
X223293809Y-98325619D01*
X223293809Y-98563714D02*
X223627142Y-98563714D01*
X223793809Y-98563714D02*
X223770000Y-98539904D01*
X223746190Y-98563714D01*
X223770000Y-98587523D01*
X223793809Y-98563714D01*
X223746190Y-98563714D01*
X223293809Y-99016095D02*
X223793809Y-99016095D01*
X223317619Y-99016095D02*
X223293809Y-98968476D01*
X223293809Y-98873238D01*
X223317619Y-98825619D01*
X223341428Y-98801809D01*
X223389047Y-98778000D01*
X223531904Y-98778000D01*
X223579523Y-98801809D01*
X223603333Y-98825619D01*
X223627142Y-98873238D01*
X223627142Y-98968476D01*
X223603333Y-99016095D01*
X223293809Y-99468476D02*
X223793809Y-99468476D01*
X223317619Y-99468476D02*
X223293809Y-99420857D01*
X223293809Y-99325619D01*
X223317619Y-99278000D01*
X223341428Y-99254190D01*
X223389047Y-99230380D01*
X223531904Y-99230380D01*
X223579523Y-99254190D01*
X223603333Y-99278000D01*
X223627142Y-99325619D01*
X223627142Y-99420857D01*
X223603333Y-99468476D01*
X223293809Y-99778000D02*
X223317619Y-99730380D01*
X223365238Y-99706571D01*
X223793809Y-99706571D01*
X223317619Y-100158952D02*
X223293809Y-100111333D01*
X223293809Y-100016095D01*
X223317619Y-99968476D01*
X223365238Y-99944666D01*
X223555714Y-99944666D01*
X223603333Y-99968476D01*
X223627142Y-100016095D01*
X223627142Y-100111333D01*
X223603333Y-100158952D01*
X223555714Y-100182761D01*
X223508095Y-100182761D01*
X223460476Y-99944666D01*
X223103333Y-100349428D02*
X223127142Y-100373238D01*
X223198571Y-100420857D01*
X223246190Y-100444666D01*
X223317619Y-100468476D01*
X223436666Y-100492285D01*
X223531904Y-100492285D01*
X223650952Y-100468476D01*
X223722380Y-100444666D01*
X223770000Y-100420857D01*
X223841428Y-100373238D01*
X223865238Y-100349428D01*
X183761333Y-62686380D02*
X183832761Y-62710190D01*
X183951809Y-62710190D01*
X183999428Y-62686380D01*
X184023238Y-62662571D01*
X184047047Y-62614952D01*
X184047047Y-62567333D01*
X184023238Y-62519714D01*
X183999428Y-62495904D01*
X183951809Y-62472095D01*
X183856571Y-62448285D01*
X183808952Y-62424476D01*
X183785142Y-62400666D01*
X183761333Y-62353047D01*
X183761333Y-62305428D01*
X183785142Y-62257809D01*
X183808952Y-62234000D01*
X183856571Y-62210190D01*
X183975619Y-62210190D01*
X184047047Y-62234000D01*
X184475619Y-62710190D02*
X184475619Y-62448285D01*
X184451809Y-62400666D01*
X184404190Y-62376857D01*
X184308952Y-62376857D01*
X184261333Y-62400666D01*
X184475619Y-62686380D02*
X184428000Y-62710190D01*
X184308952Y-62710190D01*
X184261333Y-62686380D01*
X184237523Y-62638761D01*
X184237523Y-62591142D01*
X184261333Y-62543523D01*
X184308952Y-62519714D01*
X184428000Y-62519714D01*
X184475619Y-62495904D01*
X184785142Y-62710190D02*
X184737523Y-62686380D01*
X184713714Y-62638761D01*
X184713714Y-62210190D01*
X184975619Y-62710190D02*
X184975619Y-62376857D01*
X184975619Y-62210190D02*
X184951809Y-62234000D01*
X184975619Y-62257809D01*
X184999428Y-62234000D01*
X184975619Y-62210190D01*
X184975619Y-62257809D01*
X185428000Y-62710190D02*
X185428000Y-62210190D01*
X185428000Y-62686380D02*
X185380380Y-62710190D01*
X185285142Y-62710190D01*
X185237523Y-62686380D01*
X185213714Y-62662571D01*
X185189904Y-62614952D01*
X185189904Y-62472095D01*
X185213714Y-62424476D01*
X185237523Y-62400666D01*
X185285142Y-62376857D01*
X185380380Y-62376857D01*
X185428000Y-62400666D01*
X185880380Y-62710190D02*
X185880380Y-62448285D01*
X185856571Y-62400666D01*
X185808952Y-62376857D01*
X185713714Y-62376857D01*
X185666095Y-62400666D01*
X185880380Y-62686380D02*
X185832761Y-62710190D01*
X185713714Y-62710190D01*
X185666095Y-62686380D01*
X185642285Y-62638761D01*
X185642285Y-62591142D01*
X185666095Y-62543523D01*
X185713714Y-62519714D01*
X185832761Y-62519714D01*
X185880380Y-62495904D01*
X186475619Y-62257809D02*
X186499428Y-62234000D01*
X186547047Y-62210190D01*
X186666095Y-62210190D01*
X186713714Y-62234000D01*
X186737523Y-62257809D01*
X186761333Y-62305428D01*
X186761333Y-62353047D01*
X186737523Y-62424476D01*
X186451809Y-62710190D01*
X186761333Y-62710190D01*
X186951809Y-62257809D02*
X186975619Y-62234000D01*
X187023238Y-62210190D01*
X187142285Y-62210190D01*
X187189904Y-62234000D01*
X187213714Y-62257809D01*
X187237523Y-62305428D01*
X187237523Y-62353047D01*
X187213714Y-62424476D01*
X186928000Y-62710190D01*
X187237523Y-62710190D01*
X187547047Y-62210190D02*
X187594666Y-62210190D01*
X187642285Y-62234000D01*
X187666095Y-62257809D01*
X187689904Y-62305428D01*
X187713714Y-62400666D01*
X187713714Y-62519714D01*
X187689904Y-62614952D01*
X187666095Y-62662571D01*
X187642285Y-62686380D01*
X187594666Y-62710190D01*
X187547047Y-62710190D01*
X187499428Y-62686380D01*
X187475619Y-62662571D01*
X187451809Y-62614952D01*
X187428000Y-62519714D01*
X187428000Y-62400666D01*
X187451809Y-62305428D01*
X187475619Y-62257809D01*
X187499428Y-62234000D01*
X187547047Y-62210190D01*
X187880380Y-62376857D02*
X187999428Y-62710190D01*
X188118476Y-62376857D01*
X186543428Y-116558190D02*
X186305333Y-116558190D01*
X186305333Y-116058190D01*
X186900571Y-116534380D02*
X186852952Y-116558190D01*
X186757714Y-116558190D01*
X186710095Y-116534380D01*
X186686285Y-116486761D01*
X186686285Y-116296285D01*
X186710095Y-116248666D01*
X186757714Y-116224857D01*
X186852952Y-116224857D01*
X186900571Y-116248666D01*
X186924380Y-116296285D01*
X186924380Y-116343904D01*
X186686285Y-116391523D01*
X187352952Y-116558190D02*
X187352952Y-116058190D01*
X187352952Y-116534380D02*
X187305333Y-116558190D01*
X187210095Y-116558190D01*
X187162476Y-116534380D01*
X187138666Y-116510571D01*
X187114857Y-116462952D01*
X187114857Y-116320095D01*
X187138666Y-116272476D01*
X187162476Y-116248666D01*
X187210095Y-116224857D01*
X187305333Y-116224857D01*
X187352952Y-116248666D01*
X187876761Y-116558190D02*
X187710095Y-116320095D01*
X187591047Y-116558190D02*
X187591047Y-116058190D01*
X187781523Y-116058190D01*
X187829142Y-116082000D01*
X187852952Y-116105809D01*
X187876761Y-116153428D01*
X187876761Y-116224857D01*
X187852952Y-116272476D01*
X187829142Y-116296285D01*
X187781523Y-116320095D01*
X187591047Y-116320095D01*
X188162476Y-116558190D02*
X188114857Y-116534380D01*
X188091047Y-116510571D01*
X188067238Y-116462952D01*
X188067238Y-116320095D01*
X188091047Y-116272476D01*
X188114857Y-116248666D01*
X188162476Y-116224857D01*
X188233904Y-116224857D01*
X188281523Y-116248666D01*
X188305333Y-116272476D01*
X188329142Y-116320095D01*
X188329142Y-116462952D01*
X188305333Y-116510571D01*
X188281523Y-116534380D01*
X188233904Y-116558190D01*
X188162476Y-116558190D01*
X188543428Y-116224857D02*
X188543428Y-116653428D01*
X188519619Y-116701047D01*
X188472000Y-116724857D01*
X188448190Y-116724857D01*
X188543428Y-116058190D02*
X188519619Y-116082000D01*
X188543428Y-116105809D01*
X188567238Y-116082000D01*
X188543428Y-116058190D01*
X188543428Y-116105809D01*
X188852952Y-116558190D02*
X188805333Y-116534380D01*
X188781523Y-116510571D01*
X188757714Y-116462952D01*
X188757714Y-116320095D01*
X188781523Y-116272476D01*
X188805333Y-116248666D01*
X188852952Y-116224857D01*
X188924380Y-116224857D01*
X188972000Y-116248666D01*
X188995809Y-116272476D01*
X189019619Y-116320095D01*
X189019619Y-116462952D01*
X188995809Y-116510571D01*
X188972000Y-116534380D01*
X188924380Y-116558190D01*
X188852952Y-116558190D01*
X189376761Y-116748666D02*
X189352952Y-116724857D01*
X189305333Y-116653428D01*
X189281523Y-116605809D01*
X189257714Y-116534380D01*
X189233904Y-116415333D01*
X189233904Y-116320095D01*
X189257714Y-116201047D01*
X189281523Y-116129619D01*
X189305333Y-116082000D01*
X189352952Y-116010571D01*
X189376761Y-115986761D01*
X189567238Y-116367714D02*
X189948190Y-116367714D01*
X190210095Y-116534380D02*
X190210095Y-116558190D01*
X190186285Y-116605809D01*
X190162476Y-116629619D01*
X190424380Y-116367714D02*
X190805333Y-116367714D01*
X190614857Y-116558190D02*
X190614857Y-116177238D01*
X190995809Y-116748666D02*
X191019619Y-116724857D01*
X191067238Y-116653428D01*
X191091047Y-116605809D01*
X191114857Y-116534380D01*
X191138666Y-116415333D01*
X191138666Y-116320095D01*
X191114857Y-116201047D01*
X191091047Y-116129619D01*
X191067238Y-116082000D01*
X191019619Y-116010571D01*
X190995809Y-115986761D01*
X141700571Y-118844190D02*
X141462476Y-118844190D01*
X141462476Y-118344190D01*
X142057714Y-118820380D02*
X142010095Y-118844190D01*
X141914857Y-118844190D01*
X141867238Y-118820380D01*
X141843428Y-118772761D01*
X141843428Y-118582285D01*
X141867238Y-118534666D01*
X141914857Y-118510857D01*
X142010095Y-118510857D01*
X142057714Y-118534666D01*
X142081523Y-118582285D01*
X142081523Y-118629904D01*
X141843428Y-118677523D01*
X142510095Y-118844190D02*
X142510095Y-118344190D01*
X142510095Y-118820380D02*
X142462476Y-118844190D01*
X142367238Y-118844190D01*
X142319619Y-118820380D01*
X142295809Y-118796571D01*
X142272000Y-118748952D01*
X142272000Y-118606095D01*
X142295809Y-118558476D01*
X142319619Y-118534666D01*
X142367238Y-118510857D01*
X142462476Y-118510857D01*
X142510095Y-118534666D01*
X142676761Y-118344190D02*
X142843428Y-118844190D01*
X143010095Y-118344190D01*
X143367238Y-118820380D02*
X143319619Y-118844190D01*
X143224380Y-118844190D01*
X143176761Y-118820380D01*
X143152952Y-118772761D01*
X143152952Y-118582285D01*
X143176761Y-118534666D01*
X143224380Y-118510857D01*
X143319619Y-118510857D01*
X143367238Y-118534666D01*
X143391047Y-118582285D01*
X143391047Y-118629904D01*
X143152952Y-118677523D01*
X143605333Y-118844190D02*
X143605333Y-118510857D01*
X143605333Y-118606095D02*
X143629142Y-118558476D01*
X143652952Y-118534666D01*
X143700571Y-118510857D01*
X143748190Y-118510857D01*
X144129142Y-118844190D02*
X144129142Y-118344190D01*
X144129142Y-118820380D02*
X144081523Y-118844190D01*
X143986285Y-118844190D01*
X143938666Y-118820380D01*
X143914857Y-118796571D01*
X143891047Y-118748952D01*
X143891047Y-118606095D01*
X143914857Y-118558476D01*
X143938666Y-118534666D01*
X143986285Y-118510857D01*
X144081523Y-118510857D01*
X144129142Y-118534666D01*
X144557714Y-118820380D02*
X144510095Y-118844190D01*
X144414857Y-118844190D01*
X144367238Y-118820380D01*
X144343428Y-118772761D01*
X144343428Y-118582285D01*
X144367238Y-118534666D01*
X144414857Y-118510857D01*
X144510095Y-118510857D01*
X144557714Y-118534666D01*
X144581523Y-118582285D01*
X144581523Y-118629904D01*
X144343428Y-118677523D01*
X145319619Y-119034666D02*
X145295809Y-119010857D01*
X145248190Y-118939428D01*
X145224380Y-118891809D01*
X145200571Y-118820380D01*
X145176761Y-118701333D01*
X145176761Y-118606095D01*
X145200571Y-118487047D01*
X145224380Y-118415619D01*
X145248190Y-118368000D01*
X145295809Y-118296571D01*
X145319619Y-118272761D01*
X145510095Y-118653714D02*
X145891047Y-118653714D01*
X145700571Y-118844190D02*
X145700571Y-118463238D01*
X146152952Y-118820380D02*
X146152952Y-118844190D01*
X146129142Y-118891809D01*
X146105333Y-118915619D01*
X146367238Y-118653714D02*
X146748190Y-118653714D01*
X146938666Y-119034666D02*
X146962476Y-119010857D01*
X147010095Y-118939428D01*
X147033904Y-118891809D01*
X147057714Y-118820380D01*
X147081523Y-118701333D01*
X147081523Y-118606095D01*
X147057714Y-118487047D01*
X147033904Y-118415619D01*
X147010095Y-118368000D01*
X146962476Y-118296571D01*
X146938666Y-118272761D01*
X151849047Y-119836380D02*
X151920476Y-119860190D01*
X152039523Y-119860190D01*
X152087142Y-119836380D01*
X152110952Y-119812571D01*
X152134761Y-119764952D01*
X152134761Y-119717333D01*
X152110952Y-119669714D01*
X152087142Y-119645904D01*
X152039523Y-119622095D01*
X151944285Y-119598285D01*
X151896666Y-119574476D01*
X151872857Y-119550666D01*
X151849047Y-119503047D01*
X151849047Y-119455428D01*
X151872857Y-119407809D01*
X151896666Y-119384000D01*
X151944285Y-119360190D01*
X152063333Y-119360190D01*
X152134761Y-119384000D01*
X152539523Y-119836380D02*
X152491904Y-119860190D01*
X152396666Y-119860190D01*
X152349047Y-119836380D01*
X152325238Y-119788761D01*
X152325238Y-119598285D01*
X152349047Y-119550666D01*
X152396666Y-119526857D01*
X152491904Y-119526857D01*
X152539523Y-119550666D01*
X152563333Y-119598285D01*
X152563333Y-119645904D01*
X152325238Y-119693523D01*
X152777619Y-119526857D02*
X152777619Y-119860190D01*
X152777619Y-119574476D02*
X152801428Y-119550666D01*
X152849047Y-119526857D01*
X152920476Y-119526857D01*
X152968095Y-119550666D01*
X152991904Y-119598285D01*
X152991904Y-119860190D01*
X153206190Y-119836380D02*
X153253809Y-119860190D01*
X153349047Y-119860190D01*
X153396666Y-119836380D01*
X153420476Y-119788761D01*
X153420476Y-119764952D01*
X153396666Y-119717333D01*
X153349047Y-119693523D01*
X153277619Y-119693523D01*
X153230000Y-119669714D01*
X153206190Y-119622095D01*
X153206190Y-119598285D01*
X153230000Y-119550666D01*
X153277619Y-119526857D01*
X153349047Y-119526857D01*
X153396666Y-119550666D01*
X153706190Y-119860190D02*
X153658571Y-119836380D01*
X153634761Y-119812571D01*
X153610952Y-119764952D01*
X153610952Y-119622095D01*
X153634761Y-119574476D01*
X153658571Y-119550666D01*
X153706190Y-119526857D01*
X153777619Y-119526857D01*
X153825238Y-119550666D01*
X153849047Y-119574476D01*
X153872857Y-119622095D01*
X153872857Y-119764952D01*
X153849047Y-119812571D01*
X153825238Y-119836380D01*
X153777619Y-119860190D01*
X153706190Y-119860190D01*
X154087142Y-119860190D02*
X154087142Y-119526857D01*
X154087142Y-119622095D02*
X154110952Y-119574476D01*
X154134761Y-119550666D01*
X154182380Y-119526857D01*
X154230000Y-119526857D01*
X154396666Y-119860190D02*
X154396666Y-119360190D01*
X154563333Y-119717333D01*
X154730000Y-119360190D01*
X154730000Y-119860190D01*
X155039523Y-119860190D02*
X154991904Y-119836380D01*
X154968095Y-119812571D01*
X154944285Y-119764952D01*
X154944285Y-119622095D01*
X154968095Y-119574476D01*
X154991904Y-119550666D01*
X155039523Y-119526857D01*
X155110952Y-119526857D01*
X155158571Y-119550666D01*
X155182380Y-119574476D01*
X155206190Y-119622095D01*
X155206190Y-119764952D01*
X155182380Y-119812571D01*
X155158571Y-119836380D01*
X155110952Y-119860190D01*
X155039523Y-119860190D01*
X155372857Y-119526857D02*
X155491904Y-119860190D01*
X155610952Y-119526857D01*
X155801428Y-119860190D02*
X155801428Y-119526857D01*
X155801428Y-119360190D02*
X155777619Y-119384000D01*
X155801428Y-119407809D01*
X155825238Y-119384000D01*
X155801428Y-119360190D01*
X155801428Y-119407809D01*
X156039523Y-119860190D02*
X156039523Y-119526857D01*
X156039523Y-119574476D02*
X156063333Y-119550666D01*
X156110952Y-119526857D01*
X156182380Y-119526857D01*
X156230000Y-119550666D01*
X156253809Y-119598285D01*
X156253809Y-119860190D01*
X156253809Y-119598285D02*
X156277619Y-119550666D01*
X156325238Y-119526857D01*
X156396666Y-119526857D01*
X156444285Y-119550666D01*
X156468095Y-119598285D01*
X156468095Y-119860190D01*
X156706190Y-119860190D02*
X156706190Y-119526857D01*
X156706190Y-119360190D02*
X156682380Y-119384000D01*
X156706190Y-119407809D01*
X156730000Y-119384000D01*
X156706190Y-119360190D01*
X156706190Y-119407809D01*
X157134761Y-119836380D02*
X157087142Y-119860190D01*
X156991904Y-119860190D01*
X156944285Y-119836380D01*
X156920476Y-119788761D01*
X156920476Y-119598285D01*
X156944285Y-119550666D01*
X156991904Y-119526857D01*
X157087142Y-119526857D01*
X157134761Y-119550666D01*
X157158571Y-119598285D01*
X157158571Y-119645904D01*
X156920476Y-119693523D01*
X157372857Y-119526857D02*
X157372857Y-119860190D01*
X157372857Y-119574476D02*
X157396666Y-119550666D01*
X157444285Y-119526857D01*
X157515714Y-119526857D01*
X157563333Y-119550666D01*
X157587142Y-119598285D01*
X157587142Y-119860190D01*
X157753809Y-119526857D02*
X157944285Y-119526857D01*
X157825238Y-119360190D02*
X157825238Y-119788761D01*
X157849047Y-119836380D01*
X157896666Y-119860190D01*
X157944285Y-119860190D01*
X158182380Y-119860190D02*
X158134761Y-119836380D01*
X158110952Y-119812571D01*
X158087142Y-119764952D01*
X158087142Y-119622095D01*
X158110952Y-119574476D01*
X158134761Y-119550666D01*
X158182380Y-119526857D01*
X158253809Y-119526857D01*
X158301428Y-119550666D01*
X158325238Y-119574476D01*
X158349047Y-119622095D01*
X158349047Y-119764952D01*
X158325238Y-119812571D01*
X158301428Y-119836380D01*
X158253809Y-119860190D01*
X158182380Y-119860190D01*
X159087142Y-120050666D02*
X159063333Y-120026857D01*
X159015714Y-119955428D01*
X158991904Y-119907809D01*
X158968095Y-119836380D01*
X158944285Y-119717333D01*
X158944285Y-119622095D01*
X158968095Y-119503047D01*
X158991904Y-119431619D01*
X159015714Y-119384000D01*
X159063333Y-119312571D01*
X159087142Y-119288761D01*
X159277619Y-119669714D02*
X159658571Y-119669714D01*
X159920476Y-119836380D02*
X159920476Y-119860190D01*
X159896666Y-119907809D01*
X159872857Y-119931619D01*
X160110952Y-119836380D02*
X160158571Y-119860190D01*
X160253809Y-119860190D01*
X160301428Y-119836380D01*
X160325238Y-119788761D01*
X160325238Y-119764952D01*
X160301428Y-119717333D01*
X160253809Y-119693523D01*
X160182380Y-119693523D01*
X160134761Y-119669714D01*
X160110952Y-119622095D01*
X160110952Y-119598285D01*
X160134761Y-119550666D01*
X160182380Y-119526857D01*
X160253809Y-119526857D01*
X160301428Y-119550666D01*
X160730000Y-119836380D02*
X160682380Y-119860190D01*
X160587142Y-119860190D01*
X160539523Y-119836380D01*
X160515714Y-119788761D01*
X160515714Y-119598285D01*
X160539523Y-119550666D01*
X160587142Y-119526857D01*
X160682380Y-119526857D01*
X160730000Y-119550666D01*
X160753809Y-119598285D01*
X160753809Y-119645904D01*
X160515714Y-119693523D01*
X160968095Y-119526857D02*
X160968095Y-119860190D01*
X160968095Y-119574476D02*
X160991904Y-119550666D01*
X161039523Y-119526857D01*
X161110952Y-119526857D01*
X161158571Y-119550666D01*
X161182380Y-119598285D01*
X161182380Y-119860190D01*
X160944285Y-119407809D02*
X160968095Y-119384000D01*
X161015714Y-119360190D01*
X161110952Y-119407809D01*
X161158571Y-119384000D01*
X161182380Y-119360190D01*
X161634761Y-119860190D02*
X161634761Y-119598285D01*
X161610952Y-119550666D01*
X161563333Y-119526857D01*
X161468095Y-119526857D01*
X161420476Y-119550666D01*
X161634761Y-119836380D02*
X161587142Y-119860190D01*
X161468095Y-119860190D01*
X161420476Y-119836380D01*
X161396666Y-119788761D01*
X161396666Y-119741142D01*
X161420476Y-119693523D01*
X161468095Y-119669714D01*
X161587142Y-119669714D01*
X161634761Y-119645904D01*
X161944285Y-119860190D02*
X161896666Y-119836380D01*
X161872857Y-119788761D01*
X161872857Y-119360190D01*
X162158571Y-119836380D02*
X162158571Y-119860190D01*
X162134761Y-119907809D01*
X162110952Y-119931619D01*
X162372857Y-119669714D02*
X162753809Y-119669714D01*
X162563333Y-119860190D02*
X162563333Y-119479238D01*
X162944285Y-120050666D02*
X162968095Y-120026857D01*
X163015714Y-119955428D01*
X163039523Y-119907809D01*
X163063333Y-119836380D01*
X163087142Y-119717333D01*
X163087142Y-119622095D01*
X163063333Y-119503047D01*
X163039523Y-119431619D01*
X163015714Y-119384000D01*
X162968095Y-119312571D01*
X162944285Y-119288761D01*
D11*
X185000000Y-105000000D03*
X213000000Y-105000000D03*
X213000000Y-85000000D03*
X185000000Y-85000000D03*
D12*
X136652000Y-104314000D03*
X136652000Y-103314000D03*
X136652000Y-102314000D03*
X136652000Y-101314000D03*
X136652000Y-100314000D03*
D13*
X136652000Y-99314000D03*
D14*
X172212000Y-70358000D03*
X172212000Y-75438000D03*
X141732000Y-80518000D03*
X141732000Y-65278000D03*
D15*
X148844000Y-86360000D03*
X151384000Y-86360000D03*
X153924000Y-86360000D03*
X156464000Y-86360000D03*
X159004000Y-86360000D03*
X161544000Y-86360000D03*
X164084000Y-86360000D03*
X166624000Y-86360000D03*
X166624000Y-109220000D03*
X164084000Y-109220000D03*
X161544000Y-109220000D03*
X159004000Y-109220000D03*
X156464000Y-109220000D03*
X153924000Y-109220000D03*
D16*
X148844000Y-109220000D03*
D15*
X151384000Y-109220000D03*
D17*
X179102000Y-73540000D03*
X181102000Y-66040000D03*
D18*
X136652000Y-109982000D03*
D19*
X136652000Y-115062000D03*
D18*
X167386000Y-115062000D03*
D19*
X172466000Y-115062000D03*
D14*
X192278000Y-76708000D03*
X187198000Y-76708000D03*
X162052000Y-116332000D03*
X156972000Y-116332000D03*
X151892000Y-116332000D03*
X142240000Y-115316000D03*
X147320000Y-115316000D03*
X178308000Y-116078000D03*
X183388000Y-116078000D03*
X204724000Y-116586000D03*
X199644000Y-116586000D03*
X194564000Y-116586000D03*
X200152000Y-76200000D03*
X205232000Y-76200000D03*
X213614000Y-76962000D03*
X218694000Y-76962000D03*
X185928000Y-70866000D03*
X185928000Y-65786000D03*
D20*
X133350000Y-70718000D03*
X133350000Y-93218000D03*
X213762000Y-68326000D03*
X191262000Y-68326000D03*
D21*
X131826000Y-100798000D03*
D22*
X131826000Y-98298000D03*
D21*
X132334000Y-104942000D03*
D22*
X132334000Y-107442000D03*
D23*
X156972000Y-113325000D03*
X156972000Y-111293000D03*
X166624000Y-117348000D03*
X163576000Y-118364000D03*
X135890000Y-108230051D03*
X139192000Y-103886000D03*
X160020000Y-113792000D03*
X151638000Y-111292990D03*
X169418000Y-83820000D03*
X160020000Y-83820000D03*
D24*
X156972000Y-113325000D02*
X156972000Y-111506000D01*
X156972000Y-111506000D02*
X156972000Y-111293000D01*
X166624000Y-117348000D02*
X164592000Y-117348000D01*
X164592000Y-117348000D02*
X163576000Y-118364000D01*
X136289999Y-107830052D02*
X136289999Y-106788001D01*
X135890000Y-108230051D02*
X136289999Y-107830052D01*
X136289999Y-106788001D02*
X139192000Y-103886000D01*
X154645010Y-114300000D02*
X151638000Y-111292990D01*
X159512000Y-114300000D02*
X154645010Y-114300000D01*
X160020000Y-113792000D02*
X159512000Y-114300000D01*
X169418000Y-83820000D02*
X160274000Y-83820000D01*
X160274000Y-83820000D02*
X160020000Y-83820000D01*
M02*
