G04 #@! TF.GenerationSoftware,KiCad,Pcbnew,5.1.5+dfsg1-2build2*
G04 #@! TF.CreationDate,2020-05-08T19:42:09+02:00*
G04 #@! TF.ProjectId,sm,736d2e6b-6963-4616-945f-706362585858,rev?*
G04 #@! TF.SameCoordinates,Original*
G04 #@! TF.FileFunction,Legend,Top*
G04 #@! TF.FilePolarity,Positive*
%FSLAX46Y46*%
G04 Gerber Fmt 4.6, Leading zero omitted, Abs format (unit mm)*
G04 Created by KiCad (PCBNEW 5.1.5+dfsg1-2build2) date 2020-05-08 19:42:09*
%MOMM*%
%LPD*%
G04 APERTURE LIST*
%ADD10C,0.120000*%
%ADD11C,0.150000*%
%ADD12C,0.075000*%
G04 APERTURE END LIST*
D10*
X135957000Y-98629000D02*
X136652000Y-98629000D01*
X135957000Y-99314000D02*
X135957000Y-98629000D01*
X137260276Y-99999000D02*
X137347000Y-99999000D01*
X135957000Y-99999000D02*
X136043724Y-99999000D01*
X137347000Y-99999000D02*
X137347000Y-104874000D01*
X135957000Y-99999000D02*
X135957000Y-104874000D01*
X137046493Y-104874000D02*
X137347000Y-104874000D01*
X135957000Y-104874000D02*
X136257507Y-104874000D01*
X139192000Y-83058000D02*
X139192000Y-72898000D01*
X174752000Y-83058000D02*
X139192000Y-83058000D01*
X174752000Y-62738000D02*
X174752000Y-83058000D01*
X139192000Y-62738000D02*
X174752000Y-62738000D01*
X139192000Y-72898000D02*
X139192000Y-62738000D01*
X140504000Y-86990000D02*
G75*
G02X142634000Y-84860000I2130000J0D01*
G01*
X142634000Y-110720000D02*
G75*
G02X140504000Y-108590000I0J2130000D01*
G01*
X168064000Y-108180000D02*
X174964000Y-108180000D01*
X168064000Y-110720000D02*
X168064000Y-108180000D01*
D11*
G36*
X148209000Y-111760000D02*
G01*
X149479000Y-111760000D01*
X148844000Y-111125000D01*
X148209000Y-111760000D01*
G37*
X148209000Y-111760000D02*
X149479000Y-111760000D01*
X148844000Y-111125000D01*
X148209000Y-111760000D01*
D10*
X140504000Y-86980000D02*
X140504000Y-108590000D01*
X174964000Y-84860000D02*
X142634000Y-84860000D01*
X168064000Y-110720000D02*
X142634000Y-110720000D01*
X174964000Y-108180000D02*
X174964000Y-84860000D01*
X175768000Y-78486000D02*
X175768000Y-114046000D01*
X222758000Y-78486000D02*
X175768000Y-78486000D01*
X222758000Y-114046000D02*
X222758000Y-78486000D01*
X175768000Y-114046000D02*
X222758000Y-114046000D01*
X218447050Y-85266000D02*
G75*
G03X218447050Y-85266000I-4579050J0D01*
G01*
X218447050Y-107266000D02*
G75*
G03X218447050Y-107266000I-4579050J0D01*
G01*
X189237050Y-107266000D02*
G75*
G03X189237050Y-107266000I-4579050J0D01*
G01*
X189247050Y-85266000D02*
G75*
G03X189247050Y-85266000I-4579050J0D01*
G01*
D11*
X182452000Y-62040000D02*
X177752000Y-62040000D01*
X182452000Y-77540000D02*
X177752000Y-77540000D01*
X182452000Y-62040000D02*
X182452000Y-77540000D01*
X177752000Y-62040000D02*
X177752000Y-77540000D01*
D10*
X137572000Y-114442000D02*
X137572000Y-110602000D01*
X135732000Y-114442000D02*
X135732000Y-110602000D01*
X171846000Y-114142000D02*
X168006000Y-114142000D01*
X171846000Y-115982000D02*
X168006000Y-115982000D01*
X194818000Y-77978000D02*
X184658000Y-77978000D01*
X194818000Y-75438000D02*
X194818000Y-77978000D01*
X184658000Y-75438000D02*
X194818000Y-75438000D01*
X184658000Y-77978000D02*
X184658000Y-75438000D01*
X163322000Y-115062000D02*
X150622000Y-115062000D01*
X163322000Y-117602000D02*
X163322000Y-115062000D01*
X150622000Y-117602000D02*
X163322000Y-117602000D01*
X150622000Y-115062000D02*
X150622000Y-117602000D01*
X139700000Y-114046000D02*
X149860000Y-114046000D01*
X139700000Y-116586000D02*
X139700000Y-114046000D01*
X149860000Y-116586000D02*
X139700000Y-116586000D01*
X149860000Y-114046000D02*
X149860000Y-116586000D01*
X175768000Y-114808000D02*
X185928000Y-114808000D01*
X175768000Y-117348000D02*
X175768000Y-114808000D01*
X185928000Y-117348000D02*
X175768000Y-117348000D01*
X185928000Y-114808000D02*
X185928000Y-117348000D01*
X205994000Y-115316000D02*
X193294000Y-115316000D01*
X205994000Y-117856000D02*
X205994000Y-115316000D01*
X193294000Y-117856000D02*
X205994000Y-117856000D01*
X193294000Y-115316000D02*
X193294000Y-117856000D01*
X197612000Y-74930000D02*
X207772000Y-74930000D01*
X197612000Y-77470000D02*
X197612000Y-74930000D01*
X207772000Y-77470000D02*
X197612000Y-77470000D01*
X207772000Y-74930000D02*
X207772000Y-77470000D01*
X211074000Y-75692000D02*
X221234000Y-75692000D01*
X211074000Y-78232000D02*
X211074000Y-75692000D01*
X221234000Y-78232000D02*
X211074000Y-78232000D01*
X221234000Y-75692000D02*
X221234000Y-78232000D01*
X184658000Y-73406000D02*
X184658000Y-63246000D01*
X187198000Y-73406000D02*
X184658000Y-73406000D01*
X187198000Y-63246000D02*
X187198000Y-73406000D01*
X184658000Y-63246000D02*
X187198000Y-63246000D01*
X138260000Y-93328000D02*
X135100000Y-93328000D01*
X138260000Y-93328000D02*
X138260000Y-70608000D01*
X128440000Y-93328000D02*
X128440000Y-70608000D01*
X131600000Y-93328000D02*
X128440000Y-93328000D01*
X131600000Y-70608000D02*
X128440000Y-70608000D01*
X138260000Y-70608000D02*
X135100000Y-70608000D01*
X191152000Y-73236000D02*
X191152000Y-70076000D01*
X191152000Y-73236000D02*
X213872000Y-73236000D01*
X191152000Y-63416000D02*
X213872000Y-63416000D01*
X191152000Y-66576000D02*
X191152000Y-63416000D01*
X213872000Y-66576000D02*
X213872000Y-63416000D01*
X213872000Y-73236000D02*
X213872000Y-70076000D01*
X133551000Y-96993225D02*
X133051000Y-96993225D01*
X133301000Y-96743225D02*
X133301000Y-97243225D01*
X132110000Y-102149000D02*
X131542000Y-102149000D01*
X132344000Y-102109000D02*
X131308000Y-102109000D01*
X132503000Y-102069000D02*
X131149000Y-102069000D01*
X132631000Y-102029000D02*
X131021000Y-102029000D01*
X132741000Y-101989000D02*
X130911000Y-101989000D01*
X132837000Y-101949000D02*
X130815000Y-101949000D01*
X132924000Y-101909000D02*
X130728000Y-101909000D01*
X133004000Y-101869000D02*
X130648000Y-101869000D01*
X130786000Y-101829000D02*
X130575000Y-101829000D01*
X133077000Y-101829000D02*
X132866000Y-101829000D01*
X130786000Y-101789000D02*
X130507000Y-101789000D01*
X133145000Y-101789000D02*
X132866000Y-101789000D01*
X130786000Y-101749000D02*
X130443000Y-101749000D01*
X133209000Y-101749000D02*
X132866000Y-101749000D01*
X130786000Y-101709000D02*
X130383000Y-101709000D01*
X133269000Y-101709000D02*
X132866000Y-101709000D01*
X130786000Y-101669000D02*
X130326000Y-101669000D01*
X133326000Y-101669000D02*
X132866000Y-101669000D01*
X130786000Y-101629000D02*
X130272000Y-101629000D01*
X133380000Y-101629000D02*
X132866000Y-101629000D01*
X130786000Y-101589000D02*
X130221000Y-101589000D01*
X133431000Y-101589000D02*
X132866000Y-101589000D01*
X130786000Y-101549000D02*
X130173000Y-101549000D01*
X133479000Y-101549000D02*
X132866000Y-101549000D01*
X130786000Y-101509000D02*
X130127000Y-101509000D01*
X133525000Y-101509000D02*
X132866000Y-101509000D01*
X130786000Y-101469000D02*
X130083000Y-101469000D01*
X133569000Y-101469000D02*
X132866000Y-101469000D01*
X130786000Y-101429000D02*
X130041000Y-101429000D01*
X133611000Y-101429000D02*
X132866000Y-101429000D01*
X130786000Y-101389000D02*
X130000000Y-101389000D01*
X133652000Y-101389000D02*
X132866000Y-101389000D01*
X130786000Y-101349000D02*
X129962000Y-101349000D01*
X133690000Y-101349000D02*
X132866000Y-101349000D01*
X130786000Y-101309000D02*
X129925000Y-101309000D01*
X133727000Y-101309000D02*
X132866000Y-101309000D01*
X130786000Y-101269000D02*
X129889000Y-101269000D01*
X133763000Y-101269000D02*
X132866000Y-101269000D01*
X130786000Y-101229000D02*
X129855000Y-101229000D01*
X133797000Y-101229000D02*
X132866000Y-101229000D01*
X130786000Y-101189000D02*
X129822000Y-101189000D01*
X133830000Y-101189000D02*
X132866000Y-101189000D01*
X130786000Y-101149000D02*
X129791000Y-101149000D01*
X133861000Y-101149000D02*
X132866000Y-101149000D01*
X130786000Y-101109000D02*
X129761000Y-101109000D01*
X133891000Y-101109000D02*
X132866000Y-101109000D01*
X130786000Y-101069000D02*
X129731000Y-101069000D01*
X133921000Y-101069000D02*
X132866000Y-101069000D01*
X130786000Y-101029000D02*
X129704000Y-101029000D01*
X133948000Y-101029000D02*
X132866000Y-101029000D01*
X130786000Y-100989000D02*
X129677000Y-100989000D01*
X133975000Y-100989000D02*
X132866000Y-100989000D01*
X130786000Y-100949000D02*
X129651000Y-100949000D01*
X134001000Y-100949000D02*
X132866000Y-100949000D01*
X130786000Y-100909000D02*
X129626000Y-100909000D01*
X134026000Y-100909000D02*
X132866000Y-100909000D01*
X130786000Y-100869000D02*
X129602000Y-100869000D01*
X134050000Y-100869000D02*
X132866000Y-100869000D01*
X130786000Y-100829000D02*
X129579000Y-100829000D01*
X134073000Y-100829000D02*
X132866000Y-100829000D01*
X130786000Y-100789000D02*
X129558000Y-100789000D01*
X134094000Y-100789000D02*
X132866000Y-100789000D01*
X130786000Y-100749000D02*
X129536000Y-100749000D01*
X134116000Y-100749000D02*
X132866000Y-100749000D01*
X130786000Y-100709000D02*
X129516000Y-100709000D01*
X134136000Y-100709000D02*
X132866000Y-100709000D01*
X130786000Y-100669000D02*
X129497000Y-100669000D01*
X134155000Y-100669000D02*
X132866000Y-100669000D01*
X130786000Y-100629000D02*
X129478000Y-100629000D01*
X134174000Y-100629000D02*
X132866000Y-100629000D01*
X130786000Y-100589000D02*
X129461000Y-100589000D01*
X134191000Y-100589000D02*
X132866000Y-100589000D01*
X130786000Y-100549000D02*
X129444000Y-100549000D01*
X134208000Y-100549000D02*
X132866000Y-100549000D01*
X130786000Y-100509000D02*
X129428000Y-100509000D01*
X134224000Y-100509000D02*
X132866000Y-100509000D01*
X130786000Y-100469000D02*
X129412000Y-100469000D01*
X134240000Y-100469000D02*
X132866000Y-100469000D01*
X130786000Y-100429000D02*
X129398000Y-100429000D01*
X134254000Y-100429000D02*
X132866000Y-100429000D01*
X130786000Y-100389000D02*
X129384000Y-100389000D01*
X134268000Y-100389000D02*
X132866000Y-100389000D01*
X130786000Y-100349000D02*
X129371000Y-100349000D01*
X134281000Y-100349000D02*
X132866000Y-100349000D01*
X130786000Y-100309000D02*
X129358000Y-100309000D01*
X134294000Y-100309000D02*
X132866000Y-100309000D01*
X130786000Y-100269000D02*
X129346000Y-100269000D01*
X134306000Y-100269000D02*
X132866000Y-100269000D01*
X130786000Y-100228000D02*
X129335000Y-100228000D01*
X134317000Y-100228000D02*
X132866000Y-100228000D01*
X130786000Y-100188000D02*
X129325000Y-100188000D01*
X134327000Y-100188000D02*
X132866000Y-100188000D01*
X130786000Y-100148000D02*
X129315000Y-100148000D01*
X134337000Y-100148000D02*
X132866000Y-100148000D01*
X130786000Y-100108000D02*
X129306000Y-100108000D01*
X134346000Y-100108000D02*
X132866000Y-100108000D01*
X130786000Y-100068000D02*
X129298000Y-100068000D01*
X134354000Y-100068000D02*
X132866000Y-100068000D01*
X130786000Y-100028000D02*
X129290000Y-100028000D01*
X134362000Y-100028000D02*
X132866000Y-100028000D01*
X130786000Y-99988000D02*
X129283000Y-99988000D01*
X134369000Y-99988000D02*
X132866000Y-99988000D01*
X130786000Y-99948000D02*
X129276000Y-99948000D01*
X134376000Y-99948000D02*
X132866000Y-99948000D01*
X130786000Y-99908000D02*
X129270000Y-99908000D01*
X134382000Y-99908000D02*
X132866000Y-99908000D01*
X130786000Y-99868000D02*
X129265000Y-99868000D01*
X134387000Y-99868000D02*
X132866000Y-99868000D01*
X130786000Y-99828000D02*
X129261000Y-99828000D01*
X134391000Y-99828000D02*
X132866000Y-99828000D01*
X130786000Y-99788000D02*
X129257000Y-99788000D01*
X134395000Y-99788000D02*
X132866000Y-99788000D01*
X134399000Y-99748000D02*
X129253000Y-99748000D01*
X134402000Y-99708000D02*
X129250000Y-99708000D01*
X134404000Y-99668000D02*
X129248000Y-99668000D01*
X134405000Y-99628000D02*
X129247000Y-99628000D01*
X134406000Y-99588000D02*
X129246000Y-99588000D01*
X134406000Y-99548000D02*
X129246000Y-99548000D01*
X134446000Y-99548000D02*
G75*
G03X134446000Y-99548000I-2620000J0D01*
G01*
X130609000Y-108746775D02*
X131109000Y-108746775D01*
X130859000Y-108996775D02*
X130859000Y-108496775D01*
X132050000Y-103591000D02*
X132618000Y-103591000D01*
X131816000Y-103631000D02*
X132852000Y-103631000D01*
X131657000Y-103671000D02*
X133011000Y-103671000D01*
X131529000Y-103711000D02*
X133139000Y-103711000D01*
X131419000Y-103751000D02*
X133249000Y-103751000D01*
X131323000Y-103791000D02*
X133345000Y-103791000D01*
X131236000Y-103831000D02*
X133432000Y-103831000D01*
X131156000Y-103871000D02*
X133512000Y-103871000D01*
X133374000Y-103911000D02*
X133585000Y-103911000D01*
X131083000Y-103911000D02*
X131294000Y-103911000D01*
X133374000Y-103951000D02*
X133653000Y-103951000D01*
X131015000Y-103951000D02*
X131294000Y-103951000D01*
X133374000Y-103991000D02*
X133717000Y-103991000D01*
X130951000Y-103991000D02*
X131294000Y-103991000D01*
X133374000Y-104031000D02*
X133777000Y-104031000D01*
X130891000Y-104031000D02*
X131294000Y-104031000D01*
X133374000Y-104071000D02*
X133834000Y-104071000D01*
X130834000Y-104071000D02*
X131294000Y-104071000D01*
X133374000Y-104111000D02*
X133888000Y-104111000D01*
X130780000Y-104111000D02*
X131294000Y-104111000D01*
X133374000Y-104151000D02*
X133939000Y-104151000D01*
X130729000Y-104151000D02*
X131294000Y-104151000D01*
X133374000Y-104191000D02*
X133987000Y-104191000D01*
X130681000Y-104191000D02*
X131294000Y-104191000D01*
X133374000Y-104231000D02*
X134033000Y-104231000D01*
X130635000Y-104231000D02*
X131294000Y-104231000D01*
X133374000Y-104271000D02*
X134077000Y-104271000D01*
X130591000Y-104271000D02*
X131294000Y-104271000D01*
X133374000Y-104311000D02*
X134119000Y-104311000D01*
X130549000Y-104311000D02*
X131294000Y-104311000D01*
X133374000Y-104351000D02*
X134160000Y-104351000D01*
X130508000Y-104351000D02*
X131294000Y-104351000D01*
X133374000Y-104391000D02*
X134198000Y-104391000D01*
X130470000Y-104391000D02*
X131294000Y-104391000D01*
X133374000Y-104431000D02*
X134235000Y-104431000D01*
X130433000Y-104431000D02*
X131294000Y-104431000D01*
X133374000Y-104471000D02*
X134271000Y-104471000D01*
X130397000Y-104471000D02*
X131294000Y-104471000D01*
X133374000Y-104511000D02*
X134305000Y-104511000D01*
X130363000Y-104511000D02*
X131294000Y-104511000D01*
X133374000Y-104551000D02*
X134338000Y-104551000D01*
X130330000Y-104551000D02*
X131294000Y-104551000D01*
X133374000Y-104591000D02*
X134369000Y-104591000D01*
X130299000Y-104591000D02*
X131294000Y-104591000D01*
X133374000Y-104631000D02*
X134399000Y-104631000D01*
X130269000Y-104631000D02*
X131294000Y-104631000D01*
X133374000Y-104671000D02*
X134429000Y-104671000D01*
X130239000Y-104671000D02*
X131294000Y-104671000D01*
X133374000Y-104711000D02*
X134456000Y-104711000D01*
X130212000Y-104711000D02*
X131294000Y-104711000D01*
X133374000Y-104751000D02*
X134483000Y-104751000D01*
X130185000Y-104751000D02*
X131294000Y-104751000D01*
X133374000Y-104791000D02*
X134509000Y-104791000D01*
X130159000Y-104791000D02*
X131294000Y-104791000D01*
X133374000Y-104831000D02*
X134534000Y-104831000D01*
X130134000Y-104831000D02*
X131294000Y-104831000D01*
X133374000Y-104871000D02*
X134558000Y-104871000D01*
X130110000Y-104871000D02*
X131294000Y-104871000D01*
X133374000Y-104911000D02*
X134581000Y-104911000D01*
X130087000Y-104911000D02*
X131294000Y-104911000D01*
X133374000Y-104951000D02*
X134602000Y-104951000D01*
X130066000Y-104951000D02*
X131294000Y-104951000D01*
X133374000Y-104991000D02*
X134624000Y-104991000D01*
X130044000Y-104991000D02*
X131294000Y-104991000D01*
X133374000Y-105031000D02*
X134644000Y-105031000D01*
X130024000Y-105031000D02*
X131294000Y-105031000D01*
X133374000Y-105071000D02*
X134663000Y-105071000D01*
X130005000Y-105071000D02*
X131294000Y-105071000D01*
X133374000Y-105111000D02*
X134682000Y-105111000D01*
X129986000Y-105111000D02*
X131294000Y-105111000D01*
X133374000Y-105151000D02*
X134699000Y-105151000D01*
X129969000Y-105151000D02*
X131294000Y-105151000D01*
X133374000Y-105191000D02*
X134716000Y-105191000D01*
X129952000Y-105191000D02*
X131294000Y-105191000D01*
X133374000Y-105231000D02*
X134732000Y-105231000D01*
X129936000Y-105231000D02*
X131294000Y-105231000D01*
X133374000Y-105271000D02*
X134748000Y-105271000D01*
X129920000Y-105271000D02*
X131294000Y-105271000D01*
X133374000Y-105311000D02*
X134762000Y-105311000D01*
X129906000Y-105311000D02*
X131294000Y-105311000D01*
X133374000Y-105351000D02*
X134776000Y-105351000D01*
X129892000Y-105351000D02*
X131294000Y-105351000D01*
X133374000Y-105391000D02*
X134789000Y-105391000D01*
X129879000Y-105391000D02*
X131294000Y-105391000D01*
X133374000Y-105431000D02*
X134802000Y-105431000D01*
X129866000Y-105431000D02*
X131294000Y-105431000D01*
X133374000Y-105471000D02*
X134814000Y-105471000D01*
X129854000Y-105471000D02*
X131294000Y-105471000D01*
X133374000Y-105512000D02*
X134825000Y-105512000D01*
X129843000Y-105512000D02*
X131294000Y-105512000D01*
X133374000Y-105552000D02*
X134835000Y-105552000D01*
X129833000Y-105552000D02*
X131294000Y-105552000D01*
X133374000Y-105592000D02*
X134845000Y-105592000D01*
X129823000Y-105592000D02*
X131294000Y-105592000D01*
X133374000Y-105632000D02*
X134854000Y-105632000D01*
X129814000Y-105632000D02*
X131294000Y-105632000D01*
X133374000Y-105672000D02*
X134862000Y-105672000D01*
X129806000Y-105672000D02*
X131294000Y-105672000D01*
X133374000Y-105712000D02*
X134870000Y-105712000D01*
X129798000Y-105712000D02*
X131294000Y-105712000D01*
X133374000Y-105752000D02*
X134877000Y-105752000D01*
X129791000Y-105752000D02*
X131294000Y-105752000D01*
X133374000Y-105792000D02*
X134884000Y-105792000D01*
X129784000Y-105792000D02*
X131294000Y-105792000D01*
X133374000Y-105832000D02*
X134890000Y-105832000D01*
X129778000Y-105832000D02*
X131294000Y-105832000D01*
X133374000Y-105872000D02*
X134895000Y-105872000D01*
X129773000Y-105872000D02*
X131294000Y-105872000D01*
X133374000Y-105912000D02*
X134899000Y-105912000D01*
X129769000Y-105912000D02*
X131294000Y-105912000D01*
X133374000Y-105952000D02*
X134903000Y-105952000D01*
X129765000Y-105952000D02*
X131294000Y-105952000D01*
X129761000Y-105992000D02*
X134907000Y-105992000D01*
X129758000Y-106032000D02*
X134910000Y-106032000D01*
X129756000Y-106072000D02*
X134912000Y-106072000D01*
X129755000Y-106112000D02*
X134913000Y-106112000D01*
X129754000Y-106152000D02*
X134914000Y-106152000D01*
X129754000Y-106192000D02*
X134914000Y-106192000D01*
X134954000Y-106192000D02*
G75*
G03X134954000Y-106192000I-2620000J0D01*
G01*
D12*
X185135714Y-101418571D02*
X184835714Y-101418571D01*
X184978571Y-101418571D02*
X184978571Y-101247142D01*
X185135714Y-101247142D02*
X184835714Y-101247142D01*
X184964285Y-101061428D02*
X184950000Y-101090000D01*
X184935714Y-101104285D01*
X184907142Y-101118571D01*
X184892857Y-101118571D01*
X184864285Y-101104285D01*
X184850000Y-101090000D01*
X184835714Y-101061428D01*
X184835714Y-101004285D01*
X184850000Y-100975714D01*
X184864285Y-100961428D01*
X184892857Y-100947142D01*
X184907142Y-100947142D01*
X184935714Y-100961428D01*
X184950000Y-100975714D01*
X184964285Y-101004285D01*
X184964285Y-101061428D01*
X184978571Y-101090000D01*
X184992857Y-101104285D01*
X185021428Y-101118571D01*
X185078571Y-101118571D01*
X185107142Y-101104285D01*
X185121428Y-101090000D01*
X185135714Y-101061428D01*
X185135714Y-101004285D01*
X185121428Y-100975714D01*
X185107142Y-100961428D01*
X185078571Y-100947142D01*
X185021428Y-100947142D01*
X184992857Y-100961428D01*
X184978571Y-100975714D01*
X184964285Y-101004285D01*
X212771428Y-101579714D02*
X212771428Y-101279714D01*
X212771428Y-101422571D02*
X212942857Y-101422571D01*
X212942857Y-101579714D02*
X212942857Y-101279714D01*
X213057142Y-101279714D02*
X213257142Y-101279714D01*
X213128571Y-101579714D01*
X213135714Y-81672571D02*
X212835714Y-81672571D01*
X212978571Y-81672571D02*
X212978571Y-81501142D01*
X213135714Y-81501142D02*
X212835714Y-81501142D01*
X212835714Y-81229714D02*
X212835714Y-81286857D01*
X212850000Y-81315428D01*
X212864285Y-81329714D01*
X212907142Y-81358285D01*
X212964285Y-81372571D01*
X213078571Y-81372571D01*
X213107142Y-81358285D01*
X213121428Y-81344000D01*
X213135714Y-81315428D01*
X213135714Y-81258285D01*
X213121428Y-81229714D01*
X213107142Y-81215428D01*
X213078571Y-81201142D01*
X213007142Y-81201142D01*
X212978571Y-81215428D01*
X212964285Y-81229714D01*
X212950000Y-81258285D01*
X212950000Y-81315428D01*
X212964285Y-81344000D01*
X212978571Y-81358285D01*
X213007142Y-81372571D01*
X184771428Y-81579714D02*
X184771428Y-81279714D01*
X184771428Y-81422571D02*
X184942857Y-81422571D01*
X184942857Y-81579714D02*
X184942857Y-81279714D01*
X185228571Y-81279714D02*
X185085714Y-81279714D01*
X185071428Y-81422571D01*
X185085714Y-81408285D01*
X185114285Y-81394000D01*
X185185714Y-81394000D01*
X185214285Y-81408285D01*
X185228571Y-81422571D01*
X185242857Y-81451142D01*
X185242857Y-81522571D01*
X185228571Y-81551142D01*
X185214285Y-81565428D01*
X185185714Y-81579714D01*
X185114285Y-81579714D01*
X185085714Y-81565428D01*
X185071428Y-81551142D01*
X137568000Y-97879714D02*
X137568000Y-98094000D01*
X137553714Y-98136857D01*
X137525142Y-98165428D01*
X137482285Y-98179714D01*
X137453714Y-98179714D01*
X137725142Y-98179714D02*
X137782285Y-98179714D01*
X137810857Y-98165428D01*
X137825142Y-98151142D01*
X137853714Y-98108285D01*
X137868000Y-98051142D01*
X137868000Y-97936857D01*
X137853714Y-97908285D01*
X137839428Y-97894000D01*
X137810857Y-97879714D01*
X137753714Y-97879714D01*
X137725142Y-97894000D01*
X137710857Y-97908285D01*
X137696571Y-97936857D01*
X137696571Y-98008285D01*
X137710857Y-98036857D01*
X137725142Y-98051142D01*
X137753714Y-98065428D01*
X137810857Y-98065428D01*
X137839428Y-98051142D01*
X137853714Y-98036857D01*
X137868000Y-98008285D01*
D11*
X156210095Y-86320380D02*
X156210095Y-87129904D01*
X156257714Y-87225142D01*
X156305333Y-87272761D01*
X156400571Y-87320380D01*
X156591047Y-87320380D01*
X156686285Y-87272761D01*
X156733904Y-87225142D01*
X156781523Y-87129904D01*
X156781523Y-86320380D01*
X157162476Y-86320380D02*
X157781523Y-86320380D01*
X157448190Y-86701333D01*
X157591047Y-86701333D01*
X157686285Y-86748952D01*
X157733904Y-86796571D01*
X157781523Y-86891809D01*
X157781523Y-87129904D01*
X157733904Y-87225142D01*
X157686285Y-87272761D01*
X157591047Y-87320380D01*
X157305333Y-87320380D01*
X157210095Y-87272761D01*
X157162476Y-87225142D01*
X168933904Y-75604666D02*
X169410095Y-75604666D01*
X168838666Y-75890380D02*
X169172000Y-74890380D01*
X169505333Y-75890380D01*
X170410095Y-75795142D02*
X170362476Y-75842761D01*
X170219619Y-75890380D01*
X170124380Y-75890380D01*
X169981523Y-75842761D01*
X169886285Y-75747523D01*
X169838666Y-75652285D01*
X169791047Y-75461809D01*
X169791047Y-75318952D01*
X169838666Y-75128476D01*
X169886285Y-75033238D01*
X169981523Y-74938000D01*
X170124380Y-74890380D01*
X170219619Y-74890380D01*
X170362476Y-74938000D01*
X170410095Y-74985619D01*
X168933904Y-70524666D02*
X169410095Y-70524666D01*
X168838666Y-70810380D02*
X169172000Y-69810380D01*
X169505333Y-70810380D01*
X170410095Y-70715142D02*
X170362476Y-70762761D01*
X170219619Y-70810380D01*
X170124380Y-70810380D01*
X169981523Y-70762761D01*
X169886285Y-70667523D01*
X169838666Y-70572285D01*
X169791047Y-70381809D01*
X169791047Y-70238952D01*
X169838666Y-70048476D01*
X169886285Y-69953238D01*
X169981523Y-69858000D01*
X170124380Y-69810380D01*
X170219619Y-69810380D01*
X170362476Y-69858000D01*
X170410095Y-69905619D01*
X143319619Y-78954380D02*
X143652952Y-79954380D01*
X143986285Y-78954380D01*
X144319619Y-79573428D02*
X145081523Y-79573428D01*
X143319619Y-64730380D02*
X143652952Y-65730380D01*
X143986285Y-64730380D01*
X144319619Y-65349428D02*
X145081523Y-65349428D01*
X144700571Y-65730380D02*
X144700571Y-64968476D01*
D12*
X155537714Y-98272571D02*
X155780571Y-98272571D01*
X155809142Y-98258285D01*
X155823428Y-98244000D01*
X155837714Y-98215428D01*
X155837714Y-98158285D01*
X155823428Y-98129714D01*
X155809142Y-98115428D01*
X155780571Y-98101142D01*
X155537714Y-98101142D01*
X155566285Y-97972571D02*
X155552000Y-97958285D01*
X155537714Y-97929714D01*
X155537714Y-97858285D01*
X155552000Y-97829714D01*
X155566285Y-97815428D01*
X155594857Y-97801142D01*
X155623428Y-97801142D01*
X155666285Y-97815428D01*
X155837714Y-97986857D01*
X155837714Y-97801142D01*
X226403714Y-96494571D02*
X226646571Y-96494571D01*
X226675142Y-96480285D01*
X226689428Y-96466000D01*
X226703714Y-96437428D01*
X226703714Y-96380285D01*
X226689428Y-96351714D01*
X226675142Y-96337428D01*
X226646571Y-96323142D01*
X226403714Y-96323142D01*
X226703714Y-96023142D02*
X226703714Y-96194571D01*
X226703714Y-96108857D02*
X226403714Y-96108857D01*
X226446571Y-96137428D01*
X226475142Y-96166000D01*
X226489428Y-96194571D01*
X176887714Y-69968571D02*
X176744857Y-70068571D01*
X176887714Y-70140000D02*
X176587714Y-70140000D01*
X176587714Y-70025714D01*
X176602000Y-69997142D01*
X176616285Y-69982857D01*
X176644857Y-69968571D01*
X176687714Y-69968571D01*
X176716285Y-69982857D01*
X176730571Y-69997142D01*
X176744857Y-70025714D01*
X176744857Y-70140000D01*
X176587714Y-69882857D02*
X176887714Y-69782857D01*
X176587714Y-69682857D01*
X176887714Y-69425714D02*
X176887714Y-69597142D01*
X176887714Y-69511428D02*
X176587714Y-69511428D01*
X176630571Y-69540000D01*
X176659142Y-69568571D01*
X176673428Y-69597142D01*
X136602000Y-112657714D02*
X136502000Y-112514857D01*
X136430571Y-112657714D02*
X136430571Y-112357714D01*
X136544857Y-112357714D01*
X136573428Y-112372000D01*
X136587714Y-112386285D01*
X136602000Y-112414857D01*
X136602000Y-112457714D01*
X136587714Y-112486285D01*
X136573428Y-112500571D01*
X136544857Y-112514857D01*
X136430571Y-112514857D01*
X136716285Y-112386285D02*
X136730571Y-112372000D01*
X136759142Y-112357714D01*
X136830571Y-112357714D01*
X136859142Y-112372000D01*
X136873428Y-112386285D01*
X136887714Y-112414857D01*
X136887714Y-112443428D01*
X136873428Y-112486285D01*
X136702000Y-112657714D01*
X136887714Y-112657714D01*
X170130000Y-115197714D02*
X170030000Y-115054857D01*
X169958571Y-115197714D02*
X169958571Y-114897714D01*
X170072857Y-114897714D01*
X170101428Y-114912000D01*
X170115714Y-114926285D01*
X170130000Y-114954857D01*
X170130000Y-114997714D01*
X170115714Y-115026285D01*
X170101428Y-115040571D01*
X170072857Y-115054857D01*
X169958571Y-115054857D01*
X170415714Y-115197714D02*
X170244285Y-115197714D01*
X170330000Y-115197714D02*
X170330000Y-114897714D01*
X170301428Y-114940571D01*
X170272857Y-114969142D01*
X170244285Y-114983428D01*
X189638000Y-76543714D02*
X189638000Y-76758000D01*
X189623714Y-76800857D01*
X189595142Y-76829428D01*
X189552285Y-76843714D01*
X189523714Y-76843714D01*
X189823714Y-76672285D02*
X189795142Y-76658000D01*
X189780857Y-76643714D01*
X189766571Y-76615142D01*
X189766571Y-76600857D01*
X189780857Y-76572285D01*
X189795142Y-76558000D01*
X189823714Y-76543714D01*
X189880857Y-76543714D01*
X189909428Y-76558000D01*
X189923714Y-76572285D01*
X189938000Y-76600857D01*
X189938000Y-76615142D01*
X189923714Y-76643714D01*
X189909428Y-76658000D01*
X189880857Y-76672285D01*
X189823714Y-76672285D01*
X189795142Y-76686571D01*
X189780857Y-76700857D01*
X189766571Y-76729428D01*
X189766571Y-76786571D01*
X189780857Y-76815142D01*
X189795142Y-76829428D01*
X189823714Y-76843714D01*
X189880857Y-76843714D01*
X189909428Y-76829428D01*
X189923714Y-76815142D01*
X189938000Y-76786571D01*
X189938000Y-76729428D01*
X189923714Y-76700857D01*
X189909428Y-76686571D01*
X189880857Y-76672285D01*
X154586000Y-116167714D02*
X154586000Y-116382000D01*
X154571714Y-116424857D01*
X154543142Y-116453428D01*
X154500285Y-116467714D01*
X154471714Y-116467714D01*
X154700285Y-116167714D02*
X154900285Y-116167714D01*
X154771714Y-116467714D01*
X144680000Y-115151714D02*
X144680000Y-115366000D01*
X144665714Y-115408857D01*
X144637142Y-115437428D01*
X144594285Y-115451714D01*
X144565714Y-115451714D01*
X144951428Y-115151714D02*
X144894285Y-115151714D01*
X144865714Y-115166000D01*
X144851428Y-115180285D01*
X144822857Y-115223142D01*
X144808571Y-115280285D01*
X144808571Y-115394571D01*
X144822857Y-115423142D01*
X144837142Y-115437428D01*
X144865714Y-115451714D01*
X144922857Y-115451714D01*
X144951428Y-115437428D01*
X144965714Y-115423142D01*
X144980000Y-115394571D01*
X144980000Y-115323142D01*
X144965714Y-115294571D01*
X144951428Y-115280285D01*
X144922857Y-115266000D01*
X144865714Y-115266000D01*
X144837142Y-115280285D01*
X144822857Y-115294571D01*
X144808571Y-115323142D01*
X180240000Y-114135714D02*
X180240000Y-114350000D01*
X180225714Y-114392857D01*
X180197142Y-114421428D01*
X180154285Y-114435714D01*
X180125714Y-114435714D01*
X180525714Y-114135714D02*
X180382857Y-114135714D01*
X180368571Y-114278571D01*
X180382857Y-114264285D01*
X180411428Y-114250000D01*
X180482857Y-114250000D01*
X180511428Y-114264285D01*
X180525714Y-114278571D01*
X180540000Y-114307142D01*
X180540000Y-114378571D01*
X180525714Y-114407142D01*
X180511428Y-114421428D01*
X180482857Y-114435714D01*
X180411428Y-114435714D01*
X180382857Y-114421428D01*
X180368571Y-114407142D01*
X207418000Y-116675714D02*
X207418000Y-116890000D01*
X207403714Y-116932857D01*
X207375142Y-116961428D01*
X207332285Y-116975714D01*
X207303714Y-116975714D01*
X207689428Y-116775714D02*
X207689428Y-116975714D01*
X207618000Y-116661428D02*
X207546571Y-116875714D01*
X207732285Y-116875714D01*
X202592000Y-75527714D02*
X202592000Y-75742000D01*
X202577714Y-75784857D01*
X202549142Y-75813428D01*
X202506285Y-75827714D01*
X202477714Y-75827714D01*
X202706285Y-75527714D02*
X202892000Y-75527714D01*
X202792000Y-75642000D01*
X202834857Y-75642000D01*
X202863428Y-75656285D01*
X202877714Y-75670571D01*
X202892000Y-75699142D01*
X202892000Y-75770571D01*
X202877714Y-75799142D01*
X202863428Y-75813428D01*
X202834857Y-75827714D01*
X202749142Y-75827714D01*
X202720571Y-75813428D01*
X202706285Y-75799142D01*
X216054000Y-76797714D02*
X216054000Y-77012000D01*
X216039714Y-77054857D01*
X216011142Y-77083428D01*
X215968285Y-77097714D01*
X215939714Y-77097714D01*
X216182571Y-76826285D02*
X216196857Y-76812000D01*
X216225428Y-76797714D01*
X216296857Y-76797714D01*
X216325428Y-76812000D01*
X216339714Y-76826285D01*
X216354000Y-76854857D01*
X216354000Y-76883428D01*
X216339714Y-76926285D01*
X216168285Y-77097714D01*
X216354000Y-77097714D01*
X185574000Y-64097714D02*
X185574000Y-64312000D01*
X185559714Y-64354857D01*
X185531142Y-64383428D01*
X185488285Y-64397714D01*
X185459714Y-64397714D01*
X185874000Y-64397714D02*
X185702571Y-64397714D01*
X185788285Y-64397714D02*
X185788285Y-64097714D01*
X185759714Y-64140571D01*
X185731142Y-64169142D01*
X185702571Y-64183428D01*
X127328571Y-82068000D02*
X127328571Y-82168000D01*
X127485714Y-82168000D02*
X127185714Y-82168000D01*
X127185714Y-82025142D01*
X127214285Y-81925142D02*
X127200000Y-81910857D01*
X127185714Y-81882285D01*
X127185714Y-81810857D01*
X127200000Y-81782285D01*
X127214285Y-81768000D01*
X127242857Y-81753714D01*
X127271428Y-81753714D01*
X127314285Y-81768000D01*
X127485714Y-81939428D01*
X127485714Y-81753714D01*
X202412000Y-62304571D02*
X202312000Y-62304571D01*
X202312000Y-62461714D02*
X202312000Y-62161714D01*
X202454857Y-62161714D01*
X202726285Y-62461714D02*
X202554857Y-62461714D01*
X202640571Y-62461714D02*
X202640571Y-62161714D01*
X202612000Y-62204571D01*
X202583428Y-62233142D01*
X202554857Y-62247428D01*
X129139142Y-98094000D02*
X129153428Y-98108285D01*
X129167714Y-98151142D01*
X129167714Y-98179714D01*
X129153428Y-98222571D01*
X129124857Y-98251142D01*
X129096285Y-98265428D01*
X129039142Y-98279714D01*
X128996285Y-98279714D01*
X128939142Y-98265428D01*
X128910571Y-98251142D01*
X128882000Y-98222571D01*
X128867714Y-98179714D01*
X128867714Y-98151142D01*
X128882000Y-98108285D01*
X128896285Y-98094000D01*
X128867714Y-97994000D02*
X128867714Y-97808285D01*
X128982000Y-97908285D01*
X128982000Y-97865428D01*
X128996285Y-97836857D01*
X129010571Y-97822571D01*
X129039142Y-97808285D01*
X129110571Y-97808285D01*
X129139142Y-97822571D01*
X129153428Y-97836857D01*
X129167714Y-97865428D01*
X129167714Y-97951142D01*
X129153428Y-97979714D01*
X129139142Y-97994000D01*
X129393142Y-104444000D02*
X129407428Y-104458285D01*
X129421714Y-104501142D01*
X129421714Y-104529714D01*
X129407428Y-104572571D01*
X129378857Y-104601142D01*
X129350285Y-104615428D01*
X129293142Y-104629714D01*
X129250285Y-104629714D01*
X129193142Y-104615428D01*
X129164571Y-104601142D01*
X129136000Y-104572571D01*
X129121714Y-104529714D01*
X129121714Y-104501142D01*
X129136000Y-104458285D01*
X129150285Y-104444000D01*
X129421714Y-104158285D02*
X129421714Y-104329714D01*
X129421714Y-104244000D02*
X129121714Y-104244000D01*
X129164571Y-104272571D01*
X129193142Y-104301142D01*
X129207428Y-104329714D01*
X220771428Y-60335714D02*
X220771428Y-60035714D01*
X220771428Y-60178571D02*
X220942857Y-60178571D01*
X220942857Y-60335714D02*
X220942857Y-60035714D01*
X221214285Y-60135714D02*
X221214285Y-60335714D01*
X221142857Y-60021428D02*
X221071428Y-60235714D01*
X221257142Y-60235714D01*
X129771428Y-113335714D02*
X129771428Y-113035714D01*
X129771428Y-113178571D02*
X129942857Y-113178571D01*
X129942857Y-113335714D02*
X129942857Y-113035714D01*
X130057142Y-113035714D02*
X130242857Y-113035714D01*
X130142857Y-113150000D01*
X130185714Y-113150000D01*
X130214285Y-113164285D01*
X130228571Y-113178571D01*
X130242857Y-113207142D01*
X130242857Y-113278571D01*
X130228571Y-113307142D01*
X130214285Y-113321428D01*
X130185714Y-113335714D01*
X130100000Y-113335714D01*
X130071428Y-113321428D01*
X130057142Y-113307142D01*
X221025428Y-113071714D02*
X221025428Y-112771714D01*
X221025428Y-112914571D02*
X221196857Y-112914571D01*
X221196857Y-113071714D02*
X221196857Y-112771714D01*
X221325428Y-112800285D02*
X221339714Y-112786000D01*
X221368285Y-112771714D01*
X221439714Y-112771714D01*
X221468285Y-112786000D01*
X221482571Y-112800285D01*
X221496857Y-112828857D01*
X221496857Y-112857428D01*
X221482571Y-112900285D01*
X221311142Y-113071714D01*
X221496857Y-113071714D01*
X129771428Y-60335714D02*
X129771428Y-60035714D01*
X129771428Y-60178571D02*
X129942857Y-60178571D01*
X129942857Y-60335714D02*
X129942857Y-60035714D01*
X130242857Y-60335714D02*
X130071428Y-60335714D01*
X130157142Y-60335714D02*
X130157142Y-60035714D01*
X130128571Y-60078571D01*
X130100000Y-60107142D01*
X130071428Y-60121428D01*
M02*
