%TF.GenerationSoftware,KiCad,Pcbnew,5.1.7-a382d34a8~88~ubuntu20.04.1*%
%TF.CreationDate,2020-12-27T18:37:31+01:00*%
%TF.ProjectId,PhotoPlug,50686f74-6f50-46c7-9567-2e6b69636164,rev?*%
%TF.SameCoordinates,Original*%
%TF.FileFunction,Soldermask,Bot*%
%TF.FilePolarity,Negative*%
%FSLAX46Y46*%
G04 Gerber Fmt 4.6, Leading zero omitted, Abs format (unit mm)*
G04 Created by KiCad (PCBNEW 5.1.7-a382d34a8~88~ubuntu20.04.1) date 2020-12-27 18:37:31*
%MOMM*%
%LPD*%
G01*
G04 APERTURE LIST*
%ADD10C,3.000000*%
%ADD11O,0.850000X0.850000*%
%ADD12R,0.850000X0.850000*%
%ADD13C,3.500000*%
%ADD14C,1.800000*%
%ADD15O,1.400000X1.400000*%
%ADD16C,1.400000*%
%ADD17C,1.840000*%
%ADD18C,1.300000*%
%ADD19C,1.665000*%
%ADD20R,1.665000X1.665000*%
%ADD21C,2.780000*%
%ADD22C,1.600000*%
%ADD23R,1.600000X1.600000*%
G04 APERTURE END LIST*
D10*
%TO.C,U1*%
X124238000Y-141500000D03*
X128438000Y-141500000D03*
X133738000Y-112500000D03*
X118738000Y-112500000D03*
%TD*%
%TO.C,J3*%
X186690000Y-108966000D03*
X191690000Y-108966000D03*
%TD*%
D11*
%TO.C,J4*%
X150114000Y-108062000D03*
X150114000Y-109062000D03*
X150114000Y-110062000D03*
X150114000Y-111062000D03*
X150114000Y-112062000D03*
X150114000Y-113062000D03*
X150114000Y-114062000D03*
D12*
X150114000Y-115062000D03*
%TD*%
D13*
%TO.C,H4*%
X201168000Y-151130000D03*
%TD*%
%TO.C,H3*%
X201168000Y-99060000D03*
%TD*%
%TO.C,H2*%
X118618000Y-151384000D03*
%TD*%
%TO.C,H1*%
X119126000Y-99314000D03*
%TD*%
D14*
%TO.C,RV1*%
X142748000Y-109982000D03*
X144798000Y-102482000D03*
%TD*%
D15*
%TO.C,R3*%
X193040000Y-124968000D03*
D16*
X195580000Y-124968000D03*
%TD*%
D15*
%TO.C,R2*%
X192786000Y-120650000D03*
D16*
X195326000Y-120650000D03*
%TD*%
D15*
%TO.C,R1*%
X193548000Y-129540000D03*
D16*
X196088000Y-129540000D03*
%TD*%
D17*
%TO.C,K1*%
X145542000Y-135890000D03*
D18*
X139542000Y-133890000D03*
X151542000Y-133890000D03*
X139542000Y-121690000D03*
X151542000Y-121690000D03*
%TD*%
D11*
%TO.C,J8*%
X201422000Y-119142000D03*
D12*
X201422000Y-120142000D03*
%TD*%
D11*
%TO.C,J7*%
X200914000Y-129302000D03*
D12*
X200914000Y-130302000D03*
%TD*%
D11*
%TO.C,J6*%
X201168000Y-125460000D03*
D12*
X201168000Y-124460000D03*
%TD*%
D10*
%TO.C,J5*%
X130810000Y-105410000D03*
X130810000Y-100410000D03*
%TD*%
%TO.C,J2*%
X176022000Y-147066000D03*
X181022000Y-147066000D03*
X186022000Y-147066000D03*
%TD*%
%TO.C,J1*%
X196596000Y-138684000D03*
X201596000Y-138684000D03*
%TD*%
D19*
%TO.C,IC1*%
X156718000Y-120396000D03*
X156718000Y-117856000D03*
X156718000Y-115316000D03*
X156718000Y-112776000D03*
X156718000Y-110236000D03*
X156718000Y-107696000D03*
X156718000Y-105156000D03*
D20*
X156718000Y-102616000D03*
X179578000Y-102616000D03*
D19*
X179578000Y-105156000D03*
X179578000Y-107696000D03*
X179578000Y-110236000D03*
X179578000Y-112776000D03*
X179578000Y-115316000D03*
X179578000Y-117856000D03*
X179578000Y-120396000D03*
%TD*%
D21*
%TO.C,F2*%
X142270000Y-149052000D03*
X127270000Y-149372000D03*
%TD*%
%TO.C,F1*%
X150592000Y-147366000D03*
X165592000Y-147046000D03*
%TD*%
D22*
%TO.C,C2*%
X189190000Y-132588000D03*
D23*
X186690000Y-132588000D03*
%TD*%
D22*
%TO.C,C1*%
X188682000Y-121158000D03*
D23*
X186182000Y-121158000D03*
%TD*%
M02*
