M48
; DRILL file {KiCad 5.1.7-a382d34a8~88~ubuntu20.04.1} date Sun Dec 27 18:39:11 2020
; FORMAT={-:-/ absolute / metric / decimal}
; #@! TF.CreationDate,2020-12-27T18:39:11+01:00
; #@! TF.GenerationSoftware,Kicad,Pcbnew,5.1.7-a382d34a8~88~ubuntu20.04.1
; #@! TF.FileFunction,Plated,1,2,PTH
FMAT,2
METRIC
T1C0.400
T2C0.500
T3C0.700
T4C0.800
T5C1.110
T6C1.340
T7C1.500
T8C1.780
%
G90
G05
T1
X138.176Y-113.538
X142.748Y-109.982
X145.542Y-113.792
X150.114Y-114.062
T2
X150.114Y-108.062
X150.114Y-109.062
X150.114Y-110.062
X150.114Y-111.062
X150.114Y-112.062
X150.114Y-113.062
X150.114Y-114.062
X150.114Y-115.062
X201.168Y-124.46
X201.168Y-125.46
X201.422Y-119.142
X201.422Y-120.142
X200.914Y-129.302
X200.914Y-130.302
T3
X192.786Y-120.65
X195.326Y-120.65
X193.04Y-124.968
X195.58Y-124.968
X193.548Y-129.54
X196.088Y-129.54
T4
X142.748Y-109.982
X144.798Y-102.482
X186.182Y-121.158
X188.682Y-121.158
X186.69Y-132.588
X189.19Y-132.588
X139.542Y-121.69
X139.542Y-133.89
X151.542Y-121.69
X151.542Y-133.89
T5
X156.718Y-102.616
X156.718Y-105.156
X156.718Y-107.696
X156.718Y-110.236
X156.718Y-112.776
X156.718Y-115.316
X156.718Y-117.856
X156.718Y-120.396
X179.578Y-102.616
X179.578Y-105.156
X179.578Y-107.696
X179.578Y-110.236
X179.578Y-112.776
X179.578Y-115.316
X179.578Y-117.856
X179.578Y-120.396
T6
X145.542Y-135.89
T7
X186.69Y-108.966
X191.69Y-108.966
X130.81Y-100.41
X130.81Y-105.41
X196.596Y-138.684
X201.596Y-138.684
X181.022Y-147.066
T8
X150.592Y-147.366
X165.592Y-147.046
X127.27Y-149.372
X142.27Y-149.052
T7
G00X118.738Y-112.5
M15
G01X118.738Y-112.5
M16
G05
G00X124.238Y-141.5
M15
G01X124.238Y-141.5
M16
G05
G00X128.438Y-141.5
M15
G01X128.438Y-141.5
M16
G05
G00X133.738Y-112.5
M15
G01X133.738Y-112.5
M16
G05
G00X176.022Y-147.066
M15
G01X176.022Y-147.066
M16
G05
G00X186.022Y-147.066
M15
G01X186.022Y-147.066
M16
G05
T0
M30
